  0
SECTION
  2
HEADER
  9
$ACADVER
  1
AC1014
  9
$HANDSEED
  5
FFFF
  9
$INSUNITS
 70
     0
  9
$MEASUREMENT
 70
     1
  0
ENDSEC
  0
SECTION
  2
TABLES
  0
TABLE
  2
VPORT
  5
8
330
0
100
AcDbSymbolTable
 70
     4
  0
VPORT
  5
2E
330
8
100
AcDbSymbolTableRecord
100
AcDbViewportTableRecord
  2
*ACTIVE
 70
     0
 10
0.0
 20
0.0
 11
1.0
 21
1.0
 12
210.0
 22
148.5
 13
0.0
 23
0.0
 14
10.0
 24
10.0
 15
10.0
 25
10.0
 16
0.0
 26
0.0
 36
1.0
 17
0.0
 27
0.0
 37
0.0
 40
341.0
 41
1.24
 42
50.0
 43
0.0
 44
0.0
 50
0.0
 51
0.0
 71
     0
 72
   100
 73
     1
 74
     3
 75
     0
 76
     0
 77
     0
 78
     0
  0
ENDTAB
  0
TABLE
  2
LTYPE
  5
5
330
0
100
AcDbSymbolTable
 70
     1
  0
LTYPE
  5
14
330
5
100
AcDbSymbolTableRecord
100
AcDbLinetypeTableRecord
  2
BYBLOCK
 70
     0
  3

 72
    65
 73
     0
 40
0.0
  0
LTYPE
  5
15
330
5
100
AcDbSymbolTableRecord
100
AcDbLinetypeTableRecord
  2
BYLAYER
 70
     0
  3

 72
    65
 73
     0
 40
0.0
  0
LTYPE
  5
16
330
5
100
AcDbSymbolTableRecord
100
AcDbLinetypeTableRecord
  2
CONTINUOUS
 70
     0
  3
Solid line
 72
    65
 73
     0
 40
0.0
  0
ENDTAB
  0
TABLE
  2
LAYER
  5
2
100
AcDbSymbolTable
 70
1
  0
LAYER
  5
50
100
AcDbSymbolTableRecord
100
AcDbLayerTableRecord
  2
0
 70
0
  6
CONTINUOUS
  0
ENDTAB
  0
TABLE
  2
STYLE
  5
3
330
0
100
AcDbSymbolTable
 70
     1
  0
STYLE
  5
11
330
3
100
AcDbSymbolTableRecord
100
AcDbTextStyleTableRecord
  2
STANDARD
 70
     0
 40
0.0
 41
1.0
 50
0.0
 71
     0
 42
2.5
  3
txt
  4

  0
ENDTAB
  0
TABLE
  2
VIEW
  5
6
330
0
100
AcDbSymbolTable
 70
     0
  0
ENDTAB
  0
TABLE
  2
UCS
  5
7
330
0
100
AcDbSymbolTable
 70
     0
  0
ENDTAB
  0
TABLE
  2
APPID
  5
9
330
0
100
AcDbSymbolTable
 70
     2
  0
APPID
  5
12
330
9
100
AcDbSymbolTableRecord
100
AcDbRegAppTableRecord
  2
ACAD
 70
     0
  0
ENDTAB
  0
TABLE
  2
DIMSTYLE
  5
A
330
0
100
AcDbSymbolTable
 70
     1
  0
DIMSTYLE
105
27
330
A
100
AcDbSymbolTableRecord
100
AcDbDimStyleTableRecord
  2
ISO-25
 70
     0
  3

  4

  5

  6

  7

 40
1.0
 41
2.5
 42
0.625
 43
3.75
 44
1.25
 45
0.0
 46
0.0
 47
0.0
 48
0.0
140
2.5
141
2.5
142
0.0
143
0.03937007874016
144
1.0
145
0.0
146
1.0
147
0.625
 71
     0
 72
     0
 73
     0
 74
     0
 75
     0
 76
     0
 77
     1
 78
     8
170
     0
171
     3
172
     1
173
     0
174
     0
175
     0
176
     0
177
     0
178
     0
270
     2
271
     2
272
     2
273
     2
274
     3
340
11
275
     0
280
     0
281
     0
282
     0
283
     0
284
     8
285
     0
286
     0
287
     3
288
     0
  0
ENDTAB
  0
TABLE
  2
BLOCK_RECORD
  5
1
330
0
100
AcDbSymbolTable
 70
     1
  0
BLOCK_RECORD
  5
1F
330
1
100
AcDbSymbolTableRecord
100
AcDbBlockTableRecord
  2
*MODEL_SPACE
  0
BLOCK_RECORD
  5
1B
330
1
100
AcDbSymbolTableRecord
100
AcDbBlockTableRecord
  2
*PAPER_SPACE
  0
ENDTAB
  0
ENDSEC
  0
SECTION
  2
BLOCKS
  0
BLOCK
  5
20
330
1F
100
AcDbEntity
  8
0
100
AcDbBlockBegin
  2
*MODEL_SPACE
 70
     0
 10
0.0
 20
0.0
 30
0.0
  3
*MODEL_SPACE
  1

  0
ENDBLK
  5
21
330
1F
100
AcDbEntity
  8
0
100
AcDbBlockEnd
  0
BLOCK
  5
1C
330
1B
100
AcDbEntity
 67
     1
  8
0
100
AcDbBlockBegin
  2
*PAPER_SPACE
  1

  0
ENDBLK
  5
1D
330
1B
100
AcDbEntity
 67
     1
  8
0
100
AcDbBlockEnd
  0
ENDSEC
  0
SECTION
  2
ENTITIES
  0
SPLINE
  5
100
100
AcDbEntity
  8
0
 62
1
100
AcDbSpline
 70
8
 71
3
 72
8
 73
4
 74
0
 40
0
 40
0
 40
0
 40
0
 40
1
 40
1
 40
1
 40
1
 10
25.509081
 20
27.092319
 30
0.0
 10
25.898235
 20
28.004983
 30
0.0
 10
25.895289
 20
28.938077
 30
0.0
 10
25.500181
 20
29.799660
 30
0.0
  0
SPLINE
  5
101
100
AcDbEntity
  8
0
 62
1
100
AcDbSpline
 70
8
 71
3
 72
8
 73
4
 74
0
 40
0
 40
0
 40
0
 40
0
 40
1
 40
1
 40
1
 40
1
 10
25.500181
 20
29.799660
 30
0.0
 10
25.538501
 20
29.895015
 30
0.0
 10
25.573891
 20
30.000581
 30
0.0
 10
25.603366
 20
30.112962
 30
0.0
  0
SPLINE
  5
102
100
AcDbEntity
  8
0
 62
1
100
AcDbSpline
 70
8
 71
3
 72
8
 73
4
 74
0
 40
0
 40
0
 40
0
 40
0
 40
1
 40
1
 40
1
 40
1
 10
25.603366
 20
30.112962
 30
0.0
 10
25.862800
 20
31.114165
 30
0.0
 10
25.632836
 20
32.064287
 30
0.0
 10
24.945932
 20
32.833922
 30
0.0
  0
SPLINE
  5
103
100
AcDbEntity
  8
0
 62
1
100
AcDbSpline
 70
8
 71
3
 72
8
 73
4
 74
0
 40
0
 40
0
 40
0
 40
0
 40
1
 40
1
 40
1
 40
1
 10
24.945932
 20
32.833922
 30
0.0
 10
25.155250
 20
34.308486
 30
0.0
 10
24.724823
 20
35.680886
 30
0.0
 10
23.695922
 20
36.825118
 30
0.0
  0
SPLINE
  5
104
100
AcDbEntity
  8
0
 62
1
100
AcDbSpline
 70
8
 71
3
 72
8
 73
4
 74
0
 40
0
 40
0
 40
0
 40
0
 40
1
 40
1
 40
1
 40
1
 10
23.695922
 20
36.825118
 30
0.0
 10
23.477755
 20
37.066906
 30
0.0
 10
23.483652
 20
37.131610
 30
0.0
 10
23.489548
 20
37.189502
 30
0.0
  0
SPLINE
  5
105
100
AcDbEntity
  8
0
 62
1
100
AcDbSpline
 70
8
 71
3
 72
8
 73
4
 74
0
 40
0
 40
0
 40
0
 40
0
 40
1
 40
1
 40
1
 40
1
 10
23.489548
 20
37.189502
 30
0.0
 10
23.572098
 20
38.146436
 30
0.0
 10
23.171149
 20
38.990989
 30
0.0
 10
22.440011
 20
39.423484
 30
0.0
  0
SPLINE
  5
106
100
AcDbEntity
  8
0
 62
1
100
AcDbSpline
 70
8
 71
3
 72
8
 73
4
 74
0
 40
0
 40
0
 40
0
 40
0
 40
1
 40
1
 40
1
 40
1
 10
22.440011
 20
39.423484
 30
0.0
 10
22.416431
 20
39.484782
 30
0.0
 10
22.389891
 20
39.569917
 30
0.0
 10
22.378091
 20
39.614188
 30
0.0
  0
SPLINE
  5
107
100
AcDbEntity
  8
0
 62
1
100
AcDbSpline
 70
8
 71
3
 72
8
 73
4
 74
0
 40
0
 40
0
 40
0
 40
0
 40
1
 40
1
 40
1
 40
1
 10
22.295541
 20
39.866192
 30
0.0
 10
22.224831
 20
40.080736
 30
0.0
 10
22.159974
 20
40.281657
 30
0.0
 10
22.121650
 20
40.455337
 30
0.0
  0
SPLINE
  5
108
100
AcDbEntity
  8
0
 62
1
100
AcDbSpline
 70
8
 71
3
 72
8
 73
4
 74
0
 40
0
 40
0
 40
0
 40
0
 40
1
 40
1
 40
1
 40
1
 10
22.121650
 20
40.455337
 30
0.0
 10
21.832731
 20
41.797086
 30
0.0
 10
21.069164
 20
42.798292
 30
0.0
 10
19.901699
 20
43.384029
 30
0.0
  0
SPLINE
  5
109
100
AcDbEntity
  8
0
 62
1
100
AcDbSpline
 70
8
 71
3
 72
8
 73
4
 74
0
 40
0
 40
0
 40
0
 40
0
 40
1
 40
1
 40
1
 40
1
 10
19.901699
 20
43.384029
 30
0.0
 10
19.583301
 20
44.667887
 30
0.0
 10
18.616312
 20
45.703147
 30
0.0
 10
17.460639
 20
46.013043
 30
0.0
  0
SPLINE
  5
10a
100
AcDbEntity
  8
0
 62
1
100
AcDbSpline
 70
8
 71
3
 72
8
 73
4
 74
0
 40
0
 40
0
 40
0
 40
0
 40
1
 40
1
 40
1
 40
1
 10
17.460639
 20
46.013043
 30
0.0
 10
16.906391
 20
46.854192
 30
0.0
 10
16.027844
 20
47.310522
 30
0.0
 10
14.931135
 20
47.310522
 30
0.0
  0
SPLINE
  5
10b
100
AcDbEntity
  8
0
 62
1
100
AcDbSpline
 70
8
 71
3
 72
8
 73
4
 74
0
 40
0
 40
0
 40
0
 40
0
 40
1
 40
1
 40
1
 40
1
 10
14.931135
 20
47.310522
 30
0.0
 10
14.863317
 20
47.310522
 30
0.0
 10
14.795520
 20
47.310522
 30
0.0
 10
14.727713
 20
47.307122
 30
0.0
  0
SPLINE
  5
10c
100
AcDbEntity
  8
0
 62
1
100
AcDbSpline
 70
8
 71
3
 72
8
 73
4
 74
0
 40
0
 40
0
 40
0
 40
0
 40
1
 40
1
 40
1
 40
1
 10
14.727713
 20
47.307122
 30
0.0
 10
14.518394
 20
47.518260
 30
0.0
 10
14.279597
 20
47.712373
 30
0.0
 10
14.005418
 20
47.896268
 30
0.0
  0
SPLINE
  5
10d
100
AcDbEntity
  8
0
 62
1
100
AcDbSpline
 70
8
 71
3
 72
8
 73
4
 74
0
 40
0
 40
0
 40
0
 40
0
 40
1
 40
1
 40
1
 40
1
 10
14.005418
 20
47.896268
 30
0.0
 10
13.312607
 20
48.362816
 30
0.0
 10
12.622742
 20
48.373033
 30
0.0
 10
12.121558
 20
48.379843
 30
0.0
  0
SPLINE
  5
10e
100
AcDbEntity
  8
0
 62
1
100
AcDbSpline
 70
8
 71
3
 72
8
 73
4
 74
0
 40
0
 40
0
 40
0
 40
0
 40
1
 40
1
 40
1
 40
1
 10
12.121558
 20
48.379843
 30
0.0
 10
12.033116
 20
48.379843
 30
0.0
 10
11.944670
 20
48.383243
 30
0.0
 10
11.856225
 20
48.386643
 30
0.0
  0
SPLINE
  5
10f
100
AcDbEntity
  8
0
 62
1
100
AcDbSpline
 70
8
 71
3
 72
8
 73
4
 74
0
 40
0
 40
0
 40
0
 40
0
 40
1
 40
1
 40
1
 40
1
 10
11.856225
 20
48.386643
 30
0.0
 10
11.797258
 20
48.393543
 30
0.0
 10
11.741245
 20
48.393543
 30
0.0
 10
11.688179
 20
48.393543
 30
0.0
  0
SPLINE
  5
110
100
AcDbEntity
  8
0
 62
1
100
AcDbSpline
 70
8
 71
3
 72
8
 73
4
 74
0
 40
0
 40
0
 40
0
 40
0
 40
1
 40
1
 40
1
 40
1
 10
11.688179
 20
48.393543
 30
0.0
 10
11.054330
 20
48.393543
 30
0.0
 10
10.452911
 20
48.192622
 30
0.0
 10
9.901608
 20
47.800995
 30
0.0
  0
SPLINE
  5
111
100
AcDbEntity
  8
0
 62
1
100
AcDbSpline
 70
8
 71
3
 72
8
 73
4
 74
0
 40
0
 40
0
 40
0
 40
0
 40
1
 40
1
 40
1
 40
1
 10
9.901608
 20
47.800995
 30
0.0
 10
9.341460
 20
47.402557
 30
0.0
 10
9.014218
 20
46.878115
 30
0.0
 10
8.760677
 20
46.428595
 30
0.0
  0
LWPOLYLINE
  5
112
100
AcDbEntity
  8
0
 62
1
100
AcDbPolyline
 90
2
 70
0
 10
22.378091
 20
39.614188
 30
0.0
 10
22.295541
 20
39.866192
 30
0.0
  0
SPLINE
  5
113
100
AcDbEntity
  8
0
 62
1
100
AcDbSpline
 70
8
 71
3
 72
8
 73
4
 74
0
 40
0
 40
0
 40
0
 40
0
 40
1
 40
1
 40
1
 40
1
 10
8.760677
 20
46.428595
 30
0.0
 10
8.551358
 20
46.428595
 30
0.0
 10
8.224116
 20
46.414955
 30
0.0
 10
7.876233
 20
46.268539
 30
0.0
  0
SPLINE
  5
114
100
AcDbEntity
  8
0
 62
1
100
AcDbSpline
 70
8
 71
3
 72
8
 73
4
 74
0
 40
0
 40
0
 40
0
 40
0
 40
1
 40
1
 40
1
 40
1
 10
7.876233
 20
46.268539
 30
0.0
 10
6.888607
 20
45.849668
 30
0.0
 10
6.210535
 20
45.090250
 30
0.0
 10
5.912773
 20
44.085641
 30
0.0
  0
SPLINE
  5
115
100
AcDbEntity
  8
0
 62
1
100
AcDbSpline
 70
8
 71
3
 72
8
 73
4
 74
0
 40
0
 40
0
 40
0
 40
0
 40
1
 40
1
 40
1
 40
1
 10
5.912773
 20
44.085641
 30
0.0
 10
4.506510
 20
43.520332
 30
0.0
 10
3.492351
 20
42.154746
 30
0.0
 10
3.312515
 20
40.499692
 30
0.0
  0
SPLINE
  5
116
100
AcDbEntity
  8
0
 62
1
100
AcDbSpline
 70
8
 71
3
 72
8
 73
4
 74
0
 40
0
 40
0
 40
0
 40
0
 40
1
 40
1
 40
1
 40
1
 10
3.312515
 20
40.499692
 30
0.0
 10
3.283026
 20
40.234066
 30
0.0
 10
3.262392
 20
40.162552
 30
0.0
 10
3.253548
 20
40.142118
 30
0.0
  0
SPLINE
  5
117
100
AcDbEntity
  8
0
 62
1
100
AcDbSpline
 70
8
 71
3
 72
8
 73
4
 74
0
 40
0
 40
0
 40
0
 40
0
 40
1
 40
1
 40
1
 40
1
 10
3.253548
 20
40.142118
 30
0.0
 10
3.253548
 20
40.142118
 30
0.0
 10
3.241746
 20
40.125087
 30
0.0
 10
3.203434
 20
40.084226
 30
0.0
  0
SPLINE
  5
118
100
AcDbEntity
  8
0
 62
1
100
AcDbSpline
 70
8
 71
3
 72
8
 73
4
 74
0
 40
0
 40
0
 40
0
 40
0
 40
1
 40
1
 40
1
 40
1
 10
3.203434
 20
40.084226
 30
0.0
 10
2.198117
 20
39.134105
 30
0.0
 10
1.717572
 20
37.805976
 30
0.0
 10
1.814860
 20
36.246273
 30
0.0
  0
SPLINE
  5
119
100
AcDbEntity
  8
0
 62
1
100
AcDbSpline
 70
8
 71
3
 72
8
 73
4
 74
0
 40
0
 40
0
 40
0
 40
0
 40
1
 40
1
 40
1
 40
1
 10
1.814860
 20
36.246273
 30
0.0
 10
1.826662
 20
36.048759
 30
0.0
 10
1.809000
 20
36.014705
 30
0.0
 10
1.702830
 20
35.895513
 30
0.0
  0
SPLINE
  5
11a
100
AcDbEntity
  8
0
 62
1
100
AcDbSpline
 70
8
 71
3
 72
8
 73
4
 74
0
 40
0
 40
0
 40
0
 40
0
 40
1
 40
1
 40
1
 40
1
 10
1.702830
 20
35.895513
 30
0.0
 10
0.724047
 20
34.815983
 30
0.0
 10
0.370270
 20
33.375475
 30
0.0
 10
0.703412
 20
31.836209
 30
0.0
  0
SPLINE
  5
11b
100
AcDbEntity
  8
0
 62
1
100
AcDbSpline
 70
8
 71
3
 72
8
 73
4
 74
0
 40
0
 40
0
 40
0
 40
0
 40
1
 40
1
 40
1
 40
1
 10
0.703412
 20
31.836209
 30
0.0
 10
0.706382
 20
31.826005
 30
0.0
 10
0.706382
 20
31.815774
 30
0.0
 10
0.709272
 20
31.812374
 30
0.0
  0
SPLINE
  5
11c
100
AcDbEntity
  8
0
 62
1
100
AcDbSpline
 70
8
 71
3
 72
8
 73
4
 74
0
 40
0
 40
0
 40
0
 40
0
 40
1
 40
1
 40
1
 40
1
 10
0.709272
 20
31.812374
 30
0.0
 10
0.706302
 20
31.805599
 30
0.0
 10
0.700442
 20
31.788538
 30
0.0
 10
0.691581
 20
31.768108
 30
0.0
  0
SPLINE
  5
11d
100
AcDbEntity
  8
0
 62
1
100
AcDbSpline
 70
8
 71
3
 72
8
 73
4
 74
0
 40
0
 40
0
 40
0
 40
0
 40
1
 40
1
 40
1
 40
1
 10
0.691581
 20
31.768108
 30
0.0
 10
0.172716
 20
30.552268
 30
0.0
 10
0.134390
 20
29.421659
 30
0.0
 10
0.576612
 20
28.393209
 30
0.0
  0
SPLINE
  5
11e
100
AcDbEntity
  8
0
 62
1
100
AcDbSpline
 70
8
 71
3
 72
8
 73
4
 74
0
 40
0
 40
0
 40
0
 40
0
 40
1
 40
1
 40
1
 40
1
 10
0.576612
 20
28.393209
 30
0.0
 10
0.163871
 20
27.340923
 30
0.0
 10
0.149129
 20
26.336313
 30
0.0
 10
0.535341
 20
25.403219
 30
0.0
  0
SPLINE
  5
11f
100
AcDbEntity
  8
0
 62
1
100
AcDbSpline
 70
8
 71
3
 72
8
 73
4
 74
0
 40
0
 40
0
 40
0
 40
0
 40
1
 40
1
 40
1
 40
1
 10
0.535341
 20
25.403219
 30
0.0
 10
0.429207
 20
25.066079
 30
0.0
 10
0.320126
 20
24.592720
 30
0.0
 10
0.455749
 20
24.044440
 30
0.0
  0
SPLINE
  5
120
100
AcDbEntity
  8
0
 62
1
100
AcDbSpline
 70
8
 71
3
 72
8
 73
4
 74
0
 40
0
 40
0
 40
0
 40
0
 40
1
 40
1
 40
1
 40
1
 10
0.455749
 20
24.044440
 30
0.0
 10
0.452779
 20
24.013787
 30
0.0
 10
0.435113
 20
23.938868
 30
0.0
 10
0.376157
 20
23.772004
 30
0.0
  0
SPLINE
  5
121
100
AcDbEntity
  8
0
 62
1
100
AcDbSpline
 70
8
 71
3
 72
8
 73
4
 74
0
 40
0
 40
0
 40
0
 40
0
 40
1
 40
1
 40
1
 40
1
 10
0.376157
 20
23.772004
 30
0.0
 10
0.031226
 20
22.791232
 30
0.0
 10
0.040069
 20
21.817271
 30
0.0
 10
0.402687
 20
20.873960
 30
0.0
  0
SPLINE
  5
122
100
AcDbEntity
  8
0
 62
1
100
AcDbSpline
 70
8
 71
3
 72
8
 73
4
 74
0
 40
0
 40
0
 40
0
 40
0
 40
1
 40
1
 40
1
 40
1
 10
0.402687
 20
20.873960
 30
0.0
 10
0.461651
 20
20.724120
 30
0.0
 10
0.458709
 20
20.673036
 30
0.0
 10
0.458709
 20
20.673036
 30
0.0
  0
SPLINE
  5
123
100
AcDbEntity
  8
0
 62
1
100
AcDbSpline
 70
8
 71
3
 72
8
 73
4
 74
0
 40
0
 40
0
 40
0
 40
0
 40
1
 40
1
 40
1
 40
1
 10
0.458709
 20
20.673036
 30
0.0
 10
0.331940
 20
20.196274
 30
0.0
 10
0.187482
 20
19.559454
 30
0.0
 10
0.225806
 20
18.868145
 30
0.0
  0
SPLINE
  5
124
100
AcDbEntity
  8
0
 62
1
100
AcDbSpline
 70
8
 71
3
 72
8
 73
4
 74
0
 40
0
 40
0
 40
0
 40
0
 40
1
 40
1
 40
1
 40
1
 10
0.225806
 20
18.868145
 30
0.0
 10
0.287716
 20
17.659208
 30
0.0
 10
0.747627
 20
16.610326
 30
0.0
 10
1.555418
 20
15.827070
 30
0.0
  0
SPLINE
  5
125
100
AcDbEntity
  8
0
 62
1
100
AcDbSpline
 70
8
 71
3
 72
8
 73
4
 74
0
 40
0
 40
0
 40
0
 40
0
 40
1
 40
1
 40
1
 40
1
 10
1.555418
 20
15.827070
 30
0.0
 10
1.555418
 20
15.803240
 30
0.0
 10
1.552448
 20
15.762360
 30
0.0
 10
1.546588
 20
15.707881
 30
0.0
  0
SPLINE
  5
126
100
AcDbEntity
  8
0
 62
1
100
AcDbSpline
 70
8
 71
3
 72
8
 73
4
 74
0
 40
0
 40
0
 40
0
 40
0
 40
1
 40
1
 40
1
 40
1
 10
1.546588
 20
15.707881
 30
0.0
 10
1.396231
 20
14.676028
 30
0.0
 10
1.549558
 20
13.729310
 30
0.0
 10
1.982914
 20
12.932434
 30
0.0
  0
SPLINE
  5
127
100
AcDbEntity
  8
0
 62
1
100
AcDbSpline
 70
8
 71
3
 72
8
 73
4
 74
0
 40
0
 40
0
 40
0
 40
0
 40
1
 40
1
 40
1
 40
1
 10
1.982914
 20
12.932434
 30
0.0
 10
1.502365
 20
11.886957
 30
0.0
 10
1.234085
 20
10.752939
 30
0.0
 10
1.234085
 20
9.567841
 30
0.0
  0
SPLINE
  5
128
100
AcDbEntity
  8
0
 62
1
100
AcDbSpline
 70
8
 71
3
 72
8
 73
4
 74
0
 40
0
 40
0
 40
0
 40
0
 40
1
 40
1
 40
1
 40
1
 10
1.234085
 20
9.567841
 30
0.0
 10
1.234085
 20
4.350681
 30
0.0
 10
6.343211
 20
0.124506
 30
0.0
 10
12.646338
 20
0.124506
 30
0.0
  0
SPLINE
  5
129
100
AcDbEntity
  8
0
 62
1
100
AcDbSpline
 70
8
 71
3
 72
8
 73
4
 74
0
 40
0
 40
0
 40
0
 40
0
 40
1
 40
1
 40
1
 40
1
 10
12.646338
 20
0.124506
 30
0.0
 10
18.949463
 20
0.124506
 30
0.0
 10
24.058588
 20
4.354085
 30
0.0
 10
24.058588
 20
9.567841
 30
0.0
  0
SPLINE
  5
12a
100
AcDbEntity
  8
0
 62
1
100
AcDbSpline
 70
8
 71
3
 72
8
 73
4
 74
0
 40
0
 40
0
 40
0
 40
0
 40
1
 40
1
 40
1
 40
1
 10
24.058588
 20
9.567841
 30
0.0
 10
24.058588
 20
10.620127
 30
0.0
 10
23.846324
 20
11.631549
 30
0.0
 10
23.463065
 20
12.578265
 30
0.0
  0
SPLINE
  5
12b
100
AcDbEntity
  8
0
 62
1
100
AcDbSpline
 70
8
 71
3
 72
8
 73
4
 74
0
 40
0
 40
0
 40
0
 40
0
 40
1
 40
1
 40
1
 40
1
 10
23.463065
 20
12.578265
 30
0.0
 10
23.572146
 20
12.939245
 30
0.0
 10
23.583939
 20
13.272977
 30
0.0
 10
23.560345
 20
13.545415
 30
0.0
  0
SPLINE
  5
12c
100
AcDbEntity
  8
0
 62
1
100
AcDbSpline
 70
8
 71
3
 72
8
 73
4
 74
0
 40
0
 40
0
 40
0
 40
0
 40
1
 40
1
 40
1
 40
1
 10
23.560345
 20
13.545415
 30
0.0
 10
23.557445
 20
13.582875
 30
0.0
 10
23.551445
 20
13.647580
 30
0.0
 10
23.719544
 20
13.892769
 30
0.0
  0
SPLINE
  5
12d
100
AcDbEntity
  8
0
 62
1
100
AcDbSpline
 70
8
 71
3
 72
8
 73
4
 74
0
 40
0
 40
0
 40
0
 40
0
 40
1
 40
1
 40
1
 40
1
 10
23.719544
 20
13.892769
 30
0.0
 10
24.444784
 20
14.938246
 30
0.0
 10
24.683584
 20
16.140372
 30
0.0
 10
24.400565
 20
17.315255
 30
0.0
  0
SPLINE
  5
12e
100
AcDbEntity
  8
0
 62
1
100
AcDbSpline
 70
8
 71
3
 72
8
 73
4
 74
0
 40
0
 40
0
 40
0
 40
0
 40
1
 40
1
 40
1
 40
1
 10
24.400565
 20
17.315255
 30
0.0
 10
25.096322
 20
18.146187
 30
0.0
 10
25.397035
 20
19.225719
 30
0.0
 10
25.249625
 20
20.376763
 30
0.0
  0
SPLINE
  5
12f
100
AcDbEntity
  8
0
 62
1
100
AcDbSpline
 70
8
 71
3
 72
8
 73
4
 74
0
 40
0
 40
0
 40
0
 40
0
 40
1
 40
1
 40
1
 40
1
 10
25.249625
 20
20.376763
 30
0.0
 10
25.184755
 20
20.890987
 30
0.0
 10
25.167065
 20
21.251967
 30
0.0
 10
25.273205
 20
21.572077
 30
0.0
  0
SPLINE
  5
130
100
AcDbEntity
  8
0
 62
1
100
AcDbSpline
 70
8
 71
3
 72
8
 73
4
 74
0
 40
0
 40
0
 40
0
 40
0
 40
1
 40
1
 40
1
 40
1
 10
25.273205
 20
21.572077
 30
0.0
 10
25.668257
 20
22.746961
 30
0.0
 10
25.688892
 20
23.863950
 30
0.0
 10
25.343965
 20
24.902616
 30
0.0
  0
SPLINE
  5
131
100
AcDbEntity
  8
0
 62
1
100
AcDbSpline
 70
8
 71
3
 72
8
 73
4
 74
0
 40
0
 40
0
 40
0
 40
0
 40
1
 40
1
 40
1
 40
1
 10
25.343965
 20
24.902616
 30
0.0
 10
25.680051
 20
25.583706
 30
0.0
 10
25.744907
 20
26.360153
 30
0.0
 10
25.509058
 20
27.092324
 30
0.0
  0
LWPOLYLINE
  5
132
100
AcDbEntity
  8
0
 62
1
100
AcDbPolyline
 90
1
 70
1
 10
8.760677
 20
46.428595
 30
0.0
  0
SPLINE
  5
133
100
AcDbEntity
  8
0
 62
1
100
AcDbSpline
 70
8
 71
3
 72
8
 73
4
 74
0
 40
0
 40
0
 40
0
 40
0
 40
1
 40
1
 40
1
 40
1
 10
11.914956
 20
47.366224
 30
0.0
 10
11.238824
 20
47.366224
 30
0.0
 10
10.629269
 20
46.900811
 30
0.0
 10
10.370524
 20
46.187008
 30
0.0
  0
SPLINE
  5
134
100
AcDbEntity
  8
0
 62
1
100
AcDbSpline
 70
8
 71
3
 72
8
 73
4
 74
0
 40
0
 40
0
 40
0
 40
0
 40
1
 40
1
 40
1
 40
1
 10
10.370524
 20
46.187008
 30
0.0
 10
10.111780
 20
45.473204
 30
0.0
 10
10.254802
 20
44.651581
 30
0.0
 10
10.732899
 20
44.105259
 30
0.0
  0
SPLINE
  5
135
100
AcDbEntity
  8
0
 62
1
100
AcDbSpline
 70
8
 71
3
 72
8
 73
4
 74
0
 40
0
 40
0
 40
0
 40
0
 40
1
 40
1
 40
1
 40
1
 10
10.732899
 20
44.105259
 30
0.0
 10
11.210996
 20
43.558938
 30
0.0
 10
11.930016
 20
43.395507
 30
0.0
 10
12.554680
 20
43.691174
 30
0.0
  0
SPLINE
  5
136
100
AcDbEntity
  8
0
 62
1
100
AcDbSpline
 70
8
 71
3
 72
8
 73
4
 74
0
 40
0
 40
0
 40
0
 40
0
 40
1
 40
1
 40
1
 40
1
 10
12.554680
 20
43.691174
 30
0.0
 10
13.179344
 20
43.986841
 30
0.0
 10
13.586636
 20
44.683380
 30
0.0
 10
13.586636
 20
45.455995
 30
0.0
  0
SPLINE
  5
137
100
AcDbEntity
  8
0
 62
1
100
AcDbSpline
 70
8
 71
3
 72
8
 73
4
 74
0
 40
0
 40
0
 40
0
 40
0
 40
1
 40
1
 40
1
 40
1
 10
13.586636
 20
45.455995
 30
0.0
 10
13.586636
 20
45.962619
 30
0.0
 10
13.410513
 20
46.448493
 30
0.0
 10
13.097012
 20
46.806731
 30
0.0
  0
SPLINE
  5
138
100
AcDbEntity
  8
0
 62
1
100
AcDbSpline
 70
8
 71
3
 72
8
 73
4
 74
0
 40
0
 40
0
 40
0
 40
0
 40
1
 40
1
 40
1
 40
1
 10
13.097012
 20
46.806731
 30
0.0
 10
12.783511
 20
47.164968
 30
0.0
 10
12.358313
 20
47.366224
 30
0.0
 10
11.914956
 20
47.366224
 30
0.0
  0
LWPOLYLINE
  5
139
100
AcDbEntity
  8
0
 62
1
100
AcDbPolyline
 90
1
 70
1
 10
25.509058
 20
27.092324
 30
0.0
  0
SPLINE
  5
13a
100
AcDbEntity
  8
0
 62
7
100
AcDbSpline
 70
8
 71
3
 72
8
 73
4
 74
0
 40
0
 40
0
 40
0
 40
0
 40
1
 40
1
 40
1
 40
1
 10
83.985228
 20
-39.942009
 30
0.0
 10
83.975228
 20
-38.622009
 30
0.0
 10
83.305228
 20
-37.372009
 30
0.0
 10
82.145228
 20
-36.472009
 30
0.0
  0
SPLINE
  5
13b
100
AcDbEntity
  8
0
 62
7
100
AcDbSpline
 70
8
 71
3
 72
8
 73
4
 74
0
 40
0
 40
0
 40
0
 40
0
 40
1
 40
1
 40
1
 40
1
 10
82.145228
 20
-36.472009
 30
0.0
 10
82.865228
 20
-35.632009
 30
0.0
 10
83.025228
 20
-34.612009
 30
0.0
 10
82.645228
 20
-33.262009
 30
0.0
  0
SPLINE
  5
13c
100
AcDbEntity
  8
0
 62
7
100
AcDbSpline
 70
8
 71
3
 72
8
 73
4
 74
0
 40
0
 40
0
 40
0
 40
0
 40
1
 40
1
 40
1
 40
1
 10
82.645228
 20
-33.262009
 30
0.0
 10
82.295228
 20
-32.022009
 30
0.0
 10
82.005228
 20
-30.812009
 30
0.0
 10
82.235228
 20
-29.582009
 30
0.0
  0
SPLINE
  5
13d
100
AcDbEntity
  8
0
 62
7
100
AcDbSpline
 70
8
 71
3
 72
8
 73
4
 74
0
 40
0
 40
0
 40
0
 40
0
 40
1
 40
1
 40
1
 40
1
 10
82.235228
 20
-29.582009
 30
0.0
 10
82.585228
 20
-27.742009
 30
0.0
 10
81.955228
 20
-26.162009
 30
0.0
 10
81.225228
 20
-24.742009
 30
0.0
  0
SPLINE
  5
13e
100
AcDbEntity
  8
0
 62
7
100
AcDbSpline
 70
8
 71
3
 72
8
 73
4
 74
0
 40
0
 40
0
 40
0
 40
0
 40
1
 40
1
 40
1
 40
1
 10
81.225228
 20
-24.742009
 30
0.0
 10
81.085228
 20
-24.482009
 30
0.0
 10
81.075228
 20
-24.322009
 30
0.0
 10
81.155228
 20
-24.092010
 30
0.0
  0
SPLINE
  5
13f
100
AcDbEntity
  8
0
 62
7
100
AcDbSpline
 70
8
 71
3
 72
8
 73
4
 74
0
 40
0
 40
0
 40
0
 40
0
 40
1
 40
1
 40
1
 40
1
 10
81.155228
 20
-24.092010
 30
0.0
 10
82.245228
 20
-21.022010
 30
0.0
 10
81.155228
 20
-17.812010
 30
0.0
 10
78.425228
 20
-16.082010
 30
0.0
  0
SPLINE
  5
140
100
AcDbEntity
  8
0
 62
7
100
AcDbSpline
 70
8
 71
3
 72
8
 73
4
 74
0
 40
0
 40
0
 40
0
 40
0
 40
1
 40
1
 40
1
 40
1
 10
78.425228
 20
-16.082010
 30
0.0
 10
78.085228
 20
-15.872010
 30
0.0
 10
78.095228
 20
-15.832010
 30
0.0
 10
78.245228
 20
-15.432010
 30
0.0
  0
SPLINE
  5
141
100
AcDbEntity
  8
0
 62
7
100
AcDbSpline
 70
8
 71
3
 72
8
 73
4
 74
0
 40
0
 40
0
 40
0
 40
0
 40
1
 40
1
 40
1
 40
1
 10
78.245228
 20
-15.432010
 30
0.0
 10
78.935228
 20
-13.592010
 30
0.0
 10
78.185228
 20
-11.492010
 30
0.0
 10
76.475228
 20
-10.532010
 30
0.0
  0
SPLINE
  5
142
100
AcDbEntity
  8
0
 62
7
100
AcDbSpline
 70
8
 71
3
 72
8
 73
4
 74
0
 40
0
 40
0
 40
0
 40
0
 40
1
 40
1
 40
1
 40
1
 10
76.475228
 20
-10.532010
 30
0.0
 10
76.065228
 20
-10.302010
 30
0.0
 10
76.025228
 20
-10.282010
 30
0.0
 10
76.195228
 20
-9.852010
 30
0.0
  0
SPLINE
  5
143
100
AcDbEntity
  8
0
 62
7
100
AcDbSpline
 70
8
 71
3
 72
8
 73
4
 74
0
 40
0
 40
0
 40
0
 40
0
 40
1
 40
1
 40
1
 40
1
 10
76.195228
 20
-9.852010
 30
0.0
 10
76.665228
 20
-8.662010
 30
0.0
 10
76.565228
 20
-7.372010
 30
0.0
 10
75.915228
 20
-6.312010
 30
0.0
  0
SPLINE
  5
144
100
AcDbEntity
  8
0
 62
7
100
AcDbSpline
 70
8
 71
3
 72
8
 73
4
 74
0
 40
0
 40
0
 40
0
 40
0
 40
1
 40
1
 40
1
 40
1
 10
75.915228
 20
-6.312010
 30
0.0
 10
75.265228
 20
-5.242010
 30
0.0
 10
74.155228
 20
-4.552010
 30
0.0
 10
72.865228
 20
-4.422010
 30
0.0
  0
SPLINE
  5
145
100
AcDbEntity
  8
0
 62
7
100
AcDbSpline
 70
8
 71
3
 72
8
 73
4
 74
0
 40
0
 40
0
 40
0
 40
0
 40
1
 40
1
 40
1
 40
1
 10
72.865228
 20
-4.422010
 30
0.0
 10
72.595229
 20
-4.392010
 30
0.0
 10
72.545229
 20
-4.342010
 30
0.0
 10
72.545229
 20
-4.342010
 30
0.0
  0
SPLINE
  5
146
100
AcDbEntity
  8
0
 62
7
100
AcDbSpline
 70
8
 71
3
 72
8
 73
4
 74
0
 40
0
 40
0
 40
0
 40
0
 40
1
 40
1
 40
1
 40
1
 10
72.545229
 20
-4.342010
 30
0.0
 10
72.545229
 20
-4.332010
 30
0.0
 10
72.525229
 20
-4.272010
 30
0.0
 10
72.585229
 20
-4.042010
 30
0.0
  0
SPLINE
  5
147
100
AcDbEntity
  8
0
 62
7
100
AcDbSpline
 70
8
 71
3
 72
8
 73
4
 74
0
 40
0
 40
0
 40
0
 40
0
 40
1
 40
1
 40
1
 40
1
 10
72.585229
 20
-4.042010
 30
0.0
 10
72.885228
 20
-2.842010
 30
0.0
 10
72.715229
 20
-1.642010
 30
0.0
 10
72.535229
 20
-0.722010
 30
0.0
  0
SPLINE
  5
148
100
AcDbEntity
  8
0
 62
7
100
AcDbSpline
 70
8
 71
3
 72
8
 73
4
 74
0
 40
0
 40
0
 40
0
 40
0
 40
1
 40
1
 40
1
 40
1
 10
72.535229
 20
-0.722010
 30
0.0
 10
72.115229
 20
1.397990
 30
0.0
 10
71.085229
 20
2.697990
 30
0.0
 10
69.375229
 20
3.257990
 30
0.0
  0
SPLINE
  5
149
100
AcDbEntity
  8
0
 62
7
100
AcDbSpline
 70
8
 71
3
 72
8
 73
4
 74
0
 40
0
 40
0
 40
0
 40
0
 40
1
 40
1
 40
1
 40
1
 10
69.375229
 20
3.257990
 30
0.0
 10
69.085229
 20
3.357990
 30
0.0
 10
68.765229
 20
3.317990
 30
0.0
 10
68.475229
 20
3.277990
 30
0.0
  0
SPLINE
  5
14a
100
AcDbEntity
  8
0
 62
7
100
AcDbSpline
 70
8
 71
3
 72
8
 73
4
 74
0
 40
0
 40
0
 40
0
 40
0
 40
1
 40
1
 40
1
 40
1
 10
68.475229
 20
3.277990
 30
0.0
 10
68.055229
 20
3.227990
 30
0.0
 10
67.865229
 20
3.217990
 30
0.0
 10
67.785229
 20
3.377990
 30
0.0
  0
SPLINE
  5
14b
100
AcDbEntity
  8
0
 62
7
100
AcDbSpline
 70
8
 71
3
 72
8
 73
4
 74
0
 40
0
 40
0
 40
0
 40
0
 40
1
 40
1
 40
1
 40
1
 10
67.785229
 20
3.377990
 30
0.0
 10
67.645229
 20
3.647990
 30
0.0
 10
67.685229
 20
4.037990
 30
0.0
 10
67.715229
 20
4.457990
 30
0.0
  0
SPLINE
  5
14c
100
AcDbEntity
  8
0
 62
7
100
AcDbSpline
 70
8
 71
3
 72
8
 73
4
 74
0
 40
0
 40
0
 40
0
 40
0
 40
1
 40
1
 40
1
 40
1
 10
67.715229
 20
4.457990
 30
0.0
 10
67.735229
 20
4.707990
 30
0.0
 10
67.765229
 20
4.967990
 30
0.0
 10
67.745229
 20
5.217990
 30
0.0
  0
SPLINE
  5
14d
100
AcDbEntity
  8
0
 62
7
100
AcDbSpline
 70
8
 71
3
 72
8
 73
4
 74
0
 40
0
 40
0
 40
0
 40
0
 40
1
 40
1
 40
1
 40
1
 10
67.745229
 20
5.217990
 30
0.0
 10
67.645229
 20
7.067990
 30
0.0
 10
67.045229
 20
8.497990
 30
0.0
 10
65.995229
 20
9.347990
 30
0.0
  0
SPLINE
  5
14e
100
AcDbEntity
  8
0
 62
7
100
AcDbSpline
 70
8
 71
3
 72
8
 73
4
 74
0
 40
0
 40
0
 40
0
 40
0
 40
1
 40
1
 40
1
 40
1
 10
65.995229
 20
9.347990
 30
0.0
 10
65.165229
 20
10.017990
 30
0.0
 10
64.075229
 20
10.297990
 30
0.0
 10
62.815229
 20
10.157990
 30
0.0
  0
SPLINE
  5
14f
100
AcDbEntity
  8
0
 62
7
100
AcDbSpline
 70
8
 71
3
 72
8
 73
4
 74
0
 40
0
 40
0
 40
0
 40
0
 40
1
 40
1
 40
1
 40
1
 10
62.815229
 20
10.157990
 30
0.0
 10
62.545229
 20
14.757990
 30
0.0
 10
61.665229
 20
16.147990
 30
0.0
 10
58.705229
 20
16.517990
 30
0.0
  0
SPLINE
  5
150
100
AcDbEntity
  8
0
 62
7
100
AcDbSpline
 70
8
 71
3
 72
8
 73
4
 74
0
 40
0
 40
0
 40
0
 40
0
 40
1
 40
1
 40
1
 40
1
 10
58.705229
 20
16.517990
 30
0.0
 10
58.825229
 20
17.127990
 30
0.0
 10
58.595229
 20
17.687990
 30
0.0
 10
58.325229
 20
18.197990
 30
0.0
  0
SPLINE
  5
151
100
AcDbEntity
  8
0
 62
7
100
AcDbSpline
 70
8
 71
3
 72
8
 73
4
 74
0
 40
0
 40
0
 40
0
 40
0
 40
1
 40
1
 40
1
 40
1
 10
58.325229
 20
18.197990
 30
0.0
 10
57.705229
 20
19.337990
 30
0.0
 10
56.815229
 20
20.237990
 30
0.0
 10
55.945229
 20
21.037990
 30
0.0
  0
SPLINE
  5
152
100
AcDbEntity
  8
0
 62
7
100
AcDbSpline
 70
8
 71
3
 72
8
 73
4
 74
0
 40
0
 40
0
 40
0
 40
0
 40
1
 40
1
 40
1
 40
1
 10
55.945229
 20
21.037990
 30
0.0
 10
54.985229
 20
21.917990
 30
0.0
 10
53.835229
 20
22.207990
 30
0.0
 10
52.625229
 20
21.867990
 30
0.0
  0
SPLINE
  5
153
100
AcDbEntity
  8
0
 62
7
100
AcDbSpline
 70
8
 71
3
 72
8
 73
4
 74
0
 40
0
 40
0
 40
0
 40
0
 40
1
 40
1
 40
1
 40
1
 10
52.625229
 20
21.867990
 30
0.0
 10
52.075229
 20
21.717990
 30
0.0
 10
52.025229
 20
21.767990
 30
0.0
 10
51.885229
 20
22.267990
 30
0.0
  0
SPLINE
  5
154
100
AcDbEntity
  8
0
 62
7
100
AcDbSpline
 70
8
 71
3
 72
8
 73
4
 74
0
 40
0
 40
0
 40
0
 40
0
 40
1
 40
1
 40
1
 40
1
 10
51.885229
 20
22.267990
 30
0.0
 10
51.575229
 20
23.397990
 30
0.0
 10
50.745229
 20
24.137990
 30
0.0
 10
49.565229
 20
24.357989
 30
0.0
  0
SPLINE
  5
155
100
AcDbEntity
  8
0
 62
7
100
AcDbSpline
 70
8
 71
3
 72
8
 73
4
 74
0
 40
0
 40
0
 40
0
 40
0
 40
1
 40
1
 40
1
 40
1
 10
49.565229
 20
24.357989
 30
0.0
 10
48.535229
 20
24.547989
 30
0.0
 10
47.595229
 20
24.147990
 30
0.0
 10
46.785229
 20
23.157990
 30
0.0
  0
SPLINE
  5
156
100
AcDbEntity
  8
0
 62
7
100
AcDbSpline
 70
8
 71
3
 72
8
 73
4
 74
0
 40
0
 40
0
 40
0
 40
0
 40
1
 40
1
 40
1
 40
1
 10
46.785229
 20
23.157990
 30
0.0
 10
46.585229
 20
22.917990
 30
0.0
 10
46.455229
 20
22.637990
 30
0.0
 10
46.325229
 20
22.367990
 30
0.0
  0
SPLINE
  5
157
100
AcDbEntity
  8
0
 62
7
100
AcDbSpline
 70
8
 71
3
 72
8
 73
4
 74
0
 40
0
 40
0
 40
0
 40
0
 40
1
 40
1
 40
1
 40
1
 10
46.325229
 20
22.367990
 30
0.0
 10
46.315229
 20
22.357990
 30
0.0
 10
46.315229
 20
22.337990
 30
0.0
 10
46.305229
 20
22.327990
 30
0.0
  0
SPLINE
  5
158
100
AcDbEntity
  8
0
 62
7
100
AcDbSpline
 70
8
 71
3
 72
8
 73
4
 74
0
 40
0
 40
0
 40
0
 40
0
 40
1
 40
1
 40
1
 40
1
 10
46.305229
 20
22.327990
 30
0.0
 10
45.365229
 20
23.317990
 30
0.0
 10
44.125229
 20
23.597990
 30
0.0
 10
42.845229
 20
23.117990
 30
0.0
  0
SPLINE
  5
159
100
AcDbEntity
  8
0
 62
7
100
AcDbSpline
 70
8
 71
3
 72
8
 73
4
 74
0
 40
0
 40
0
 40
0
 40
0
 40
1
 40
1
 40
1
 40
1
 10
42.845229
 20
23.117990
 30
0.0
 10
41.485229
 20
22.607990
 30
0.0
 10
40.735229
 20
21.457990
 30
0.0
 10
40.555229
 20
19.617990
 30
0.0
  0
SPLINE
  5
15a
100
AcDbEntity
  8
0
 62
7
100
AcDbSpline
 70
8
 71
3
 72
8
 73
4
 74
0
 40
0
 40
0
 40
0
 40
0
 40
1
 40
1
 40
1
 40
1
 10
40.555229
 20
19.617990
 30
0.0
 10
40.455229
 20
19.667990
 30
0.0
 10
40.365229
 20
19.707990
 30
0.0
 10
40.265229
 20
19.737990
 30
0.0
  0
SPLINE
  5
15b
100
AcDbEntity
  8
0
 62
7
100
AcDbSpline
 70
8
 71
3
 72
8
 73
4
 74
0
 40
0
 40
0
 40
0
 40
0
 40
1
 40
1
 40
1
 40
1
 10
40.265229
 20
19.737990
 30
0.0
 10
39.605229
 20
19.967990
 30
0.0
 10
39.125229
 20
19.967990
 30
0.0
 10
38.755229
 20
19.757990
 30
0.0
  0
SPLINE
  5
15c
100
AcDbEntity
  8
0
 62
7
100
AcDbSpline
 70
8
 71
3
 72
8
 73
4
 74
0
 40
0
 40
0
 40
0
 40
0
 40
1
 40
1
 40
1
 40
1
 10
38.755229
 20
19.757990
 30
0.0
 10
38.395229
 20
19.547990
 30
0.0
 10
38.175229
 20
19.147990
 30
0.0
 10
38.055229
 20
18.497990
 30
0.0
  0
SPLINE
  5
15d
100
AcDbEntity
  8
0
 62
7
100
AcDbSpline
 70
8
 71
3
 72
8
 73
4
 74
0
 40
0
 40
0
 40
0
 40
0
 40
1
 40
1
 40
1
 40
1
 10
38.055229
 20
18.497990
 30
0.0
 10
37.965229
 20
17.977990
 30
0.0
 10
37.705229
 20
17.917990
 30
0.0
 10
37.065229
 20
17.917990
 30
0.0
  0
SPLINE
  5
15e
100
AcDbEntity
  8
0
 62
7
100
AcDbSpline
 70
8
 71
3
 72
8
 73
4
 74
0
 40
0
 40
0
 40
0
 40
0
 40
1
 40
1
 40
1
 40
1
 10
37.065229
 20
17.917990
 30
0.0
 10
35.535229
 20
17.897990
 30
0.0
 10
34.275229
 20
17.387990
 30
0.0
 10
33.405229
 20
16.447990
 30
0.0
  0
SPLINE
  5
15f
100
AcDbEntity
  8
0
 62
7
100
AcDbSpline
 70
8
 71
3
 72
8
 73
4
 74
0
 40
0
 40
0
 40
0
 40
0
 40
1
 40
1
 40
1
 40
1
 10
33.405229
 20
16.447990
 30
0.0
 10
32.525229
 20
15.497990
 30
0.0
 10
32.125229
 20
14.167990
 30
0.0
 10
32.235229
 20
12.617990
 30
0.0
  0
SPLINE
  5
160
100
AcDbEntity
  8
0
 62
7
100
AcDbSpline
 70
8
 71
3
 72
8
 73
4
 74
0
 40
0
 40
0
 40
0
 40
0
 40
1
 40
1
 40
1
 40
1
 10
32.235229
 20
12.617990
 30
0.0
 10
32.275229
 20
12.097990
 30
0.0
 10
32.165229
 20
11.847990
 30
0.0
 10
31.765229
 20
11.557990
 30
0.0
  0
SPLINE
  5
161
100
AcDbEntity
  8
0
 62
7
100
AcDbSpline
 70
8
 71
3
 72
8
 73
4
 74
0
 40
0
 40
0
 40
0
 40
0
 40
1
 40
1
 40
1
 40
1
 10
31.765229
 20
11.557990
 30
0.0
 10
29.605229
 20
9.967990
 30
0.0
 10
28.855229
 20
7.957990
 30
0.0
 10
29.545229
 20
5.587990
 30
0.0
  0
SPLINE
  5
162
100
AcDbEntity
  8
0
 62
7
100
AcDbSpline
 70
8
 71
3
 72
8
 73
4
 74
0
 40
0
 40
0
 40
0
 40
0
 40
1
 40
1
 40
1
 40
1
 10
29.545229
 20
5.587990
 30
0.0
 10
29.775229
 20
4.807990
 30
0.0
 10
29.465229
 20
4.257990
 30
0.0
 10
28.935229
 20
3.667990
 30
0.0
  0
SPLINE
  5
163
100
AcDbEntity
  8
0
 62
7
100
AcDbSpline
 70
8
 71
3
 72
8
 73
4
 74
0
 40
0
 40
0
 40
0
 40
0
 40
1
 40
1
 40
1
 40
1
 10
28.935229
 20
3.667990
 30
0.0
 10
27.515229
 20
2.097990
 30
0.0
 10
27.205229
 20
0.237990
 30
0.0
 10
28.045229
 20
-1.712010
 30
0.0
  0
SPLINE
  5
164
100
AcDbEntity
  8
0
 62
7
100
AcDbSpline
 70
8
 71
3
 72
8
 73
4
 74
0
 40
0
 40
0
 40
0
 40
0
 40
1
 40
1
 40
1
 40
1
 10
28.045229
 20
-1.712010
 30
0.0
 10
28.255229
 20
-2.202010
 30
0.0
 10
28.225229
 20
-2.312010
 30
0.0
 10
27.765229
 20
-2.602010
 30
0.0
  0
SPLINE
  5
165
100
AcDbEntity
  8
0
 62
7
100
AcDbSpline
 70
8
 71
3
 72
8
 73
4
 74
0
 40
0
 40
0
 40
0
 40
0
 40
1
 40
1
 40
1
 40
1
 10
27.765229
 20
-2.602010
 30
0.0
 10
25.635229
 20
-3.932010
 30
0.0
 10
24.455229
 20
-6.772010
 30
0.0
 10
25.025229
 20
-9.202010
 30
0.0
  0
SPLINE
  5
166
100
AcDbEntity
  8
0
 62
7
100
AcDbSpline
 70
8
 71
3
 72
8
 73
4
 74
0
 40
0
 40
0
 40
0
 40
0
 40
1
 40
1
 40
1
 40
1
 10
25.025229
 20
-9.202010
 30
0.0
 10
25.135229
 20
-9.662010
 30
0.0
 10
25.095229
 20
-9.672010
 30
0.0
 10
24.665229
 20
-9.782010
 30
0.0
  0
SPLINE
  5
167
100
AcDbEntity
  8
0
 62
7
100
AcDbSpline
 70
8
 71
3
 72
8
 73
4
 74
0
 40
0
 40
0
 40
0
 40
0
 40
1
 40
1
 40
1
 40
1
 10
24.665229
 20
-9.782010
 30
0.0
 10
23.105230
 20
-10.192010
 30
0.0
 10
22.075230
 20
-11.292010
 30
0.0
 10
21.605230
 20
-13.072010
 30
0.0
  0
SPLINE
  5
168
100
AcDbEntity
  8
0
 62
7
100
AcDbSpline
 70
8
 71
3
 72
8
 73
4
 74
0
 40
0
 40
0
 40
0
 40
0
 40
1
 40
1
 40
1
 40
1
 10
21.605230
 20
-13.072010
 30
0.0
 10
21.195230
 20
-14.642010
 30
0.0
 10
21.565230
 20
-16.102010
 30
0.0
 10
21.935230
 20
-17.202010
 30
0.0
  0
SPLINE
  5
169
100
AcDbEntity
  8
0
 62
7
100
AcDbSpline
 70
8
 71
3
 72
8
 73
4
 74
0
 40
0
 40
0
 40
0
 40
0
 40
1
 40
1
 40
1
 40
1
 10
21.935230
 20
-17.202010
 30
0.0
 10
22.065230
 20
-17.602010
 30
0.0
 10
22.025230
 20
-17.752010
 30
0.0
 10
21.685230
 20
-18.052010
 30
0.0
  0
SPLINE
  5
16a
100
AcDbEntity
  8
0
 62
7
100
AcDbSpline
 70
8
 71
3
 72
8
 73
4
 74
0
 40
0
 40
0
 40
0
 40
0
 40
1
 40
1
 40
1
 40
1
 10
21.685230
 20
-18.052010
 30
0.0
 10
19.825230
 20
-19.712010
 30
0.0
 10
19.275230
 20
-22.222010
 30
0.0
 10
20.235230
 20
-24.612009
 30
0.0
  0
SPLINE
  5
16b
100
AcDbEntity
  8
0
 62
7
100
AcDbSpline
 70
8
 71
3
 72
8
 73
4
 74
0
 40
0
 40
0
 40
0
 40
0
 40
1
 40
1
 40
1
 40
1
 10
20.235230
 20
-24.612009
 30
0.0
 10
20.255230
 20
-24.672009
 30
0.0
 10
20.295230
 20
-24.732009
 30
0.0
 10
20.325230
 20
-24.782009
 30
0.0
  0
SPLINE
  5
16c
100
AcDbEntity
  8
0
 62
7
100
AcDbSpline
 70
8
 71
3
 72
8
 73
4
 74
0
 40
0
 40
0
 40
0
 40
0
 40
1
 40
1
 40
1
 40
1
 10
20.325230
 20
-24.782009
 30
0.0
 10
20.405230
 20
-24.912009
 30
0.0
 10
20.405230
 20
-24.922009
 30
0.0
 10
20.305230
 20
-25.062009
 30
0.0
  0
SPLINE
  5
16d
100
AcDbEntity
  8
0
 62
7
100
AcDbSpline
 70
8
 71
3
 72
8
 73
4
 74
0
 40
0
 40
0
 40
0
 40
0
 40
1
 40
1
 40
1
 40
1
 10
20.305230
 20
-25.062009
 30
0.0
 10
18.305230
 20
-27.542009
 30
0.0
 10
18.115230
 20
-30.652009
 30
0.0
 10
19.795230
 20
-33.382009
 30
0.0
  0
SPLINE
  5
16e
100
AcDbEntity
  8
0
 62
7
100
AcDbSpline
 70
8
 71
3
 72
8
 73
4
 74
0
 40
0
 40
0
 40
0
 40
0
 40
1
 40
1
 40
1
 40
1
 10
19.795230
 20
-33.382009
 30
0.0
 10
19.825230
 20
-33.432009
 30
0.0
 10
19.855230
 20
-33.482009
 30
0.0
 10
19.895230
 20
-33.532009
 30
0.0
  0
SPLINE
  5
16f
100
AcDbEntity
  8
0
 62
7
100
AcDbSpline
 70
8
 71
3
 72
8
 73
4
 74
0
 40
0
 40
0
 40
0
 40
0
 40
1
 40
1
 40
1
 40
1
 10
19.895230
 20
-33.532009
 30
0.0
 10
20.045230
 20
-33.752009
 30
0.0
 10
20.095230
 20
-33.812009
 30
0.0
 10
19.905230
 20
-34.062009
 30
0.0
  0
SPLINE
  5
170
100
AcDbEntity
  8
0
 62
7
100
AcDbSpline
 70
8
 71
3
 72
8
 73
4
 74
0
 40
0
 40
0
 40
0
 40
0
 40
1
 40
1
 40
1
 40
1
 10
19.905230
 20
-34.062009
 30
0.0
 10
18.305230
 20
-36.132009
 30
0.0
 10
18.125230
 20
-38.352009
 30
0.0
 10
19.355230
 20
-40.662009
 30
0.0
  0
SPLINE
  5
171
100
AcDbEntity
  8
0
 62
7
100
AcDbSpline
 70
8
 71
3
 72
8
 73
4
 74
0
 40
0
 40
0
 40
0
 40
0
 40
1
 40
1
 40
1
 40
1
 10
19.355230
 20
-40.662009
 30
0.0
 10
19.675230
 20
-41.252009
 30
0.0
 10
19.655230
 20
-41.762009
 30
0.0
 10
19.285230
 20
-42.362009
 30
0.0
  0
SPLINE
  5
172
100
AcDbEntity
  8
0
 62
7
100
AcDbSpline
 70
8
 71
3
 72
8
 73
4
 74
0
 40
0
 40
0
 40
0
 40
0
 40
1
 40
1
 40
1
 40
1
 10
19.285230
 20
-42.362009
 30
0.0
 10
17.925230
 20
-44.592009
 30
0.0
 10
18.325230
 20
-46.722009
 30
0.0
 10
20.415230
 20
-48.362009
 30
0.0
  0
SPLINE
  5
173
100
AcDbEntity
  8
0
 62
7
100
AcDbSpline
 70
8
 71
3
 72
8
 73
4
 74
0
 40
0
 40
0
 40
0
 40
0
 40
1
 40
1
 40
1
 40
1
 10
20.415230
 20
-48.362009
 30
0.0
 10
20.465230
 20
-48.402009
 30
0.0
 10
20.525230
 20
-48.432009
 30
0.0
 10
20.585230
 20
-48.452009
 30
0.0
  0
SPLINE
  5
174
100
AcDbEntity
  8
0
 62
7
100
AcDbSpline
 70
8
 71
3
 72
8
 73
4
 74
0
 40
0
 40
0
 40
0
 40
0
 40
1
 40
1
 40
1
 40
1
 10
20.585230
 20
-48.452009
 30
0.0
 10
20.595230
 20
-48.452009
 30
0.0
 10
20.605230
 20
-48.462009
 30
0.0
 10
20.605230
 20
-48.462009
 30
0.0
  0
SPLINE
  5
175
100
AcDbEntity
  8
0
 62
7
100
AcDbSpline
 70
8
 71
3
 72
8
 73
4
 74
0
 40
0
 40
0
 40
0
 40
0
 40
1
 40
1
 40
1
 40
1
 10
20.605230
 20
-48.462009
 30
0.0
 10
20.595230
 20
-48.472009
 30
0.0
 10
20.585230
 20
-48.492009
 30
0.0
 10
20.575230
 20
-48.522009
 30
0.0
  0
SPLINE
  5
176
100
AcDbEntity
  8
0
 62
7
100
AcDbSpline
 70
8
 71
3
 72
8
 73
4
 74
0
 40
0
 40
0
 40
0
 40
0
 40
1
 40
1
 40
1
 40
1
 10
20.575230
 20
-48.522009
 30
0.0
 10
20.165230
 20
-49.152009
 30
0.0
 10
20.145230
 20
-49.852009
 30
0.0
 10
20.125230
 20
-50.522009
 30
0.0
  0
SPLINE
  5
177
100
AcDbEntity
  8
0
 62
7
100
AcDbSpline
 70
8
 71
3
 72
8
 73
4
 74
0
 40
0
 40
0
 40
0
 40
0
 40
1
 40
1
 40
1
 40
1
 10
20.125230
 20
-50.522009
 30
0.0
 10
20.125230
 20
-50.702009
 30
0.0
 10
20.115230
 20
-50.882009
 30
0.0
 10
20.105230
 20
-51.062009
 30
0.0
  0
SPLINE
  5
178
100
AcDbEntity
  8
0
 62
7
100
AcDbSpline
 70
8
 71
3
 72
8
 73
4
 74
0
 40
0
 40
0
 40
0
 40
0
 40
1
 40
1
 40
1
 40
1
 10
20.105230
 20
-51.062009
 30
0.0
 10
19.955230
 20
-53.262009
 30
0.0
 10
20.345230
 20
-55.422009
 30
0.0
 10
20.715230
 20
-57.502009
 30
0.0
  0
SPLINE
  5
179
100
AcDbEntity
  8
0
 62
7
100
AcDbSpline
 70
8
 71
3
 72
8
 73
4
 74
0
 40
0
 40
0
 40
0
 40
0
 40
1
 40
1
 40
1
 40
1
 10
20.715230
 20
-57.502009
 30
0.0
 10
20.805230
 20
-57.992009
 30
0.0
 10
20.895230
 20
-58.482009
 30
0.0
 10
20.975230
 20
-58.972009
 30
0.0
  0
SPLINE
  5
17a
100
AcDbEntity
  8
0
 62
7
100
AcDbSpline
 70
8
 71
3
 72
8
 73
4
 74
0
 40
0
 40
0
 40
0
 40
0
 40
1
 40
1
 40
1
 40
1
 10
20.975230
 20
-58.972009
 30
0.0
 10
21.635230
 20
-62.952009
 30
0.0
 10
22.815230
 20
-66.272009
 30
0.0
 10
24.575229
 20
-69.112009
 30
0.0
  0
SPLINE
  5
17b
100
AcDbEntity
  8
0
 62
7
100
AcDbSpline
 70
8
 71
3
 72
8
 73
4
 74
0
 40
0
 40
0
 40
0
 40
0
 40
1
 40
1
 40
1
 40
1
 10
24.575229
 20
-69.112009
 30
0.0
 10
24.625229
 20
-69.192009
 30
0.0
 10
24.665229
 20
-69.272009
 30
0.0
 10
24.715229
 20
-69.362009
 30
0.0
  0
SPLINE
  5
17c
100
AcDbEntity
  8
0
 62
7
100
AcDbSpline
 70
8
 71
3
 72
8
 73
4
 74
0
 40
0
 40
0
 40
0
 40
0
 40
1
 40
1
 40
1
 40
1
 10
24.715229
 20
-69.362009
 30
0.0
 10
24.905229
 20
-69.722009
 30
0.0
 10
25.145229
 20
-70.182009
 30
0.0
 10
25.735229
 20
-70.302009
 30
0.0
  0
LWPOLYLINE
  5
17d
100
AcDbEntity
  8
0
 62
1
100
AcDbPolyline
 90
1
 70
1
 10
11.914956
 20
47.366224
 30
0.0
  0
SPLINE
  5
17e
100
AcDbEntity
  8
0
 62
7
100
AcDbSpline
 70
8
 71
3
 72
8
 73
4
 74
0
 40
0
 40
0
 40
0
 40
0
 40
1
 40
1
 40
1
 40
1
 10
26.025229
 20
-70.132009
 30
0.0
 10
26.115229
 20
-69.832009
 30
0.0
 10
26.115229
 20
-69.542009
 30
0.0
 10
26.115229
 20
-69.262009
 30
0.0
  0
SPLINE
  5
17f
100
AcDbEntity
  8
0
 62
7
100
AcDbSpline
 70
8
 71
3
 72
8
 73
4
 74
0
 40
0
 40
0
 40
0
 40
0
 40
1
 40
1
 40
1
 40
1
 10
26.115229
 20
-69.262009
 30
0.0
 10
26.115229
 20
-68.962009
 30
0.0
 10
26.115229
 20
-68.702009
 30
0.0
 10
26.225229
 20
-68.472009
 30
0.0
  0
LWPOLYLINE
  5
180
100
AcDbEntity
  8
0
 62
7
100
AcDbPolyline
 90
3
 70
0
 10
25.735229
 20
-70.302009
 30
0.0
 10
25.965229
 20
-70.352009
 30
0.0
 10
26.025229
 20
-70.132009
 30
0.0
  0
SPLINE
  5
181
100
AcDbEntity
  8
0
 62
7
100
AcDbSpline
 70
8
 71
3
 72
8
 73
4
 74
0
 40
0
 40
0
 40
0
 40
0
 40
1
 40
1
 40
1
 40
1
 10
26.245229
 20
-68.382009
 30
0.0
 10
26.255229
 20
-68.152009
 30
0.0
 10
26.265229
 20
-67.922009
 30
0.0
 10
26.265229
 20
-67.692009
 30
0.0
  0
SPLINE
  5
182
100
AcDbEntity
  8
0
 62
7
100
AcDbSpline
 70
8
 71
3
 72
8
 73
4
 74
0
 40
0
 40
0
 40
0
 40
0
 40
1
 40
1
 40
1
 40
1
 10
26.265229
 20
-67.692009
 30
0.0
 10
26.265229
 20
-67.292009
 30
0.0
 10
26.275229
 20
-66.902009
 30
0.0
 10
26.335229
 20
-66.512009
 30
0.0
  0
SPLINE
  5
183
100
AcDbEntity
  8
0
 62
7
100
AcDbSpline
 70
8
 71
3
 72
8
 73
4
 74
0
 40
0
 40
0
 40
0
 40
0
 40
1
 40
1
 40
1
 40
1
 10
26.335229
 20
-66.512009
 30
0.0
 10
27.425229
 20
-70.942009
 30
0.0
 10
29.535229
 20
-74.772008
 30
0.0
 10
32.765229
 20
-78.192008
 30
0.0
  0
LWPOLYLINE
  5
184
100
AcDbEntity
  8
0
 62
7
100
AcDbPolyline
 90
2
 70
0
 10
26.225229
 20
-68.472009
 30
0.0
 10
26.245229
 20
-68.382009
 30
0.0
  0
SPLINE
  5
185
100
AcDbEntity
  8
0
 62
7
100
AcDbSpline
 70
8
 71
3
 72
8
 73
4
 74
0
 40
0
 40
0
 40
0
 40
0
 40
1
 40
1
 40
1
 40
1
 10
33.155229
 20
-78.152008
 30
0.0
 10
33.495229
 20
-77.602008
 30
0.0
 10
33.405229
 20
-77.032008
 30
0.0
 10
33.335229
 20
-76.532008
 30
0.0
  0
SPLINE
  5
186
100
AcDbEntity
  8
0
 62
7
100
AcDbSpline
 70
8
 71
3
 72
8
 73
4
 74
0
 40
0
 40
0
 40
0
 40
0
 40
1
 40
1
 40
1
 40
1
 10
33.335229
 20
-76.532008
 30
0.0
 10
33.315229
 20
-76.392008
 30
0.0
 10
33.295229
 20
-76.252008
 30
0.0
 10
33.285229
 20
-76.112008
 30
0.0
  0
SPLINE
  5
187
100
AcDbEntity
  8
0
 62
7
100
AcDbSpline
 70
8
 71
3
 72
8
 73
4
 74
0
 40
0
 40
0
 40
0
 40
0
 40
1
 40
1
 40
1
 40
1
 10
33.285229
 20
-76.112008
 30
0.0
 10
33.255229
 20
-75.742008
 30
0.0
 10
33.215229
 20
-75.362008
 30
0.0
 10
33.175229
 20
-74.992008
 30
0.0
  0
SPLINE
  5
188
100
AcDbEntity
  8
0
 62
7
100
AcDbSpline
 70
8
 71
3
 72
8
 73
4
 74
0
 40
0
 40
0
 40
0
 40
0
 40
1
 40
1
 40
1
 40
1
 10
33.175229
 20
-74.992008
 30
0.0
 10
33.065229
 20
-73.922008
 30
0.0
 10
32.955229
 20
-72.812008
 30
0.0
 10
32.995229
 20
-71.672009
 30
0.0
  0
SPLINE
  5
189
100
AcDbEntity
  8
0
 62
7
100
AcDbSpline
 70
8
 71
3
 72
8
 73
4
 74
0
 40
0
 40
0
 40
0
 40
0
 40
1
 40
1
 40
1
 40
1
 10
32.995229
 20
-71.672009
 30
0.0
 10
32.945229
 20
-71.342009
 30
0.0
 10
32.945229
 20
-71.022009
 30
0.0
 10
32.935229
 20
-70.672009
 30
0.0
  0
SPLINE
  5
18a
100
AcDbEntity
  8
0
 62
7
100
AcDbSpline
 70
8
 71
3
 72
8
 73
4
 74
0
 40
0
 40
0
 40
0
 40
0
 40
1
 40
1
 40
1
 40
1
 10
32.935229
 20
-70.672009
 30
0.0
 10
32.925229
 20
-70.152009
 30
0.0
 10
32.925229
 20
-69.612009
 30
0.0
 10
32.755229
 20
-69.082009
 30
0.0
  0
SPLINE
  5
18b
100
AcDbEntity
  8
0
 62
7
100
AcDbSpline
 70
8
 71
3
 72
8
 73
4
 74
0
 40
0
 40
0
 40
0
 40
0
 40
1
 40
1
 40
1
 40
1
 10
32.755229
 20
-69.082009
 30
0.0
 10
32.675229
 20
-68.832009
 30
0.0
 10
32.755229
 20
-68.802009
 30
0.0
 10
32.815229
 20
-68.782009
 30
0.0
  0
LWPOLYLINE
  5
18c
100
AcDbEntity
  8
0
 62
7
100
AcDbPolyline
 90
3
 70
0
 10
32.765229
 20
-78.192008
 30
0.0
 10
32.985229
 20
-78.432008
 30
0.0
 10
33.155229
 20
-78.152008
 30
0.0
  0
SPLINE
  5
18d
100
AcDbEntity
  8
0
 62
7
100
AcDbSpline
 70
8
 71
3
 72
8
 73
4
 74
0
 40
0
 40
0
 40
0
 40
0
 40
1
 40
1
 40
1
 40
1
 10
32.965229
 20
-68.482009
 30
0.0
 10
32.835229
 20
-68.012009
 30
0.0
 10
32.765229
 20
-67.512009
 30
0.0
 10
32.695229
 20
-67.022009
 30
0.0
  0
SPLINE
  5
18e
100
AcDbEntity
  8
0
 62
7
100
AcDbSpline
 70
8
 71
3
 72
8
 73
4
 74
0
 40
0
 40
0
 40
0
 40
0
 40
1
 40
1
 40
1
 40
1
 10
32.695229
 20
-67.022009
 30
0.0
 10
32.575229
 20
-66.192009
 30
0.0
 10
32.445229
 20
-65.332009
 30
0.0
 10
32.055229
 20
-64.532009
 30
0.0
  0
LWPOLYLINE
  5
18f
100
AcDbEntity
  8
0
 62
7
100
AcDbPolyline
 90
3
 70
0
 10
32.815229
 20
-68.782009
 30
0.0
 10
33.025229
 20
-68.702009
 30
0.0
 10
32.965229
 20
-68.482009
 30
0.0
  0
SPLINE
  5
190
100
AcDbEntity
  8
0
 62
7
100
AcDbSpline
 70
8
 71
3
 72
8
 73
4
 74
0
 40
0
 40
0
 40
0
 40
0
 40
1
 40
1
 40
1
 40
1
 10
31.895229
 20
-64.402009
 30
0.0
 10
31.445229
 20
-64.292009
 30
0.0
 10
31.065229
 20
-64.442009
 30
0.0
 10
30.735229
 20
-64.582009
 30
0.0
  0
SPLINE
  5
191
100
AcDbEntity
  8
0
 62
7
100
AcDbSpline
 70
8
 71
3
 72
8
 73
4
 74
0
 40
0
 40
0
 40
0
 40
0
 40
1
 40
1
 40
1
 40
1
 10
30.735229
 20
-64.582009
 30
0.0
 10
30.595229
 20
-64.642009
 30
0.0
 10
30.445229
 20
-64.702009
 30
0.0
 10
30.295229
 20
-64.742009
 30
0.0
  0
SPLINE
  5
192
100
AcDbEntity
  8
0
 62
7
100
AcDbSpline
 70
8
 71
3
 72
8
 73
4
 74
0
 40
0
 40
0
 40
0
 40
0
 40
1
 40
1
 40
1
 40
1
 10
30.295229
 20
-64.742009
 30
0.0
 10
30.255229
 20
-64.752009
 30
0.0
 10
30.215229
 20
-64.762009
 30
0.0
 10
30.185229
 20
-64.772009
 30
0.0
  0
SPLINE
  5
193
100
AcDbEntity
  8
0
 62
7
100
AcDbSpline
 70
8
 71
3
 72
8
 73
4
 74
0
 40
0
 40
0
 40
0
 40
0
 40
1
 40
1
 40
1
 40
1
 10
30.185229
 20
-64.772009
 30
0.0
 10
30.145229
 20
-64.782009
 30
0.0
 10
30.065229
 20
-64.812009
 30
0.0
 10
30.045229
 20
-64.832009
 30
0.0
  0
SPLINE
  5
194
100
AcDbEntity
  8
0
 62
7
100
AcDbSpline
 70
8
 71
3
 72
8
 73
4
 74
0
 40
0
 40
0
 40
0
 40
0
 40
1
 40
1
 40
1
 40
1
 10
30.045229
 20
-64.832009
 30
0.0
 10
30.055229
 20
-64.822009
 30
0.0
 10
30.095229
 20
-64.792009
 30
0.0
 10
30.115229
 20
-64.772009
 30
0.0
  0
SPLINE
  5
195
100
AcDbEntity
  8
0
 62
7
100
AcDbSpline
 70
8
 71
3
 72
8
 73
4
 74
0
 40
0
 40
0
 40
0
 40
0
 40
1
 40
1
 40
1
 40
1
 10
30.115229
 20
-64.772009
 30
0.0
 10
30.165229
 20
-64.732009
 30
0.0
 10
30.205229
 20
-64.702009
 30
0.0
 10
30.245229
 20
-64.662009
 30
0.0
  0
SPLINE
  5
196
100
AcDbEntity
  8
0
 62
7
100
AcDbSpline
 70
8
 71
3
 72
8
 73
4
 74
0
 40
0
 40
0
 40
0
 40
0
 40
1
 40
1
 40
1
 40
1
 10
30.245229
 20
-64.662009
 30
0.0
 10
30.365229
 20
-64.532009
 30
0.0
 10
30.495229
 20
-64.402009
 30
0.0
 10
30.625229
 20
-64.272009
 30
0.0
  0
SPLINE
  5
197
100
AcDbEntity
  8
0
 62
7
100
AcDbSpline
 70
8
 71
3
 72
8
 73
4
 74
0
 40
0
 40
0
 40
0
 40
0
 40
1
 40
1
 40
1
 40
1
 10
30.625229
 20
-64.272009
 30
0.0
 10
30.985229
 20
-63.912009
 30
0.0
 10
31.355229
 20
-63.532009
 30
0.0
 10
31.635229
 20
-63.062009
 30
0.0
  0
LWPOLYLINE
  5
198
100
AcDbEntity
  8
0
 62
7
100
AcDbPolyline
 90
3
 70
0
 10
32.055229
 20
-64.532009
 30
0.0
 10
32.005229
 20
-64.432009
 30
0.0
 10
31.895229
 20
-64.402009
 30
0.0
  0
SPLINE
  5
199
100
AcDbEntity
  8
0
 62
7
100
AcDbSpline
 70
8
 71
3
 72
8
 73
4
 74
0
 40
0
 40
0
 40
0
 40
0
 40
1
 40
1
 40
1
 40
1
 10
31.665229
 20
-62.982009
 30
0.0
 10
31.865229
 20
-62.022009
 30
0.0
 10
32.015229
 20
-60.592009
 30
0.0
 10
31.005229
 20
-59.352009
 30
0.0
  0
LWPOLYLINE
  5
19a
100
AcDbEntity
  8
0
 62
7
100
AcDbPolyline
 90
2
 70
0
 10
31.635229
 20
-63.062009
 30
0.0
 10
31.665229
 20
-62.982009
 30
0.0
  0
SPLINE
  5
19b
100
AcDbEntity
  8
0
 62
7
100
AcDbSpline
 70
8
 71
3
 72
8
 73
4
 74
0
 40
0
 40
0
 40
0
 40
0
 40
1
 40
1
 40
1
 40
1
 10
30.775229
 20
-59.262009
 30
0.0
 10
30.305229
 20
-59.332009
 30
0.0
 10
29.885229
 20
-59.522009
 30
0.0
 10
29.465229
 20
-59.702009
 30
0.0
  0
SPLINE
  5
19c
100
AcDbEntity
  8
0
 62
7
100
AcDbSpline
 70
8
 71
3
 72
8
 73
4
 74
0
 40
0
 40
0
 40
0
 40
0
 40
1
 40
1
 40
1
 40
1
 10
29.465229
 20
-59.702009
 30
0.0
 10
29.025229
 20
-59.902009
 30
0.0
 10
28.585229
 20
-60.102009
 30
0.0
 10
28.075229
 20
-60.162009
 30
0.0
  0
SPLINE
  5
19d
100
AcDbEntity
  8
0
 62
7
100
AcDbSpline
 70
8
 71
3
 72
8
 73
4
 74
0
 40
0
 40
0
 40
0
 40
0
 40
1
 40
1
 40
1
 40
1
 10
28.075229
 20
-60.162009
 30
0.0
 10
29.065229
 20
-59.392009
 30
0.0
 10
29.975229
 20
-58.802009
 30
0.0
 10
30.755229
 20
-58.322009
 30
0.0
  0
LWPOLYLINE
  5
19e
100
AcDbEntity
  8
0
 62
7
100
AcDbPolyline
 90
3
 70
0
 10
31.005229
 20
-59.352009
 30
0.0
 10
30.915229
 20
-59.242009
 30
0.0
 10
30.775229
 20
-59.262009
 30
0.0
  0
SPLINE
  5
19f
100
AcDbEntity
  8
0
 62
7
100
AcDbSpline
 70
8
 71
3
 72
8
 73
4
 74
0
 40
0
 40
0
 40
0
 40
0
 40
1
 40
1
 40
1
 40
1
 10
30.855229
 20
-58.192009
 30
0.0
 10
31.025229
 20
-57.702009
 30
0.0
 10
31.015229
 20
-57.202009
 30
0.0
 10
31.005229
 20
-56.732009
 30
0.0
  0
SPLINE
  5
1a0
100
AcDbEntity
  8
0
 62
7
100
AcDbSpline
 70
8
 71
3
 72
8
 73
4
 74
0
 40
0
 40
0
 40
0
 40
0
 40
1
 40
1
 40
1
 40
1
 10
31.005229
 20
-56.732009
 30
0.0
 10
30.995229
 20
-56.352009
 30
0.0
 10
30.985229
 20
-55.992009
 30
0.0
 10
31.065229
 20
-55.652009
 30
0.0
  0
LWPOLYLINE
  5
1a1
100
AcDbEntity
  8
0
 62
7
100
AcDbPolyline
 90
3
 70
0
 10
30.755229
 20
-58.322009
 30
0.0
 10
30.825229
 20
-58.272009
 30
0.0
 10
30.855229
 20
-58.192009
 30
0.0
  0
SPLINE
  5
1a2
100
AcDbEntity
  8
0
 62
7
100
AcDbSpline
 70
8
 71
3
 72
8
 73
4
 74
0
 40
0
 40
0
 40
0
 40
0
 40
1
 40
1
 40
1
 40
1
 10
30.585229
 20
-54.972009
 30
0.0
 10
29.205229
 20
-55.202009
 30
0.0
 10
27.845229
 20
-55.582009
 30
0.0
 10
26.535229
 20
-55.942009
 30
0.0
  0
SPLINE
  5
1a3
100
AcDbEntity
  8
0
 62
7
100
AcDbSpline
 70
8
 71
3
 72
8
 73
4
 74
0
 40
0
 40
0
 40
0
 40
0
 40
1
 40
1
 40
1
 40
1
 10
26.535229
 20
-55.942009
 30
0.0
 10
26.035229
 20
-56.082009
 30
0.0
 10
25.545229
 20
-56.212009
 30
0.0
 10
25.045229
 20
-56.342009
 30
0.0
  0
LWPOLYLINE
  5
1a4
100
AcDbEntity
  8
0
 62
7
100
AcDbPolyline
 90
4
 70
0
 10
31.065229
 20
-55.652009
 30
0.0
 10
31.085229
 20
-55.562009
 30
0.0
 10
30.765229
 20
-54.942009
 30
0.0
 10
30.585229
 20
-54.972009
 30
0.0
  0
SPLINE
  5
1a5
100
AcDbEntity
  8
0
 62
7
100
AcDbSpline
 70
8
 71
3
 72
8
 73
4
 74
0
 40
0
 40
0
 40
0
 40
0
 40
1
 40
1
 40
1
 40
1
 10
24.815229
 20
-56.402009
 30
0.0
 10
24.575229
 20
-56.472009
 30
0.0
 10
24.345229
 20
-56.532009
 30
0.0
 10
24.085230
 20
-56.552009
 30
0.0
  0
SPLINE
  5
1a6
100
AcDbEntity
  8
0
 62
7
100
AcDbSpline
 70
8
 71
3
 72
8
 73
4
 74
0
 40
0
 40
0
 40
0
 40
0
 40
1
 40
1
 40
1
 40
1
 10
24.085230
 20
-56.552009
 30
0.0
 10
25.195229
 20
-55.722009
 30
0.0
 10
26.345229
 20
-54.982009
 30
0.0
 10
27.455229
 20
-54.272009
 30
0.0
  0
SPLINE
  5
1a7
100
AcDbEntity
  8
0
 62
7
100
AcDbSpline
 70
8
 71
3
 72
8
 73
4
 74
0
 40
0
 40
0
 40
0
 40
0
 40
1
 40
1
 40
1
 40
1
 10
27.455229
 20
-54.272009
 30
0.0
 10
28.555229
 20
-53.572009
 30
0.0
 10
29.695229
 20
-52.842009
 30
0.0
 10
30.745229
 20
-52.042009
 30
0.0
  0
LWPOLYLINE
  5
1a8
100
AcDbEntity
  8
0
 62
7
100
AcDbPolyline
 90
2
 70
0
 10
25.045229
 20
-56.342009
 30
0.0
 10
24.815229
 20
-56.402009
 30
0.0
  0
SPLINE
  5
1a9
100
AcDbEntity
  8
0
 62
7
100
AcDbSpline
 70
8
 71
3
 72
8
 73
4
 74
0
 40
0
 40
0
 40
0
 40
0
 40
1
 40
1
 40
1
 40
1
 10
30.835229
 20
-51.912009
 30
0.0
 10
31.015229
 20
-51.202009
 30
0.0
 10
31.095229
 20
-50.442009
 30
0.0
 10
31.085229
 20
-49.522009
 30
0.0
  0
LWPOLYLINE
  5
1aa
100
AcDbEntity
  8
0
 62
7
100
AcDbPolyline
 90
3
 70
0
 10
30.745229
 20
-52.042009
 30
0.0
 10
30.815229
 20
-51.992009
 30
0.0
 10
30.835229
 20
-51.912009
 30
0.0
  0
SPLINE
  5
1ab
100
AcDbEntity
  8
0
 62
7
100
AcDbSpline
 70
8
 71
3
 72
8
 73
4
 74
0
 40
0
 40
0
 40
0
 40
0
 40
1
 40
1
 40
1
 40
1
 10
30.885229
 20
-49.272009
 30
0.0
 10
29.875229
 20
-49.072009
 30
0.0
 10
28.895229
 20
-49.242009
 30
0.0
 10
27.945229
 20
-49.402009
 30
0.0
  0
SPLINE
  5
1ac
100
AcDbEntity
  8
0
 62
7
100
AcDbSpline
 70
8
 71
3
 72
8
 73
4
 74
0
 40
0
 40
0
 40
0
 40
0
 40
1
 40
1
 40
1
 40
1
 10
27.945229
 20
-49.402009
 30
0.0
 10
27.415229
 20
-49.492009
 30
0.0
 10
26.875229
 20
-49.582009
 30
0.0
 10
26.345229
 20
-49.612009
 30
0.0
  0
SPLINE
  5
1ad
100
AcDbEntity
  8
0
 62
7
100
AcDbSpline
 70
8
 71
3
 72
8
 73
4
 74
0
 40
0
 40
0
 40
0
 40
0
 40
1
 40
1
 40
1
 40
1
 10
26.345229
 20
-49.612009
 30
0.0
 10
26.195229
 20
-49.622009
 30
0.0
 10
26.045229
 20
-49.642009
 30
0.0
 10
25.885229
 20
-49.652009
 30
0.0
  0
SPLINE
  5
1ae
100
AcDbEntity
  8
0
 62
7
100
AcDbSpline
 70
8
 71
3
 72
8
 73
4
 74
0
 40
0
 40
0
 40
0
 40
0
 40
1
 40
1
 40
1
 40
1
 10
25.885229
 20
-49.652009
 30
0.0
 10
25.795229
 20
-49.662009
 30
0.0
 10
25.715229
 20
-49.672009
 30
0.0
 10
25.625229
 20
-49.682009
 30
0.0
  0
LWPOLYLINE
  5
1af
100
AcDbEntity
  8
0
 62
7
100
AcDbPolyline
 90
3
 70
0
 10
31.085229
 20
-49.522009
 30
0.0
 10
31.085229
 20
-49.312009
 30
0.0
 10
30.885229
 20
-49.272009
 30
0.0
  0
SPLINE
  5
1b0
100
AcDbEntity
  8
0
 62
7
100
AcDbSpline
 70
8
 71
3
 72
8
 73
4
 74
0
 40
0
 40
0
 40
0
 40
0
 40
1
 40
1
 40
1
 40
1
 10
30.865229
 20
-44.692009
 30
0.0
 10
29.345229
 20
-44.542009
 30
0.0
 10
27.905229
 20
-44.102009
 30
0.0
 10
26.375229
 20
-43.652009
 30
0.0
  0
SPLINE
  5
1b1
100
AcDbEntity
  8
0
 62
7
100
AcDbSpline
 70
8
 71
3
 72
8
 73
4
 74
0
 40
0
 40
0
 40
0
 40
0
 40
1
 40
1
 40
1
 40
1
 10
26.375229
 20
-43.652009
 30
0.0
 10
25.485229
 20
-43.382009
 30
0.0
 10
24.565229
 20
-43.112009
 30
0.0
 10
23.615230
 20
-42.892009
 30
0.0
  0
SPLINE
  5
1b2
100
AcDbEntity
  8
0
 62
7
100
AcDbSpline
 70
8
 71
3
 72
8
 73
4
 74
0
 40
0
 40
0
 40
0
 40
0
 40
1
 40
1
 40
1
 40
1
 10
23.615230
 20
-42.892009
 30
0.0
 10
25.005229
 20
-42.512009
 30
0.0
 10
26.395229
 20
-42.262009
 30
0.0
 10
27.745229
 20
-42.022009
 30
0.0
  0
SPLINE
  5
1b3
100
AcDbEntity
  8
0
 62
7
100
AcDbSpline
 70
8
 71
3
 72
8
 73
4
 74
0
 40
0
 40
0
 40
0
 40
0
 40
1
 40
1
 40
1
 40
1
 10
27.745229
 20
-42.022009
 30
0.0
 10
28.775229
 20
-41.842009
 30
0.0
 10
29.845229
 20
-41.642009
 30
0.0
 10
30.885229
 20
-41.402009
 30
0.0
  0
LWPOLYLINE
  5
1b4
100
AcDbEntity
  8
0
 62
7
100
AcDbPolyline
 90
4
 70
0
 10
25.625229
 20
-49.682009
 30
0.0
 10
31.055229
 20
-47.602009
 30
0.0
 10
31.095229
 20
-44.712009
 30
0.0
 10
30.865229
 20
-44.692009
 30
0.0
  0
SPLINE
  5
1b5
100
AcDbEntity
  8
0
 62
7
100
AcDbSpline
 70
8
 71
3
 72
8
 73
4
 74
0
 40
0
 40
0
 40
0
 40
0
 40
1
 40
1
 40
1
 40
1
 10
31.075229
 20
-41.142009
 30
0.0
 10
31.065229
 20
-40.882009
 30
0.0
 10
31.075229
 20
-40.622009
 30
0.0
 10
31.085229
 20
-40.362009
 30
0.0
  0
SPLINE
  5
1b6
100
AcDbEntity
  8
0
 62
7
100
AcDbSpline
 70
8
 71
3
 72
8
 73
4
 74
0
 40
0
 40
0
 40
0
 40
0
 40
1
 40
1
 40
1
 40
1
 10
31.085229
 20
-40.362009
 30
0.0
 10
31.115229
 20
-39.812009
 30
0.0
 10
31.145229
 20
-39.242009
 30
0.0
 10
30.935229
 20
-38.672009
 30
0.0
  0
LWPOLYLINE
  5
1b7
100
AcDbEntity
  8
0
 62
7
100
AcDbPolyline
 90
3
 70
0
 10
30.885229
 20
-41.402009
 30
0.0
 10
31.085229
 20
-41.352009
 30
0.0
 10
31.075229
 20
-41.142009
 30
0.0
  0
SPLINE
  5
1b8
100
AcDbEntity
  8
0
 62
7
100
AcDbSpline
 70
8
 71
3
 72
8
 73
4
 74
0
 40
0
 40
0
 40
0
 40
0
 40
1
 40
1
 40
1
 40
1
 10
30.825229
 20
-38.542009
 30
0.0
 10
29.955229
 20
-38.032009
 30
0.0
 10
28.995229
 20
-37.752009
 30
0.0
 10
28.075229
 20
-37.482009
 30
0.0
  0
SPLINE
  5
1b9
100
AcDbEntity
  8
0
 62
7
100
AcDbSpline
 70
8
 71
3
 72
8
 73
4
 74
0
 40
0
 40
0
 40
0
 40
0
 40
1
 40
1
 40
1
 40
1
 10
28.075229
 20
-37.482009
 30
0.0
 10
27.595229
 20
-37.342009
 30
0.0
 10
27.095229
 20
-37.192009
 30
0.0
 10
26.625229
 20
-37.022009
 30
0.0
  0
SPLINE
  5
1ba
100
AcDbEntity
  8
0
 62
7
100
AcDbSpline
 70
8
 71
3
 72
8
 73
4
 74
0
 40
0
 40
0
 40
0
 40
0
 40
1
 40
1
 40
1
 40
1
 10
26.625229
 20
-37.022009
 30
0.0
 10
25.585229
 20
-36.632009
 30
0.0
 10
24.535229
 20
-36.272009
 30
0.0
 10
23.425230
 20
-35.892009
 30
0.0
  0
SPLINE
  5
1bb
100
AcDbEntity
  8
0
 62
7
100
AcDbSpline
 70
8
 71
3
 72
8
 73
4
 74
0
 40
0
 40
0
 40
0
 40
0
 40
1
 40
1
 40
1
 40
1
 10
23.425230
 20
-35.892009
 30
0.0
 10
23.365230
 20
-35.872009
 30
0.0
 10
23.315230
 20
-35.852009
 30
0.0
 10
23.255230
 20
-35.832009
 30
0.0
  0
LWPOLYLINE
  5
1bc
100
AcDbEntity
  8
0
 62
7
100
AcDbPolyline
 90
3
 70
0
 10
30.935229
 20
-38.672009
 30
0.0
 10
30.905229
 20
-38.592009
 30
0.0
 10
30.825229
 20
-38.542009
 30
0.0
  0
SPLINE
  5
1bd
100
AcDbEntity
  8
0
 62
7
100
AcDbSpline
 70
8
 71
3
 72
8
 73
4
 74
0
 40
0
 40
0
 40
0
 40
0
 40
1
 40
1
 40
1
 40
1
 10
23.875230
 20
-35.832009
 30
0.0
 10
25.735229
 20
-35.832009
 30
0.0
 10
27.515229
 20
-35.822009
 30
0.0
 10
29.285229
 20
-35.852009
 30
0.0
  0
LWPOLYLINE
  5
1be
100
AcDbEntity
  8
0
 62
7
100
AcDbPolyline
 90
2
 70
0
 10
23.255230
 20
-35.832009
 30
0.0
 10
23.875230
 20
-35.832009
 30
0.0
  0
SPLINE
  5
1bf
100
AcDbEntity
  8
0
 62
7
100
AcDbSpline
 70
8
 71
3
 72
8
 73
4
 74
0
 40
0
 40
0
 40
0
 40
0
 40
1
 40
1
 40
1
 40
1
 10
29.525229
 20
-35.852009
 30
0.0
 10
29.965229
 20
-35.862009
 30
0.0
 10
30.425229
 20
-35.872009
 30
0.0
 10
30.885229
 20
-35.772009
 30
0.0
  0
LWPOLYLINE
  5
1c0
100
AcDbEntity
  8
0
 62
7
100
AcDbPolyline
 90
2
 70
0
 10
29.285229
 20
-35.852009
 30
0.0
 10
29.525229
 20
-35.852009
 30
0.0
  0
SPLINE
  5
1c1
100
AcDbEntity
  8
0
 62
7
100
AcDbSpline
 70
8
 71
3
 72
8
 73
4
 74
0
 40
0
 40
0
 40
0
 40
0
 40
1
 40
1
 40
1
 40
1
 10
31.085229
 20
-35.512009
 30
0.0
 10
31.065229
 20
-35.172009
 30
0.0
 10
31.075229
 20
-34.812009
 30
0.0
 10
31.095229
 20
-34.472009
 30
0.0
  0
SPLINE
  5
1c2
100
AcDbEntity
  8
0
 62
7
100
AcDbSpline
 70
8
 71
3
 72
8
 73
4
 74
0
 40
0
 40
0
 40
0
 40
0
 40
1
 40
1
 40
1
 40
1
 10
31.095229
 20
-34.472009
 30
0.0
 10
31.125229
 20
-33.802009
 30
0.0
 10
31.145229
 20
-33.102009
 30
0.0
 10
30.925229
 20
-32.412009
 30
0.0
  0
LWPOLYLINE
  5
1c3
100
AcDbEntity
  8
0
 62
7
100
AcDbPolyline
 90
3
 70
0
 10
30.885229
 20
-35.772009
 30
0.0
 10
31.095229
 20
-35.722009
 30
0.0
 10
31.085229
 20
-35.512009
 30
0.0
  0
SPLINE
  5
1c4
100
AcDbEntity
  8
0
 62
7
100
AcDbSpline
 70
8
 71
3
 72
8
 73
4
 74
0
 40
0
 40
0
 40
0
 40
0
 40
1
 40
1
 40
1
 40
1
 10
24.625229
 20
-29.982009
 30
0.0
 10
25.235229
 20
-30.002009
 30
0.0
 10
25.815229
 20
-30.072009
 30
0.0
 10
26.385229
 20
-30.152009
 30
0.0
  0
SPLINE
  5
1c5
100
AcDbEntity
  8
0
 62
7
100
AcDbSpline
 70
8
 71
3
 72
8
 73
4
 74
0
 40
0
 40
0
 40
0
 40
0
 40
1
 40
1
 40
1
 40
1
 10
26.385229
 20
-30.152009
 30
0.0
 10
26.925229
 20
-30.222009
 30
0.0
 10
27.425229
 20
-30.292009
 30
0.0
 10
27.955229
 20
-30.312009
 30
0.0
  0
SPLINE
  5
1c6
100
AcDbEntity
  8
0
 62
7
100
AcDbSpline
 70
8
 71
3
 72
8
 73
4
 74
0
 40
0
 40
0
 40
0
 40
0
 40
1
 40
1
 40
1
 40
1
 10
27.955229
 20
-30.312009
 30
0.0
 10
28.295229
 20
-30.322009
 30
0.0
 10
28.635229
 20
-30.392009
 30
0.0
 10
28.985229
 20
-30.452009
 30
0.0
  0
SPLINE
  5
1c7
100
AcDbEntity
  8
0
 62
7
100
AcDbSpline
 70
8
 71
3
 72
8
 73
4
 74
0
 40
0
 40
0
 40
0
 40
0
 40
1
 40
1
 40
1
 40
1
 10
28.985229
 20
-30.452009
 30
0.0
 10
29.595229
 20
-30.562009
 30
0.0
 10
30.225229
 20
-30.682009
 30
0.0
 10
30.895229
 20
-30.542009
 30
0.0
  0
LWPOLYLINE
  5
1c8
100
AcDbEntity
  8
0
 62
7
100
AcDbPolyline
 90
3
 70
0
 10
30.925229
 20
-32.412009
 30
0.0
 10
30.885229
 20
-32.292009
 30
0.0
 10
24.625229
 20
-29.982009
 30
0.0
  0
SPLINE
  5
1c9
100
AcDbEntity
  8
0
 62
7
100
AcDbSpline
 70
8
 71
3
 72
8
 73
4
 74
0
 40
0
 40
0
 40
0
 40
0
 40
1
 40
1
 40
1
 40
1
 10
31.085229
 20
-30.382009
 30
0.0
 10
31.305229
 20
-29.752009
 30
0.0
 10
31.295229
 20
-29.112009
 30
0.0
 10
31.275229
 20
-28.502009
 30
0.0
  0
SPLINE
  5
1ca
100
AcDbEntity
  8
0
 62
7
100
AcDbSpline
 70
8
 71
3
 72
8
 73
4
 74
0
 40
0
 40
0
 40
0
 40
0
 40
1
 40
1
 40
1
 40
1
 10
31.275229
 20
-28.502009
 30
0.0
 10
31.265229
 20
-28.162009
 30
0.0
 10
31.265229
 20
-27.852009
 30
0.0
 10
31.285229
 20
-27.532009
 30
0.0
  0
LWPOLYLINE
  5
1cb
100
AcDbEntity
  8
0
 62
7
100
AcDbPolyline
 90
3
 70
0
 10
30.895229
 20
-30.542009
 30
0.0
 10
31.035229
 20
-30.512009
 30
0.0
 10
31.085229
 20
-30.382009
 30
0.0
  0
SPLINE
  5
1cc
100
AcDbEntity
  8
0
 62
7
100
AcDbSpline
 70
8
 71
3
 72
8
 73
4
 74
0
 40
0
 40
0
 40
0
 40
0
 40
1
 40
1
 40
1
 40
1
 10
31.145229
 20
-27.292009
 30
0.0
 10
30.285229
 20
-26.832009
 30
0.0
 10
29.395229
 20
-26.422009
 30
0.0
 10
28.535229
 20
-26.022009
 30
0.0
  0
SPLINE
  5
1cd
100
AcDbEntity
  8
0
 62
7
100
AcDbSpline
 70
8
 71
3
 72
8
 73
4
 74
0
 40
0
 40
0
 40
0
 40
0
 40
1
 40
1
 40
1
 40
1
 10
28.535229
 20
-26.022009
 30
0.0
 10
27.515229
 20
-25.552009
 30
0.0
 10
26.465229
 20
-25.062009
 30
0.0
 10
25.465229
 20
-24.492009
 30
0.0
  0
SPLINE
  5
1ce
100
AcDbEntity
  8
0
 62
7
100
AcDbSpline
 70
8
 71
3
 72
8
 73
4
 74
0
 40
0
 40
0
 40
0
 40
0
 40
1
 40
1
 40
1
 40
1
 10
25.465229
 20
-24.492009
 30
0.0
 10
26.435229
 20
-24.622009
 30
0.0
 10
27.395229
 20
-24.892009
 30
0.0
 10
28.325229
 20
-25.142009
 30
0.0
  0
SPLINE
  5
1cf
100
AcDbEntity
  8
0
 62
7
100
AcDbSpline
 70
8
 71
3
 72
8
 73
4
 74
0
 40
0
 40
0
 40
0
 40
0
 40
1
 40
1
 40
1
 40
1
 10
28.325229
 20
-25.142009
 30
0.0
 10
29.265229
 20
-25.402009
 30
0.0
 10
30.235229
 20
-25.672009
 30
0.0
 10
31.235229
 20
-25.802009
 30
0.0
  0
LWPOLYLINE
  5
1d0
100
AcDbEntity
  8
0
 62
7
100
AcDbPolyline
 90
3
 70
0
 10
31.285229
 20
-27.532009
 30
0.0
 10
31.295229
 20
-27.372009
 30
0.0
 10
31.145229
 20
-27.292009
 30
0.0
  0
SPLINE
  5
1d1
100
AcDbEntity
  8
0
 62
7
100
AcDbSpline
 70
8
 71
3
 72
8
 73
4
 74
0
 40
0
 40
0
 40
0
 40
0
 40
1
 40
1
 40
1
 40
1
 10
31.515229
 20
-25.622009
 30
0.0
 10
32.005229
 20
-23.852010
 30
0.0
 10
32.325229
 20
-22.352010
 30
0.0
 10
32.525229
 20
-20.892010
 30
0.0
  0
LWPOLYLINE
  5
1d2
100
AcDbEntity
  8
0
 62
7
100
AcDbPolyline
 90
3
 70
0
 10
31.235229
 20
-25.802009
 30
0.0
 10
31.455229
 20
-25.832009
 30
0.0
 10
31.515229
 20
-25.622009
 30
0.0
  0
SPLINE
  5
1d3
100
AcDbEntity
  8
0
 62
7
100
AcDbSpline
 70
8
 71
3
 72
8
 73
4
 74
0
 40
0
 40
0
 40
0
 40
0
 40
1
 40
1
 40
1
 40
1
 10
32.395229
 20
-20.652010
 30
0.0
 10
31.005229
 20
-19.782010
 30
0.0
 10
29.535229
 20
-18.842010
 30
0.0
 10
28.185229
 20
-17.792010
 30
0.0
  0
LWPOLYLINE
  5
1d4
100
AcDbEntity
  8
0
 62
7
100
AcDbPolyline
 90
3
 70
0
 10
32.525229
 20
-20.892010
 30
0.0
 10
32.535229
 20
-20.742010
 30
0.0
 10
32.395229
 20
-20.652010
 30
0.0
  0
SPLINE
  5
1d5
100
AcDbEntity
  8
0
 62
7
100
AcDbSpline
 70
8
 71
3
 72
8
 73
4
 74
0
 40
0
 40
0
 40
0
 40
0
 40
1
 40
1
 40
1
 40
1
 10
32.985229
 20
-19.432010
 30
0.0
 10
33.265229
 20
-18.972010
 30
0.0
 10
33.355229
 20
-18.472010
 30
0.0
 10
33.435229
 20
-17.992010
 30
0.0
  0
SPLINE
  5
1d6
100
AcDbEntity
  8
0
 62
7
100
AcDbSpline
 70
8
 71
3
 72
8
 73
4
 74
0
 40
0
 40
0
 40
0
 40
0
 40
1
 40
1
 40
1
 40
1
 10
33.435229
 20
-17.992010
 30
0.0
 10
33.475229
 20
-17.772010
 30
0.0
 10
33.505229
 20
-17.562010
 30
0.0
 10
33.565229
 20
-17.352010
 30
0.0
  0
LWPOLYLINE
  5
1d7
100
AcDbEntity
  8
0
 62
7
100
AcDbPolyline
 90
3
 70
0
 10
28.185229
 20
-17.792010
 30
0.0
 10
32.875229
 20
-19.612010
 30
0.0
 10
32.985229
 20
-19.432010
 30
0.0
  0
SPLINE
  5
1d8
100
AcDbEntity
  8
0
 62
7
100
AcDbSpline
 70
8
 71
3
 72
8
 73
4
 74
0
 40
0
 40
0
 40
0
 40
0
 40
1
 40
1
 40
1
 40
1
 10
33.485229
 20
-17.102010
 30
0.0
 10
32.875229
 20
-16.572010
 30
0.0
 10
32.225229
 20
-16.082010
 30
0.0
 10
31.595229
 20
-15.602010
 30
0.0
  0
SPLINE
  5
1d9
100
AcDbEntity
  8
0
 62
7
100
AcDbSpline
 70
8
 71
3
 72
8
 73
4
 74
0
 40
0
 40
0
 40
0
 40
0
 40
1
 40
1
 40
1
 40
1
 10
31.595229
 20
-15.602010
 30
0.0
 10
30.785229
 20
-14.982010
 30
0.0
 10
29.945229
 20
-14.352010
 30
0.0
 10
29.185229
 20
-13.642010
 30
0.0
  0
SPLINE
  5
1da
100
AcDbEntity
  8
0
 62
7
100
AcDbSpline
 70
8
 71
3
 72
8
 73
4
 74
0
 40
0
 40
0
 40
0
 40
0
 40
1
 40
1
 40
1
 40
1
 10
29.185229
 20
-13.642010
 30
0.0
 10
29.875229
 20
-13.862010
 30
0.0
 10
30.545229
 20
-14.132010
 30
0.0
 10
31.195229
 20
-14.402010
 30
0.0
  0
SPLINE
  5
1db
100
AcDbEntity
  8
0
 62
7
100
AcDbSpline
 70
8
 71
3
 72
8
 73
4
 74
0
 40
0
 40
0
 40
0
 40
0
 40
1
 40
1
 40
1
 40
1
 10
31.195229
 20
-14.402010
 30
0.0
 10
32.055229
 20
-14.752010
 30
0.0
 10
32.945229
 20
-15.112010
 30
0.0
 10
33.875229
 20
-15.352010
 30
0.0
  0
LWPOLYLINE
  5
1dc
100
AcDbEntity
  8
0
 62
7
100
AcDbPolyline
 90
3
 70
0
 10
33.565229
 20
-17.352010
 30
0.0
 10
33.605229
 20
-17.202010
 30
0.0
 10
33.485229
 20
-17.102010
 30
0.0
  0
SPLINE
  5
1dd
100
AcDbEntity
  8
0
 62
7
100
AcDbSpline
 70
8
 71
3
 72
8
 73
4
 74
0
 40
0
 40
0
 40
0
 40
0
 40
1
 40
1
 40
1
 40
1
 10
34.185229
 20
-15.162010
 30
0.0
 10
34.255229
 20
-14.832010
 30
0.0
 10
34.365229
 20
-14.522010
 30
0.0
 10
34.485229
 20
-14.182010
 30
0.0
  0
SPLINE
  5
1de
100
AcDbEntity
  8
0
 62
7
100
AcDbSpline
 70
8
 71
3
 72
8
 73
4
 74
0
 40
0
 40
0
 40
0
 40
0
 40
1
 40
1
 40
1
 40
1
 10
34.485229
 20
-14.182010
 30
0.0
 10
34.695229
 20
-13.562010
 30
0.0
 10
34.925229
 20
-12.912010
 30
0.0
 10
34.885229
 20
-12.192010
 30
0.0
  0
LWPOLYLINE
  5
1df
100
AcDbEntity
  8
0
 62
7
100
AcDbPolyline
 90
3
 70
0
 10
33.875229
 20
-15.352010
 30
0.0
 10
34.125229
 20
-15.412010
 30
0.0
 10
34.185229
 20
-15.162010
 30
0.0
  0
SPLINE
  5
1e0
100
AcDbEntity
  8
0
 62
7
100
AcDbSpline
 70
8
 71
3
 72
8
 73
4
 74
0
 40
0
 40
0
 40
0
 40
0
 40
1
 40
1
 40
1
 40
1
 10
30.055229
 20
-8.052010
 30
0.0
 10
30.315229
 20
-8.072010
 30
0.0
 10
30.535229
 20
-8.162010
 30
0.0
 10
30.755229
 20
-8.252010
 30
0.0
  0
SPLINE
  5
1e1
100
AcDbEntity
  8
0
 62
7
100
AcDbSpline
 70
8
 71
3
 72
8
 73
4
 74
0
 40
0
 40
0
 40
0
 40
0
 40
1
 40
1
 40
1
 40
1
 10
30.755229
 20
-8.252010
 30
0.0
 10
32.025229
 20
-8.782010
 30
0.0
 10
33.295229
 20
-9.292010
 30
0.0
 10
34.575229
 20
-9.802010
 30
0.0
  0
LWPOLYLINE
  5
1e2
100
AcDbEntity
  8
0
 62
7
100
AcDbPolyline
 90
3
 70
0
 10
34.885229
 20
-12.192010
 30
0.0
 10
34.875229
 20
-12.082010
 30
0.0
 10
30.055229
 20
-8.052010
 30
0.0
  0
SPLINE
  5
1e3
100
AcDbEntity
  8
0
 62
7
100
AcDbSpline
 70
8
 71
3
 72
8
 73
4
 74
0
 40
0
 40
0
 40
0
 40
0
 40
1
 40
1
 40
1
 40
1
 10
36.435229
 20
-10.242010
 30
0.0
 10
36.955229
 20
-9.582010
 30
0.0
 10
37.535229
 20
-8.922010
 30
0.0
 10
38.265229
 20
-8.452010
 30
0.0
  0
LWPOLYLINE
  5
1e4
100
AcDbEntity
  8
0
 62
7
100
AcDbPolyline
 90
5
 70
0
 10
34.575229
 20
-9.802010
 30
0.0
 10
35.995229
 20
-10.372010
 30
0.0
 10
36.285229
 20
-10.322010
 30
0.0
 10
36.245229
 20
-10.112010
 30
0.0
 10
36.435229
 20
-10.242010
 30
0.0
  0
SPLINE
  5
1e5
100
AcDbEntity
  8
0
 62
7
100
AcDbSpline
 70
8
 71
3
 72
8
 73
4
 74
0
 40
0
 40
0
 40
0
 40
0
 40
1
 40
1
 40
1
 40
1
 10
38.745229
 20
-7.612010
 30
0.0
 10
38.045229
 20
-6.742010
 30
0.0
 10
37.235229
 20
-5.982010
 30
0.0
 10
36.445229
 20
-5.242010
 30
0.0
  0
SPLINE
  5
1e6
100
AcDbEntity
  8
0
 62
7
100
AcDbSpline
 70
8
 71
3
 72
8
 73
4
 74
0
 40
0
 40
0
 40
0
 40
0
 40
1
 40
1
 40
1
 40
1
 10
36.445229
 20
-5.242010
 30
0.0
 10
35.915229
 20
-4.742010
 30
0.0
 10
35.365229
 20
-4.232010
 30
0.0
 10
34.855229
 20
-3.692010
 30
0.0
  0
SPLINE
  5
1e7
100
AcDbEntity
  8
0
 62
7
100
AcDbSpline
 70
8
 71
3
 72
8
 73
4
 74
0
 40
0
 40
0
 40
0
 40
0
 40
1
 40
1
 40
1
 40
1
 10
34.855229
 20
-3.692010
 30
0.0
 10
34.635229
 20
-3.452010
 30
0.0
 10
34.395229
 20
-3.222010
 30
0.0
 10
34.165229
 20
-2.982010
 30
0.0
  0
LWPOLYLINE
  5
1e8
100
AcDbEntity
  8
0
 62
7
100
AcDbPolyline
 90
4
 70
0
 10
38.265229
 20
-8.452010
 30
0.0
 10
38.255229
 20
-8.612010
 30
0.0
 10
40.045229
 20
-6.942010
 30
0.0
 10
38.745229
 20
-7.612010
 30
0.0
  0
SPLINE
  5
1e9
100
AcDbEntity
  8
0
 62
7
100
AcDbSpline
 70
8
 71
3
 72
8
 73
4
 74
0
 40
0
 40
0
 40
0
 40
0
 40
1
 40
1
 40
1
 40
1
 10
33.755229
 20
-2.592010
 30
0.0
 10
33.505229
 20
-2.492010
 30
0.0
 10
33.305229
 20
-2.332010
 30
0.0
 10
33.135229
 20
-2.142010
 30
0.0
  0
SPLINE
  5
1ea
100
AcDbEntity
  8
0
 62
7
100
AcDbSpline
 70
8
 71
3
 72
8
 73
4
 74
0
 40
0
 40
0
 40
0
 40
0
 40
1
 40
1
 40
1
 40
1
 10
33.135229
 20
-2.142010
 30
0.0
 10
33.455229
 20
-2.292010
 30
0.0
 10
33.745229
 20
-2.462010
 30
0.0
 10
33.985229
 20
-2.702010
 30
0.0
  0
LWPOLYLINE
  5
1eb
100
AcDbEntity
  8
0
 62
7
100
AcDbPolyline
 90
3
 70
0
 10
34.165229
 20
-2.982010
 30
0.0
 10
33.835229
 20
-2.652010
 30
0.0
 10
33.755229
 20
-2.592010
 30
0.0
  0
SPLINE
  5
1ec
100
AcDbEntity
  8
0
 62
7
100
AcDbSpline
 70
8
 71
3
 72
8
 73
4
 74
0
 40
0
 40
0
 40
0
 40
0
 40
1
 40
1
 40
1
 40
1
 10
40.395229
 20
-6.582010
 30
0.0
 10
40.715229
 20
-6.642010
 30
0.0
 10
40.945229
 20
-6.502010
 30
0.0
 10
41.125229
 20
-6.372010
 30
0.0
  0
LWPOLYLINE
  5
1ed
100
AcDbEntity
  8
0
 62
7
100
AcDbPolyline
 90
3
 70
0
 10
33.985229
 20
-2.702010
 30
0.0
 10
40.315229
 20
-6.552010
 30
0.0
 10
40.395229
 20
-6.582010
 30
0.0
  0
SPLINE
  5
1ee
100
AcDbEntity
  8
0
 62
7
100
AcDbSpline
 70
8
 71
3
 72
8
 73
4
 74
0
 40
0
 40
0
 40
0
 40
0
 40
1
 40
1
 40
1
 40
1
 10
42.015229
 20
-5.552010
 30
0.0
 10
42.175229
 20
-5.422010
 30
0.0
 10
42.345229
 20
-5.262010
 30
0.0
 10
42.415229
 20
-5.012010
 30
0.0
  0
LWPOLYLINE
  5
1ef
100
AcDbEntity
  8
0
 62
7
100
AcDbPolyline
 90
4
 70
0
 10
41.125229
 20
-6.372010
 30
0.0
 10
41.095229
 20
-6.612010
 30
0.0
 10
42.185229
 20
-5.522010
 30
0.0
 10
42.015229
 20
-5.552010
 30
0.0
  0
SPLINE
  5
1f0
100
AcDbEntity
  8
0
 62
7
100
AcDbSpline
 70
8
 71
3
 72
8
 73
4
 74
0
 40
0
 40
0
 40
0
 40
0
 40
1
 40
1
 40
1
 40
1
 10
42.425229
 20
-4.892010
 30
0.0
 10
42.405229
 20
-4.822010
 30
0.0
 10
42.395229
 20
-4.742010
 30
0.0
 10
42.385229
 20
-4.672010
 30
0.0
  0
SPLINE
  5
1f1
100
AcDbEntity
  8
0
 62
7
100
AcDbSpline
 70
8
 71
3
 72
8
 73
4
 74
0
 40
0
 40
0
 40
0
 40
0
 40
1
 40
1
 40
1
 40
1
 10
42.385229
 20
-4.672010
 30
0.0
 10
42.355229
 20
-4.422010
 30
0.0
 10
42.305229
 20
-4.122010
 30
0.0
 10
42.075229
 20
-3.902010
 30
0.0
  0
LWPOLYLINE
  5
1f2
100
AcDbEntity
  8
0
 62
7
100
AcDbPolyline
 90
3
 70
0
 10
42.415229
 20
-5.012010
 30
0.0
 10
42.435229
 20
-4.952010
 30
0.0
 10
42.425229
 20
-4.892010
 30
0.0
  0
SPLINE
  5
1f3
100
AcDbEntity
  8
0
 62
7
100
AcDbSpline
 70
8
 71
3
 72
8
 73
4
 74
0
 40
0
 40
0
 40
0
 40
0
 40
1
 40
1
 40
1
 40
1
 10
35.695229
 20
4.167990
 30
0.0
 10
36.175229
 20
3.807990
 30
0.0
 10
36.645229
 20
3.417990
 30
0.0
 10
37.095229
 20
3.027990
 30
0.0
  0
SPLINE
  5
1f4
100
AcDbEntity
  8
0
 62
7
100
AcDbSpline
 70
8
 71
3
 72
8
 73
4
 74
0
 40
0
 40
0
 40
0
 40
0
 40
1
 40
1
 40
1
 40
1
 10
37.095229
 20
3.027990
 30
0.0
 10
37.895229
 20
2.347990
 30
0.0
 10
38.735229
 20
1.647990
 30
0.0
 10
39.675229
 20
1.107990
 30
0.0
  0
LWPOLYLINE
  5
1f5
100
AcDbEntity
  8
0
 62
7
100
AcDbPolyline
 90
3
 70
0
 10
42.075229
 20
-3.902010
 30
0.0
 10
35.565229
 20
4.267990
 30
0.0
 10
35.695229
 20
4.167990
 30
0.0
  0
SPLINE
  5
1f6
100
AcDbEntity
  8
0
 62
7
100
AcDbSpline
 70
8
 71
3
 72
8
 73
4
 74
0
 40
0
 40
0
 40
0
 40
0
 40
1
 40
1
 40
1
 40
1
 10
37.235229
 20
8.627990
 30
0.0
 10
37.735229
 20
8.317990
 30
0.0
 10
38.155229
 20
7.897990
 30
0.0
 10
38.595229
 20
7.457990
 30
0.0
  0
SPLINE
  5
1f7
100
AcDbEntity
  8
0
 62
7
100
AcDbSpline
 70
8
 71
3
 72
8
 73
4
 74
0
 40
0
 40
0
 40
0
 40
0
 40
1
 40
1
 40
1
 40
1
 10
38.595229
 20
7.457990
 30
0.0
 10
39.035229
 20
7.017990
 30
0.0
 10
39.485229
 20
6.567990
 30
0.0
 10
40.035229
 20
6.227990
 30
0.0
  0
LWPOLYLINE
  5
1f8
100
AcDbEntity
  8
0
 62
7
100
AcDbPolyline
 90
4
 70
0
 10
39.675229
 20
1.107990
 30
0.0
 10
40.045229
 20
0.897990
 30
0.0
 10
40.085229
 20
4.867990
 30
0.0
 10
37.235229
 20
8.627990
 30
0.0
  0
SPLINE
  5
1f9
100
AcDbEntity
  8
0
 62
7
100
AcDbSpline
 70
8
 71
3
 72
8
 73
4
 74
0
 40
0
 40
0
 40
0
 40
0
 40
1
 40
1
 40
1
 40
1
 10
40.415229
 20
6.407990
 30
0.0
 10
40.505229
 20
7.047990
 30
0.0
 10
40.775229
 20
7.627990
 30
0.0
 10
41.065229
 20
8.227990
 30
0.0
  0
SPLINE
  5
1fa
100
AcDbEntity
  8
0
 62
7
100
AcDbSpline
 70
8
 71
3
 72
8
 73
4
 74
0
 40
0
 40
0
 40
0
 40
0
 40
1
 40
1
 40
1
 40
1
 10
41.065229
 20
8.227990
 30
0.0
 10
41.225229
 20
8.567990
 30
0.0
 10
41.395229
 20
8.907990
 30
0.0
 10
41.525229
 20
9.267990
 30
0.0
  0
LWPOLYLINE
  5
1fb
100
AcDbEntity
  8
0
 62
7
100
AcDbPolyline
 90
3
 70
0
 10
40.035229
 20
6.227990
 30
0.0
 10
40.365229
 20
6.027990
 30
0.0
 10
40.415229
 20
6.407990
 30
0.0
  0
SPLINE
  5
1fc
100
AcDbEntity
  8
0
 62
7
100
AcDbSpline
 70
8
 71
3
 72
8
 73
4
 74
0
 40
0
 40
0
 40
0
 40
0
 40
1
 40
1
 40
1
 40
1
 10
42.305229
 20
10.307990
 30
0.0
 10
42.785229
 20
10.307990
 30
0.0
 10
43.155229
 20
10.567990
 30
0.0
 10
43.485229
 20
10.787990
 30
0.0
  0
SPLINE
  5
1fd
100
AcDbEntity
  8
0
 62
7
100
AcDbSpline
 70
8
 71
3
 72
8
 73
4
 74
0
 40
0
 40
0
 40
0
 40
0
 40
1
 40
1
 40
1
 40
1
 10
43.485229
 20
10.787990
 30
0.0
 10
43.815229
 20
11.017990
 30
0.0
 10
44.095229
 20
11.217990
 30
0.0
 10
44.465229
 20
11.177990
 30
0.0
  0
LWPOLYLINE
  5
1fe
100
AcDbEntity
  8
0
 62
7
100
AcDbPolyline
 90
5
 70
0
 10
41.525229
 20
9.267990
 30
0.0
 10
41.565229
 20
9.367990
 30
0.0
 10
39.395229
 20
13.607990
 30
0.0
 10
42.185229
 20
10.307990
 30
0.0
 10
42.305229
 20
10.307990
 30
0.0
  0
SPLINE
  5
1ff
100
AcDbEntity
  8
0
 62
7
100
AcDbSpline
 70
8
 71
3
 72
8
 73
4
 74
0
 40
0
 40
0
 40
0
 40
0
 40
1
 40
1
 40
1
 40
1
 10
44.685229
 20
11.287990
 30
0.0
 10
44.745229
 20
11.367990
 30
0.0
 10
44.815229
 20
11.417990
 30
0.0
 10
44.985229
 20
11.387990
 30
0.0
  0
LWPOLYLINE
  5
200
100
AcDbEntity
  8
0
 62
7
100
AcDbPolyline
 90
3
 70
0
 10
44.465229
 20
11.177990
 30
0.0
 10
44.605229
 20
11.167990
 30
0.0
 10
44.685229
 20
11.287990
 30
0.0
  0
SPLINE
  5
201
100
AcDbEntity
  8
0
 62
7
100
AcDbSpline
 70
8
 71
3
 72
8
 73
4
 74
0
 40
0
 40
0
 40
0
 40
0
 40
1
 40
1
 40
1
 40
1
 10
45.345229
 20
12.647990
 30
0.0
 10
45.245229
 20
13.327990
 30
0.0
 10
45.145229
 20
14.007990
 30
0.0
 10
45.055229
 20
14.687990
 30
0.0
  0
LWPOLYLINE
  5
202
100
AcDbEntity
  8
0
 62
7
100
AcDbPolyline
 90
4
 70
0
 10
44.985229
 20
11.387990
 30
0.0
 10
45.115229
 20
11.367990
 30
0.0
 10
45.475229
 20
11.727990
 30
0.0
 10
45.345229
 20
12.647990
 30
0.0
  0
SPLINE
  5
203
100
AcDbEntity
  8
0
 62
7
100
AcDbSpline
 70
8
 71
3
 72
8
 73
4
 74
0
 40
0
 40
0
 40
0
 40
0
 40
1
 40
1
 40
1
 40
1
 10
45.825229
 20
12.127990
 30
0.0
 10
45.915229
 20
11.977990
 30
0.0
 10
46.055229
 20
11.867990
 30
0.0
 10
46.215229
 20
11.827990
 30
0.0
  0
SPLINE
  5
204
100
AcDbEntity
  8
0
 62
7
100
AcDbSpline
 70
8
 71
3
 72
8
 73
4
 74
0
 40
0
 40
0
 40
0
 40
0
 40
1
 40
1
 40
1
 40
1
 10
46.215229
 20
11.827990
 30
0.0
 10
46.355229
 20
11.787990
 30
0.0
 10
46.505229
 20
11.817990
 30
0.0
 10
46.625229
 20
11.887990
 30
0.0
  0
SPLINE
  5
205
100
AcDbEntity
  8
0
 62
7
100
AcDbSpline
 70
8
 71
3
 72
8
 73
4
 74
0
 40
0
 40
0
 40
0
 40
0
 40
1
 40
1
 40
1
 40
1
 10
46.625229
 20
11.887990
 30
0.0
 10
47.265229
 20
12.287990
 30
0.0
 10
47.965229
 20
12.257990
 30
0.0
 10
48.705229
 20
12.217990
 30
0.0
  0
SPLINE
  5
206
100
AcDbEntity
  8
0
 62
7
100
AcDbSpline
 70
8
 71
3
 72
8
 73
4
 74
0
 40
0
 40
0
 40
0
 40
0
 40
1
 40
1
 40
1
 40
1
 10
48.705229
 20
12.217990
 30
0.0
 10
48.935229
 20
12.207990
 30
0.0
 10
49.165229
 20
12.197990
 30
0.0
 10
49.395229
 20
12.197990
 30
0.0
  0
LWPOLYLINE
  5
207
100
AcDbEntity
  8
0
 62
7
100
AcDbPolyline
 90
3
 70
0
 10
45.055229
 20
14.687990
 30
0.0
 10
45.595229
 20
12.887990
 30
0.0
 10
45.825229
 20
12.127990
 30
0.0
  0
SPLINE
  5
208
100
AcDbEntity
  8
0
 62
7
100
AcDbSpline
 70
8
 71
3
 72
8
 73
4
 74
0
 40
0
 40
0
 40
0
 40
0
 40
1
 40
1
 40
1
 40
1
 10
51.795229
 20
11.727990
 30
0.0
 10
52.085229
 20
11.907990
 30
0.0
 10
52.145229
 20
12.197990
 30
0.0
 10
52.175229
 20
12.417990
 30
0.0
  0
SPLINE
  5
209
100
AcDbEntity
  8
0
 62
7
100
AcDbSpline
 70
8
 71
3
 72
8
 73
4
 74
0
 40
0
 40
0
 40
0
 40
0
 40
1
 40
1
 40
1
 40
1
 10
52.175229
 20
12.417990
 30
0.0
 10
52.195229
 20
12.537990
 30
0.0
 10
52.215229
 20
12.647990
 30
0.0
 10
52.275229
 20
12.717990
 30
0.0
  0
LWPOLYLINE
  5
20a
100
AcDbEntity
  8
0
 62
7
100
AcDbPolyline
 90
11
 70
0
 10
49.395229
 20
12.197990
 30
0.0
 10
49.685229
 20
12.197990
 30
0.0
 10
49.665229
 20
12.307990
 30
0.0
 10
49.705229
 20
12.367990
 30
0.0
 10
49.845229
 20
12.427990
 30
0.0
 10
49.865229
 20
12.747990
 30
0.0
 10
49.905229
 20
12.227990
 30
0.0
 10
49.955229
 20
12.227990
 30
0.0
 10
49.955229
 20
12.187990
 30
0.0
 10
51.695229
 20
11.667990
 30
0.0
 10
51.795229
 20
11.727990
 30
0.0
  0
SPLINE
  5
20b
100
AcDbEntity
  8
0
 62
7
100
AcDbSpline
 70
8
 71
3
 72
8
 73
4
 74
0
 40
0
 40
0
 40
0
 40
0
 40
1
 40
1
 40
1
 40
1
 10
52.725229
 20
11.097990
 30
0.0
 10
52.905229
 20
10.717990
 30
0.0
 10
53.175229
 20
10.407990
 30
0.0
 10
53.435229
 20
10.107990
 30
0.0
  0
SPLINE
  5
20c
100
AcDbEntity
  8
0
 62
7
100
AcDbSpline
 70
8
 71
3
 72
8
 73
4
 74
0
 40
0
 40
0
 40
0
 40
0
 40
1
 40
1
 40
1
 40
1
 10
53.435229
 20
10.107990
 30
0.0
 10
53.765229
 20
9.727990
 30
0.0
 10
54.085229
 20
9.367990
 30
0.0
 10
54.185229
 20
8.877990
 30
0.0
  0
LWPOLYLINE
  5
20d
100
AcDbEntity
  8
0
 62
7
100
AcDbPolyline
 90
5
 70
0
 10
52.275229
 20
12.717990
 30
0.0
 10
52.685229
 20
14.867990
 30
0.0
 10
52.685229
 20
11.417990
 30
0.0
 10
52.705229
 20
11.177990
 30
0.0
 10
52.725229
 20
11.097990
 30
0.0
  0
SPLINE
  5
20e
100
AcDbEntity
  8
0
 62
7
100
AcDbSpline
 70
8
 71
3
 72
8
 73
4
 74
0
 40
0
 40
0
 40
0
 40
0
 40
1
 40
1
 40
1
 40
1
 10
55.175229
 20
8.247990
 30
0.0
 10
55.625229
 20
8.737990
 30
0.0
 10
55.785229
 20
9.327990
 30
0.0
 10
55.955229
 20
9.897990
 30
0.0
  0
SPLINE
  5
20f
100
AcDbEntity
  8
0
 62
7
100
AcDbSpline
 70
8
 71
3
 72
8
 73
4
 74
0
 40
0
 40
0
 40
0
 40
0
 40
1
 40
1
 40
1
 40
1
 10
55.955229
 20
9.897990
 30
0.0
 10
56.065229
 20
10.267990
 30
0.0
 10
56.155229
 20
10.607990
 30
0.0
 10
56.325229
 20
10.927990
 30
0.0
  0
SPLINE
  5
210
100
AcDbEntity
  8
0
 62
7
100
AcDbSpline
 70
8
 71
3
 72
8
 73
4
 74
0
 40
0
 40
0
 40
0
 40
0
 40
1
 40
1
 40
1
 40
1
 10
56.325229
 20
10.927990
 30
0.0
 10
56.435229
 20
11.137990
 30
0.0
 10
56.535229
 20
11.357990
 30
0.0
 10
56.625229
 20
11.567990
 30
0.0
  0
LWPOLYLINE
  5
211
100
AcDbEntity
  8
0
 62
7
100
AcDbPolyline
 90
7
 70
0
 10
54.185229
 20
8.877990
 30
0.0
 10
54.385229
 20
8.917990
 30
0.0
 10
54.235229
 20
8.767990
 30
0.0
 10
54.355229
 20
8.627990
 30
0.0
 10
54.375229
 20
8.637990
 30
0.0
 10
55.005229
 20
8.057990
 30
0.0
 10
55.175229
 20
8.247990
 30
0.0
  0
SPLINE
  5
212
100
AcDbEntity
  8
0
 62
7
100
AcDbSpline
 70
8
 71
3
 72
8
 73
4
 74
0
 40
0
 40
0
 40
0
 40
0
 40
1
 40
1
 40
1
 40
1
 10
55.805229
 20
4.947990
 30
0.0
 10
55.965229
 20
3.327990
 30
0.0
 10
56.365229
 20
1.737990
 30
0.0
 10
56.755229
 20
0.197990
 30
0.0
  0
LWPOLYLINE
  5
213
100
AcDbEntity
  8
0
 62
7
100
AcDbPolyline
 90
2
 70
0
 10
56.625229
 20
11.567990
 30
0.0
 10
55.805229
 20
4.947990
 30
0.0
  0
SPLINE
  5
214
100
AcDbEntity
  8
0
 62
7
100
AcDbSpline
 70
8
 71
3
 72
8
 73
4
 74
0
 40
0
 40
0
 40
0
 40
0
 40
1
 40
1
 40
1
 40
1
 10
57.235229
 20
-0.352010
 30
0.0
 10
57.765229
 20
-0.002010
 30
0.0
 10
57.975229
 20
0.517990
 30
0.0
 10
58.175229
 20
1.037990
 30
0.0
  0
SPLINE
  5
215
100
AcDbEntity
  8
0
 62
7
100
AcDbSpline
 70
8
 71
3
 72
8
 73
4
 74
0
 40
0
 40
0
 40
0
 40
0
 40
1
 40
1
 40
1
 40
1
 10
58.175229
 20
1.037990
 30
0.0
 10
58.225229
 20
1.157990
 30
0.0
 10
58.275229
 20
1.287990
 30
0.0
 10
58.325229
 20
1.407990
 30
0.0
  0
SPLINE
  5
216
100
AcDbEntity
  8
0
 62
7
100
AcDbSpline
 70
8
 71
3
 72
8
 73
4
 74
0
 40
0
 40
0
 40
0
 40
0
 40
1
 40
1
 40
1
 40
1
 10
58.325229
 20
1.407990
 30
0.0
 10
58.235229
 20
0.917990
 30
0.0
 10
58.075229
 20
0.457990
 30
0.0
 10
57.915229
 20
-0.002010
 30
0.0
  0
SPLINE
  5
217
100
AcDbEntity
  8
0
 62
7
100
AcDbSpline
 70
8
 71
3
 72
8
 73
4
 74
0
 40
0
 40
0
 40
0
 40
0
 40
1
 40
1
 40
1
 40
1
 10
57.915229
 20
-0.002010
 30
0.0
 10
57.725229
 20
-0.552010
 30
0.0
 10
57.525229
 20
-1.122010
 30
0.0
 10
57.455229
 20
-1.722010
 30
0.0
  0
LWPOLYLINE
  5
218
100
AcDbEntity
  8
0
 62
7
100
AcDbPolyline
 90
3
 70
0
 10
56.755229
 20
0.197990
 30
0.0
 10
56.945229
 20
-0.542010
 30
0.0
 10
57.235229
 20
-0.352010
 30
0.0
  0
SPLINE
  5
219
100
AcDbEntity
  8
0
 62
7
100
AcDbSpline
 70
8
 71
3
 72
8
 73
4
 74
0
 40
0
 40
0
 40
0
 40
0
 40
1
 40
1
 40
1
 40
1
 10
57.465229
 20
-1.792010
 30
0.0
 10
57.665229
 20
-2.982010
 30
0.0
 10
58.185229
 20
-3.722010
 30
0.0
 10
59.105229
 20
-4.102010
 30
0.0
  0
LWPOLYLINE
  5
21a
100
AcDbEntity
  8
0
 62
7
100
AcDbPolyline
 90
3
 70
0
 10
57.455229
 20
-1.722010
 30
0.0
 10
57.455229
 20
-1.762010
 30
0.0
 10
57.465229
 20
-1.792010
 30
0.0
  0
SPLINE
  5
21b
100
AcDbEntity
  8
0
 62
7
100
AcDbSpline
 70
8
 71
3
 72
8
 73
4
 74
0
 40
0
 40
0
 40
0
 40
0
 40
1
 40
1
 40
1
 40
1
 10
62.705229
 20
-0.382010
 30
0.0
 10
62.115229
 20
-1.412010
 30
0.0
 10
61.515229
 20
-2.432010
 30
0.0
 10
60.925229
 20
-3.462010
 30
0.0
  0
SPLINE
  5
21c
100
AcDbEntity
  8
0
 62
7
100
AcDbSpline
 70
8
 71
3
 72
8
 73
4
 74
0
 40
0
 40
0
 40
0
 40
0
 40
1
 40
1
 40
1
 40
1
 10
60.925229
 20
-3.462010
 30
0.0
 10
60.785229
 20
-3.722010
 30
0.0
 10
60.665229
 20
-3.992010
 30
0.0
 10
60.555229
 20
-4.252010
 30
0.0
  0
SPLINE
  5
21d
100
AcDbEntity
  8
0
 62
7
100
AcDbSpline
 70
8
 71
3
 72
8
 73
4
 74
0
 40
0
 40
0
 40
0
 40
0
 40
1
 40
1
 40
1
 40
1
 10
60.555229
 20
-4.252010
 30
0.0
 10
60.505229
 20
-4.372010
 30
0.0
 10
60.455229
 20
-4.482010
 30
0.0
 10
60.405229
 20
-4.602010
 30
0.0
  0
LWPOLYLINE
  5
21e
100
AcDbEntity
  8
0
 62
7
100
AcDbPolyline
 90
4
 70
0
 10
59.105229
 20
-4.102010
 30
0.0
 10
59.275229
 20
-4.172010
 30
0.0
 10
63.125229
 20
0.347990
 30
0.0
 10
62.705229
 20
-0.382010
 30
0.0
  0
SPLINE
  5
21f
100
AcDbEntity
  8
0
 62
7
100
AcDbSpline
 70
8
 71
3
 72
8
 73
4
 74
0
 40
0
 40
0
 40
0
 40
0
 40
1
 40
1
 40
1
 40
1
 10
60.465229
 20
-4.892010
 30
0.0
 10
61.195229
 20
-5.532010
 30
0.0
 10
62.085229
 20
-5.882010
 30
0.0
 10
62.865229
 20
-6.192010
 30
0.0
  0
LWPOLYLINE
  5
220
100
AcDbEntity
  8
0
 62
7
100
AcDbPolyline
 90
3
 70
0
 10
60.405229
 20
-4.602010
 30
0.0
 10
60.325229
 20
-4.772010
 30
0.0
 10
60.465229
 20
-4.892010
 30
0.0
  0
SPLINE
  5
221
100
AcDbEntity
  8
0
 62
7
100
AcDbSpline
 70
8
 71
3
 72
8
 73
4
 74
0
 40
0
 40
0
 40
0
 40
0
 40
1
 40
1
 40
1
 40
1
 10
63.065229
 20
-6.182010
 30
0.0
 10
63.595229
 20
-5.922010
 30
0.0
 10
64.025229
 20
-5.522010
 30
0.0
 10
64.435229
 20
-5.132010
 30
0.0
  0
SPLINE
  5
222
100
AcDbEntity
  8
0
 62
7
100
AcDbSpline
 70
8
 71
3
 72
8
 73
4
 74
0
 40
0
 40
0
 40
0
 40
0
 40
1
 40
1
 40
1
 40
1
 10
64.435229
 20
-5.132010
 30
0.0
 10
64.755229
 20
-4.832010
 30
0.0
 10
65.075229
 20
-4.532010
 30
0.0
 10
65.455229
 20
-4.282010
 30
0.0
  0
SPLINE
  5
223
100
AcDbEntity
  8
0
 62
7
100
AcDbSpline
 70
8
 71
3
 72
8
 73
4
 74
0
 40
0
 40
0
 40
0
 40
0
 40
1
 40
1
 40
1
 40
1
 10
65.455229
 20
-4.282010
 30
0.0
 10
65.225229
 20
-4.742010
 30
0.0
 10
64.905229
 20
-5.132010
 30
0.0
 10
64.595229
 20
-5.512010
 30
0.0
  0
SPLINE
  5
224
100
AcDbEntity
  8
0
 62
7
100
AcDbSpline
 70
8
 71
3
 72
8
 73
4
 74
0
 40
0
 40
0
 40
0
 40
0
 40
1
 40
1
 40
1
 40
1
 10
64.595229
 20
-5.512010
 30
0.0
 10
64.305229
 20
-5.862010
 30
0.0
 10
64.005229
 20
-6.222010
 30
0.0
 10
63.785229
 20
-6.632010
 30
0.0
  0
LWPOLYLINE
  5
225
100
AcDbEntity
  8
0
 62
7
100
AcDbPolyline
 90
3
 70
0
 10
62.865229
 20
-6.192010
 30
0.0
 10
62.965229
 20
-6.232010
 30
0.0
 10
63.065229
 20
-6.182010
 30
0.0
  0
SPLINE
  5
226
100
AcDbEntity
  8
0
 62
7
100
AcDbSpline
 70
8
 71
3
 72
8
 73
4
 74
0
 40
0
 40
0
 40
0
 40
0
 40
1
 40
1
 40
1
 40
1
 10
64.295229
 20
-7.582010
 30
0.0
 10
64.775229
 20
-7.892010
 30
0.0
 10
65.145229
 20
-8.332010
 30
0.0
 10
65.525229
 20
-8.792010
 30
0.0
  0
SPLINE
  5
227
100
AcDbEntity
  8
0
 62
7
100
AcDbSpline
 70
8
 71
3
 72
8
 73
4
 74
0
 40
0
 40
0
 40
0
 40
0
 40
1
 40
1
 40
1
 40
1
 10
65.525229
 20
-8.792010
 30
0.0
 10
65.655229
 20
-8.942010
 30
0.0
 10
65.785229
 20
-9.102010
 30
0.0
 10
65.915229
 20
-9.252010
 30
0.0
  0
LWPOLYLINE
  5
228
100
AcDbEntity
  8
0
 62
7
100
AcDbPolyline
 90
4
 70
0
 10
63.785229
 20
-6.632010
 30
0.0
 10
63.715229
 20
-6.762010
 30
0.0
 10
64.235229
 20
-7.522010
 30
0.0
 10
64.295229
 20
-7.582010
 30
0.0
  0
SPLINE
  5
229
100
AcDbEntity
  8
0
 62
7
100
AcDbSpline
 70
8
 71
3
 72
8
 73
4
 74
0
 40
0
 40
0
 40
0
 40
0
 40
1
 40
1
 40
1
 40
1
 10
66.185229
 20
-9.322010
 30
0.0
 10
66.975229
 20
-9.062010
 30
0.0
 10
67.635229
 20
-8.592010
 30
0.0
 10
68.285229
 20
-8.152010
 30
0.0
  0
SPLINE
  5
22a
100
AcDbEntity
  8
0
 62
7
100
AcDbSpline
 70
8
 71
3
 72
8
 73
4
 74
0
 40
0
 40
0
 40
0
 40
0
 40
1
 40
1
 40
1
 40
1
 10
68.285229
 20
-8.152010
 30
0.0
 10
68.675229
 20
-7.882010
 30
0.0
 10
69.085229
 20
-7.592010
 30
0.0
 10
69.505229
 20
-7.372010
 30
0.0
  0
SPLINE
  5
22b
100
AcDbEntity
  8
0
 62
7
100
AcDbSpline
 70
8
 71
3
 72
8
 73
4
 74
0
 40
0
 40
0
 40
0
 40
0
 40
1
 40
1
 40
1
 40
1
 10
69.505229
 20
-7.372010
 30
0.0
 10
69.585229
 20
-7.322010
 30
0.0
 10
69.675229
 20
-7.272010
 30
0.0
 10
69.755229
 20
-7.212010
 30
0.0
  0
SPLINE
  5
22c
100
AcDbEntity
  8
0
 62
7
100
AcDbSpline
 70
8
 71
3
 72
8
 73
4
 74
0
 40
0
 40
0
 40
0
 40
0
 40
1
 40
1
 40
1
 40
1
 10
69.755229
 20
-7.212010
 30
0.0
 10
69.875229
 20
-7.122010
 30
0.0
 10
69.975229
 20
-7.062010
 30
0.0
 10
70.075229
 20
-7.032010
 30
0.0
  0
SPLINE
  5
22d
100
AcDbEntity
  8
0
 62
7
100
AcDbSpline
 70
8
 71
3
 72
8
 73
4
 74
0
 40
0
 40
0
 40
0
 40
0
 40
1
 40
1
 40
1
 40
1
 10
70.075229
 20
-7.032010
 30
0.0
 10
69.445229
 20
-8.122010
 30
0.0
 10
68.595229
 20
-9.042010
 30
0.0
 10
67.775229
 20
-9.942010
 30
0.0
  0
SPLINE
  5
22e
100
AcDbEntity
  8
0
 62
7
100
AcDbSpline
 70
8
 71
3
 72
8
 73
4
 74
0
 40
0
 40
0
 40
0
 40
0
 40
1
 40
1
 40
1
 40
1
 10
67.775229
 20
-9.942010
 30
0.0
 10
67.575229
 20
-10.152010
 30
0.0
 10
67.385229
 20
-10.372010
 30
0.0
 10
67.185229
 20
-10.582010
 30
0.0
  0
LWPOLYLINE
  5
22f
100
AcDbEntity
  8
0
 62
7
100
AcDbPolyline
 90
3
 70
0
 10
65.915229
 20
-9.252010
 30
0.0
 10
66.025229
 20
-9.372010
 30
0.0
 10
66.185229
 20
-9.322010
 30
0.0
  0
SPLINE
  5
230
100
AcDbEntity
  8
0
 62
7
100
AcDbSpline
 70
8
 71
3
 72
8
 73
4
 74
0
 40
0
 40
0
 40
0
 40
0
 40
1
 40
1
 40
1
 40
1
 10
67.125229
 20
-10.712010
 30
0.0
 10
67.075229
 20
-11.072010
 30
0.0
 10
67.225229
 20
-11.352010
 30
0.0
 10
67.365229
 20
-11.602010
 30
0.0
  0
SPLINE
  5
231
100
AcDbEntity
  8
0
 62
7
100
AcDbSpline
 70
8
 71
3
 72
8
 73
4
 74
0
 40
0
 40
0
 40
0
 40
0
 40
1
 40
1
 40
1
 40
1
 10
67.365229
 20
-11.602010
 30
0.0
 10
67.475229
 20
-11.802010
 30
0.0
 10
67.575229
 20
-11.972010
 30
0.0
 10
67.555229
 20
-12.152010
 30
0.0
  0
LWPOLYLINE
  5
232
100
AcDbEntity
  8
0
 62
7
100
AcDbPolyline
 90
3
 70
0
 10
67.185229
 20
-10.582010
 30
0.0
 10
67.135229
 20
-10.642010
 30
0.0
 10
67.125229
 20
-10.712010
 30
0.0
  0
SPLINE
  5
233
100
AcDbEntity
  8
0
 62
7
100
AcDbSpline
 70
8
 71
3
 72
8
 73
4
 74
0
 40
0
 40
0
 40
0
 40
0
 40
1
 40
1
 40
1
 40
1
 10
67.815229
 20
-12.522010
 30
0.0
 10
67.905229
 20
-12.642010
 30
0.0
 10
67.955229
 20
-12.812010
 30
0.0
 10
67.965229
 20
-13.032010
 30
0.0
  0
LWPOLYLINE
  5
234
100
AcDbEntity
  8
0
 62
7
100
AcDbPolyline
 90
4
 70
0
 10
67.555229
 20
-12.152010
 30
0.0
 10
67.775229
 20
-12.172010
 30
0.0
 10
67.635229
 20
-12.352010
 30
0.0
 10
67.815229
 20
-12.522010
 30
0.0
  0
SPLINE
  5
235
100
AcDbEntity
  8
0
 62
7
100
AcDbSpline
 70
8
 71
3
 72
8
 73
4
 74
0
 40
0
 40
0
 40
0
 40
0
 40
1
 40
1
 40
1
 40
1
 10
68.015229
 20
-13.172010
 30
0.0
 10
68.305229
 20
-13.542010
 30
0.0
 10
68.435229
 20
-13.992010
 30
0.0
 10
68.565229
 20
-14.472010
 30
0.0
  0
SPLINE
  5
236
100
AcDbEntity
  8
0
 62
7
100
AcDbSpline
 70
8
 71
3
 72
8
 73
4
 74
0
 40
0
 40
0
 40
0
 40
0
 40
1
 40
1
 40
1
 40
1
 10
68.565229
 20
-14.472010
 30
0.0
 10
68.705229
 20
-14.952010
 30
0.0
 10
68.845229
 20
-15.442010
 30
0.0
 10
69.155229
 20
-15.872010
 30
0.0
  0
LWPOLYLINE
  5
237
100
AcDbEntity
  8
0
 62
7
100
AcDbPolyline
 90
3
 70
0
 10
67.965229
 20
-13.032010
 30
0.0
 10
67.965229
 20
-13.112010
 30
0.0
 10
68.015229
 20
-13.172010
 30
0.0
  0
SPLINE
  5
238
100
AcDbEntity
  8
0
 62
7
100
AcDbSpline
 70
8
 71
3
 72
8
 73
4
 74
0
 40
0
 40
0
 40
0
 40
0
 40
1
 40
1
 40
1
 40
1
 10
70.205229
 20
-21.582010
 30
0.0
 10
70.775229
 20
-21.792010
 30
0.0
 10
71.235229
 20
-21.572010
 30
0.0
 10
71.645229
 20
-21.382010
 30
0.0
  0
SPLINE
  5
239
100
AcDbEntity
  8
0
 62
7
100
AcDbSpline
 70
8
 71
3
 72
8
 73
4
 74
0
 40
0
 40
0
 40
0
 40
0
 40
1
 40
1
 40
1
 40
1
 10
71.645229
 20
-21.382010
 30
0.0
 10
71.835229
 20
-21.292010
 30
0.0
 10
72.015229
 20
-21.212010
 30
0.0
 10
72.195229
 20
-21.172010
 30
0.0
  0
SPLINE
  5
23a
100
AcDbEntity
  8
0
 62
7
100
AcDbSpline
 70
8
 71
3
 72
8
 73
4
 74
0
 40
0
 40
0
 40
0
 40
0
 40
1
 40
1
 40
1
 40
1
 10
72.195229
 20
-21.172010
 30
0.0
 10
72.355229
 20
-21.132010
 30
0.0
 10
72.515229
 20
-21.072010
 30
0.0
 10
72.685229
 20
-21.012010
 30
0.0
  0
SPLINE
  5
23b
100
AcDbEntity
  8
0
 62
7
100
AcDbSpline
 70
8
 71
3
 72
8
 73
4
 74
0
 40
0
 40
0
 40
0
 40
0
 40
1
 40
1
 40
1
 40
1
 10
72.685229
 20
-21.012010
 30
0.0
 10
72.915228
 20
-20.922010
 30
0.0
 10
73.135228
 20
-20.832010
 30
0.0
 10
73.365228
 20
-20.822010
 30
0.0
  0
LWPOLYLINE
  5
23c
100
AcDbEntity
  8
0
 62
7
100
AcDbPolyline
 90
6
 70
0
 10
69.155229
 20
-15.872010
 30
0.0
 10
69.275229
 20
-16.032010
 30
0.0
 10
72.235229
 20
-14.762010
 30
0.0
 10
69.385229
 20
-17.402010
 30
0.0
 10
70.075229
 20
-21.532010
 30
0.0
 10
70.205229
 20
-21.582010
 30
0.0
  0
SPLINE
  5
23d
100
AcDbEntity
  8
0
 62
7
100
AcDbSpline
 70
8
 71
3
 72
8
 73
4
 74
0
 40
0
 40
0
 40
0
 40
0
 40
1
 40
1
 40
1
 40
1
 10
70.485229
 20
-23.342010
 30
0.0
 10
70.565229
 20
-23.772010
 30
0.0
 10
70.625229
 20
-24.232010
 30
0.0
 10
70.675229
 20
-24.672009
 30
0.0
  0
SPLINE
  5
23e
100
AcDbEntity
  8
0
 62
7
100
AcDbSpline
 70
8
 71
3
 72
8
 73
4
 74
0
 40
0
 40
0
 40
0
 40
0
 40
1
 40
1
 40
1
 40
1
 10
70.675229
 20
-24.672009
 30
0.0
 10
70.775229
 20
-25.572009
 30
0.0
 10
70.885229
 20
-26.512009
 30
0.0
 10
71.275229
 20
-27.392009
 30
0.0
  0
LWPOLYLINE
  5
23f
100
AcDbEntity
  8
0
 62
7
100
AcDbPolyline
 90
3
 70
0
 10
73.365228
 20
-20.822010
 30
0.0
 10
70.455229
 20
-23.192010
 30
0.0
 10
70.485229
 20
-23.342010
 30
0.0
  0
SPLINE
  5
240
100
AcDbEntity
  8
0
 62
7
100
AcDbSpline
 70
8
 71
3
 72
8
 73
4
 74
0
 40
0
 40
0
 40
0
 40
0
 40
1
 40
1
 40
1
 40
1
 10
71.525229
 20
-27.542009
 30
0.0
 10
72.295229
 20
-27.462009
 30
0.0
 10
73.025228
 20
-27.232009
 30
0.0
 10
73.735228
 20
-27.002009
 30
0.0
  0
SPLINE
  5
241
100
AcDbEntity
  8
0
 62
7
100
AcDbSpline
 70
8
 71
3
 72
8
 73
4
 74
0
 40
0
 40
0
 40
0
 40
0
 40
1
 40
1
 40
1
 40
1
 10
73.735228
 20
-27.002009
 30
0.0
 10
74.075228
 20
-26.892009
 30
0.0
 10
74.415228
 20
-26.782009
 30
0.0
 10
74.755228
 20
-26.692009
 30
0.0
  0
SPLINE
  5
242
100
AcDbEntity
  8
0
 62
7
100
AcDbSpline
 70
8
 71
3
 72
8
 73
4
 74
0
 40
0
 40
0
 40
0
 40
0
 40
1
 40
1
 40
1
 40
1
 10
74.755228
 20
-26.692009
 30
0.0
 10
74.825228
 20
-26.672009
 30
0.0
 10
74.885228
 20
-26.652009
 30
0.0
 10
74.955228
 20
-26.632009
 30
0.0
  0
SPLINE
  5
243
100
AcDbEntity
  8
0
 62
7
100
AcDbSpline
 70
8
 71
3
 72
8
 73
4
 74
0
 40
0
 40
0
 40
0
 40
0
 40
1
 40
1
 40
1
 40
1
 10
74.955228
 20
-26.632009
 30
0.0
 10
75.135228
 20
-26.572009
 30
0.0
 10
75.305228
 20
-26.522009
 30
0.0
 10
75.485228
 20
-26.522009
 30
0.0
  0
LWPOLYLINE
  5
244
100
AcDbEntity
  8
0
 62
7
100
AcDbPolyline
 90
3
 70
0
 10
71.275229
 20
-27.392009
 30
0.0
 10
71.345229
 20
-27.562009
 30
0.0
 10
71.525229
 20
-27.542009
 30
0.0
  0
SPLINE
  5
245
100
AcDbEntity
  8
0
 62
7
100
AcDbSpline
 70
8
 71
3
 72
8
 73
4
 74
0
 40
0
 40
0
 40
0
 40
0
 40
1
 40
1
 40
1
 40
1
 10
74.975228
 20
-26.782009
 30
0.0
 10
74.015228
 20
-27.282009
 30
0.0
 10
73.115228
 20
-27.752009
 30
0.0
 10
72.185229
 20
-28.202009
 30
0.0
  0
SPLINE
  5
246
100
AcDbEntity
  8
0
 62
7
100
AcDbSpline
 70
8
 71
3
 72
8
 73
4
 74
0
 40
0
 40
0
 40
0
 40
0
 40
1
 40
1
 40
1
 40
1
 10
72.185229
 20
-28.202009
 30
0.0
 10
71.805229
 20
-28.392009
 30
0.0
 10
71.435229
 20
-28.632009
 30
0.0
 10
71.305229
 20
-29.142009
 30
0.0
  0
LWPOLYLINE
  5
247
100
AcDbEntity
  8
0
 62
7
100
AcDbPolyline
 90
2
 70
0
 10
75.485228
 20
-26.522009
 30
0.0
 10
74.975228
 20
-26.782009
 30
0.0
  0
SPLINE
  5
248
100
AcDbEntity
  8
0
 62
7
100
AcDbSpline
 70
8
 71
3
 72
8
 73
4
 74
0
 40
0
 40
0
 40
0
 40
0
 40
1
 40
1
 40
1
 40
1
 10
71.315229
 20
-29.302009
 30
0.0
 10
71.515229
 20
-29.782009
 30
0.0
 10
71.565229
 20
-30.292009
 30
0.0
 10
71.615229
 20
-30.842009
 30
0.0
  0
SPLINE
  5
249
100
AcDbEntity
  8
0
 62
7
100
AcDbSpline
 70
8
 71
3
 72
8
 73
4
 74
0
 40
0
 40
0
 40
0
 40
0
 40
1
 40
1
 40
1
 40
1
 10
71.615229
 20
-30.842009
 30
0.0
 10
71.665229
 20
-31.372009
 30
0.0
 10
71.715229
 20
-31.922009
 30
0.0
 10
71.925229
 20
-32.452009
 30
0.0
  0
LWPOLYLINE
  5
24a
100
AcDbEntity
  8
0
 62
7
100
AcDbPolyline
 90
3
 70
0
 10
71.305229
 20
-29.142009
 30
0.0
 10
71.285229
 20
-29.222009
 30
0.0
 10
71.315229
 20
-29.302009
 30
0.0
  0
SPLINE
  5
24b
100
AcDbEntity
  8
0
 62
7
100
AcDbSpline
 70
8
 71
3
 72
8
 73
4
 74
0
 40
0
 40
0
 40
0
 40
0
 40
1
 40
1
 40
1
 40
1
 10
72.165229
 20
-32.612009
 30
0.0
 10
72.915228
 20
-32.582009
 30
0.0
 10
73.665228
 20
-32.482009
 30
0.0
 10
74.385228
 20
-32.382009
 30
0.0
  0
SPLINE
  5
24c
100
AcDbEntity
  8
0
 62
7
100
AcDbSpline
 70
8
 71
3
 72
8
 73
4
 74
0
 40
0
 40
0
 40
0
 40
0
 40
1
 40
1
 40
1
 40
1
 10
74.385228
 20
-32.382009
 30
0.0
 10
75.195228
 20
-32.272009
 30
0.0
 10
76.015228
 20
-32.172009
 30
0.0
 10
76.845228
 20
-32.152009
 30
0.0
  0
SPLINE
  5
24d
100
AcDbEntity
  8
0
 62
7
100
AcDbSpline
 70
8
 71
3
 72
8
 73
4
 74
0
 40
0
 40
0
 40
0
 40
0
 40
1
 40
1
 40
1
 40
1
 10
76.845228
 20
-32.152009
 30
0.0
 10
76.025228
 20
-32.492009
 30
0.0
 10
75.185228
 20
-32.772009
 30
0.0
 10
74.355228
 20
-33.042009
 30
0.0
  0
SPLINE
  5
24e
100
AcDbEntity
  8
0
 62
7
100
AcDbSpline
 70
8
 71
3
 72
8
 73
4
 74
0
 40
0
 40
0
 40
0
 40
0
 40
1
 40
1
 40
1
 40
1
 10
74.355228
 20
-33.042009
 30
0.0
 10
73.685228
 20
-33.262009
 30
0.0
 10
72.985228
 20
-33.492009
 30
0.0
 10
72.305229
 20
-33.752009
 30
0.0
  0
LWPOLYLINE
  5
24f
100
AcDbEntity
  8
0
 62
7
100
AcDbPolyline
 90
3
 70
0
 10
71.925229
 20
-32.452009
 30
0.0
 10
71.985229
 20
-32.622009
 30
0.0
 10
72.165229
 20
-32.612009
 30
0.0
  0
SPLINE
  5
250
100
AcDbEntity
  8
0
 62
7
100
AcDbSpline
 70
8
 71
3
 72
8
 73
4
 74
0
 40
0
 40
0
 40
0
 40
0
 40
1
 40
1
 40
1
 40
1
 10
72.145229
 20
-33.982009
 30
0.0
 10
72.135229
 20
-34.882009
 30
0.0
 10
72.295229
 20
-35.772009
 30
0.0
 10
72.445229
 20
-36.632009
 30
0.0
  0
LWPOLYLINE
  5
251
100
AcDbEntity
  8
0
 62
7
100
AcDbPolyline
 90
3
 70
0
 10
72.305229
 20
-33.752009
 30
0.0
 10
72.145229
 20
-33.812009
 30
0.0
 10
72.145229
 20
-33.982009
 30
0.0
  0
SPLINE
  5
252
100
AcDbEntity
  8
0
 62
7
100
AcDbSpline
 70
8
 71
3
 72
8
 73
4
 74
0
 40
0
 40
0
 40
0
 40
0
 40
1
 40
1
 40
1
 40
1
 10
74.215228
 20
-37.492009
 30
0.0
 10
75.795228
 20
-37.722009
 30
0.0
 10
77.375228
 20
-37.942009
 30
0.0
 10
78.955228
 20
-38.182009
 30
0.0
  0
SPLINE
  5
253
100
AcDbEntity
  8
0
 62
7
100
AcDbSpline
 70
8
 71
3
 72
8
 73
4
 74
0
 40
0
 40
0
 40
0
 40
0
 40
1
 40
1
 40
1
 40
1
 10
78.955228
 20
-38.182009
 30
0.0
 10
79.035228
 20
-38.192009
 30
0.0
 10
79.125228
 20
-38.192009
 30
0.0
 10
79.215228
 20
-38.202009
 30
0.0
  0
SPLINE
  5
254
100
AcDbEntity
  8
0
 62
7
100
AcDbSpline
 70
8
 71
3
 72
8
 73
4
 74
0
 40
0
 40
0
 40
0
 40
0
 40
1
 40
1
 40
1
 40
1
 10
79.215228
 20
-38.202009
 30
0.0
 10
79.545228
 20
-38.212009
 30
0.0
 10
79.565228
 20
-38.242009
 30
0.0
 10
79.585228
 20
-38.362009
 30
0.0
  0
SPLINE
  5
255
100
AcDbEntity
  8
0
 62
7
100
AcDbSpline
 70
8
 71
3
 72
8
 73
4
 74
0
 40
0
 40
0
 40
0
 40
0
 40
1
 40
1
 40
1
 40
1
 10
79.585228
 20
-38.362009
 30
0.0
 10
79.595228
 20
-38.442009
 30
0.0
 10
79.595228
 20
-38.462009
 30
0.0
 10
79.335228
 20
-38.552009
 30
0.0
  0
SPLINE
  5
256
100
AcDbEntity
  8
0
 62
7
100
AcDbSpline
 70
8
 71
3
 72
8
 73
4
 74
0
 40
0
 40
0
 40
0
 40
0
 40
1
 40
1
 40
1
 40
1
 10
79.335228
 20
-38.552009
 30
0.0
 10
79.245228
 20
-38.582009
 30
0.0
 10
79.145228
 20
-38.622009
 30
0.0
 10
79.065228
 20
-38.662009
 30
0.0
  0
SPLINE
  5
257
100
AcDbEntity
  8
0
 62
7
100
AcDbSpline
 70
8
 71
3
 72
8
 73
4
 74
0
 40
0
 40
0
 40
0
 40
0
 40
1
 40
1
 40
1
 40
1
 10
79.065228
 20
-38.662009
 30
0.0
 10
77.275228
 20
-39.662009
 30
0.0
 10
75.235228
 20
-39.942009
 30
0.0
 10
73.275228
 20
-40.222009
 30
0.0
  0
LWPOLYLINE
  5
258
100
AcDbEntity
  8
0
 62
7
100
AcDbPolyline
 90
3
 70
0
 10
72.445229
 20
-36.632009
 30
0.0
 10
72.535229
 20
-37.252009
 30
0.0
 10
74.215228
 20
-37.492009
 30
0.0
  0
SPLINE
  5
259
100
AcDbEntity
  8
0
 62
7
100
AcDbSpline
 70
8
 71
3
 72
8
 73
4
 74
0
 40
0
 40
0
 40
0
 40
0
 40
1
 40
1
 40
1
 40
1
 10
72.295229
 20
-40.492009
 30
0.0
 10
71.855229
 20
-41.672009
 30
0.0
 10
71.745229
 20
-42.892009
 30
0.0
 10
71.695229
 20
-43.922009
 30
0.0
  0
LWPOLYLINE
  5
25a
100
AcDbEntity
  8
0
 62
7
100
AcDbPolyline
 90
3
 70
0
 10
73.275228
 20
-40.222009
 30
0.0
 10
72.345229
 20
-40.352009
 30
0.0
 10
72.295229
 20
-40.492009
 30
0.0
  0
SPLINE
  5
25b
100
AcDbEntity
  8
0
 62
7
100
AcDbSpline
 70
8
 71
3
 72
8
 73
4
 74
0
 40
0
 40
0
 40
0
 40
0
 40
1
 40
1
 40
1
 40
1
 10
71.855229
 20
-44.162009
 30
0.0
 10
73.535228
 20
-44.802009
 30
0.0
 10
75.275228
 20
-45.302009
 30
0.0
 10
76.965228
 20
-45.792009
 30
0.0
  0
LWPOLYLINE
  5
25c
100
AcDbEntity
  8
0
 62
7
100
AcDbPolyline
 90
3
 70
0
 10
71.695229
 20
-43.922009
 30
0.0
 10
71.685229
 20
-44.102009
 30
0.0
 10
71.855229
 20
-44.162009
 30
0.0
  0
SPLINE
  5
25d
100
AcDbEntity
  8
0
 62
7
100
AcDbSpline
 70
8
 71
3
 72
8
 73
4
 74
0
 40
0
 40
0
 40
0
 40
0
 40
1
 40
1
 40
1
 40
1
 10
77.885228
 20
-46.052009
 30
0.0
 10
77.955228
 20
-46.072009
 30
0.0
 10
78.025228
 20
-46.082009
 30
0.0
 10
78.105228
 20
-46.092009
 30
0.0
  0
SPLINE
  5
25e
100
AcDbEntity
  8
0
 62
7
100
AcDbSpline
 70
8
 71
3
 72
8
 73
4
 74
0
 40
0
 40
0
 40
0
 40
0
 40
1
 40
1
 40
1
 40
1
 10
78.105228
 20
-46.092009
 30
0.0
 10
78.175228
 20
-46.102009
 30
0.0
 10
78.305228
 20
-46.122009
 30
0.0
 10
78.325228
 20
-46.142009
 30
0.0
  0
LWPOLYLINE
  5
25f
100
AcDbEntity
  8
0
 62
7
100
AcDbPolyline
 90
2
 70
0
 10
76.965228
 20
-45.792009
 30
0.0
 10
77.885228
 20
-46.052009
 30
0.0
  0
SPLINE
  5
260
100
AcDbEntity
  8
0
 62
7
100
AcDbSpline
 70
8
 71
3
 72
8
 73
4
 74
0
 40
0
 40
0
 40
0
 40
0
 40
1
 40
1
 40
1
 40
1
 10
78.335228
 20
-46.232009
 30
0.0
 10
78.305228
 20
-46.242009
 30
0.0
 10
78.205228
 20
-46.242009
 30
0.0
 10
78.145228
 20
-46.232009
 30
0.0
  0
SPLINE
  5
261
100
AcDbEntity
  8
0
 62
7
100
AcDbSpline
 70
8
 71
3
 72
8
 73
4
 74
0
 40
0
 40
0
 40
0
 40
0
 40
1
 40
1
 40
1
 40
1
 10
78.145228
 20
-46.232009
 30
0.0
 10
78.055228
 20
-46.222009
 30
0.0
 10
77.965228
 20
-46.222009
 30
0.0
 10
77.875228
 20
-46.232009
 30
0.0
  0
SPLINE
  5
262
100
AcDbEntity
  8
0
 62
7
100
AcDbSpline
 70
8
 71
3
 72
8
 73
4
 74
0
 40
0
 40
0
 40
0
 40
0
 40
1
 40
1
 40
1
 40
1
 10
77.875228
 20
-46.232009
 30
0.0
 10
76.215228
 20
-46.492009
 30
0.0
 10
74.565228
 20
-46.742009
 30
0.0
 10
72.905228
 20
-46.992009
 30
0.0
  0
LWPOLYLINE
  5
263
100
AcDbEntity
  8
0
 62
7
100
AcDbPolyline
 90
4
 70
0
 10
78.325228
 20
-46.142009
 30
0.0
 10
78.535228
 20
-46.042009
 30
0.0
 10
78.535228
 20
-46.042009
 30
0.0
 10
78.335228
 20
-46.232009
 30
0.0
  0
SPLINE
  5
264
100
AcDbEntity
  8
0
 62
7
100
AcDbSpline
 70
8
 71
3
 72
8
 73
4
 74
0
 40
0
 40
0
 40
0
 40
0
 40
1
 40
1
 40
1
 40
1
 10
71.255229
 20
-47.342009
 30
0.0
 10
70.795229
 20
-48.182009
 30
0.0
 10
70.795229
 20
-49.072009
 30
0.0
 10
70.835229
 20
-49.972009
 30
0.0
  0
LWPOLYLINE
  5
265
100
AcDbEntity
  8
0
 62
7
100
AcDbPolyline
 90
3
 70
0
 10
72.905228
 20
-46.992009
 30
0.0
 10
71.315229
 20
-47.232009
 30
0.0
 10
71.255229
 20
-47.342009
 30
0.0
  0
SPLINE
  5
266
100
AcDbEntity
  8
0
 62
7
100
AcDbSpline
 70
8
 71
3
 72
8
 73
4
 74
0
 40
0
 40
0
 40
0
 40
0
 40
1
 40
1
 40
1
 40
1
 10
78.315228
 20
-53.202009
 30
0.0
 10
76.465228
 20
-53.492009
 30
0.0
 10
74.585228
 20
-53.492009
 30
0.0
 10
72.775229
 20
-53.492009
 30
0.0
  0
SPLINE
  5
267
100
AcDbEntity
  8
0
 62
7
100
AcDbSpline
 70
8
 71
3
 72
8
 73
4
 74
0
 40
0
 40
0
 40
0
 40
0
 40
1
 40
1
 40
1
 40
1
 10
72.775229
 20
-53.492009
 30
0.0
 10
71.995229
 20
-53.492009
 30
0.0
 10
71.225229
 20
-53.492009
 30
0.0
 10
70.445229
 20
-53.512009
 30
0.0
  0
LWPOLYLINE
  5
268
100
AcDbEntity
  8
0
 62
7
100
AcDbPolyline
 90
3
 70
0
 10
70.835229
 20
-49.972009
 30
0.0
 10
70.845229
 20
-50.132009
 30
0.0
 10
78.315228
 20
-53.202009
 30
0.0
  0
SPLINE
  5
269
100
AcDbEntity
  8
0
 62
7
100
AcDbSpline
 70
8
 71
3
 72
8
 73
4
 74
0
 40
0
 40
0
 40
0
 40
0
 40
1
 40
1
 40
1
 40
1
 10
70.205229
 20
-53.732009
 30
0.0
 10
70.185229
 20
-53.902009
 30
0.0
 10
70.115229
 20
-54.072009
 30
0.0
 10
70.035229
 20
-54.262009
 30
0.0
  0
SPLINE
  5
26a
100
AcDbEntity
  8
0
 62
7
100
AcDbSpline
 70
8
 71
3
 72
8
 73
4
 74
0
 40
0
 40
0
 40
0
 40
0
 40
1
 40
1
 40
1
 40
1
 10
70.035229
 20
-54.262009
 30
0.0
 10
69.865229
 20
-54.672009
 30
0.0
 10
69.655229
 20
-55.182009
 30
0.0
 10
70.035229
 20
-55.742009
 30
0.0
  0
LWPOLYLINE
  5
26b
100
AcDbEntity
  8
0
 62
7
100
AcDbPolyline
 90
3
 70
0
 10
70.445229
 20
-53.512009
 30
0.0
 10
70.235229
 20
-53.522009
 30
0.0
 10
70.205229
 20
-53.732009
 30
0.0
  0
SPLINE
  5
26c
100
AcDbEntity
  8
0
 62
7
100
AcDbSpline
 70
8
 71
3
 72
8
 73
4
 74
0
 40
0
 40
0
 40
0
 40
0
 40
1
 40
1
 40
1
 40
1
 10
71.055229
 20
-56.212009
 30
0.0
 10
72.275229
 20
-56.722009
 30
0.0
 10
73.485228
 20
-57.242009
 30
0.0
 10
74.705228
 20
-57.752009
 30
0.0
  0
LWPOLYLINE
  5
26d
100
AcDbEntity
  8
0
 62
7
100
AcDbPolyline
 90
3
 70
0
 10
70.035229
 20
-55.742009
 30
0.0
 10
70.075229
 20
-55.802009
 30
0.0
 10
71.055229
 20
-56.212009
 30
0.0
  0
SPLINE
  5
26e
100
AcDbEntity
  8
0
 62
7
100
AcDbSpline
 70
8
 71
3
 72
8
 73
4
 74
0
 40
0
 40
0
 40
0
 40
0
 40
1
 40
1
 40
1
 40
1
 10
74.885228
 20
-57.812009
 30
0.0
 10
74.925228
 20
-57.822009
 30
0.0
 10
74.995228
 20
-57.842009
 30
0.0
 10
75.005228
 20
-57.822009
 30
0.0
  0
LWPOLYLINE
  5
26f
100
AcDbEntity
  8
0
 62
7
100
AcDbPolyline
 90
2
 70
0
 10
74.705228
 20
-57.752009
 30
0.0
 10
74.885228
 20
-57.812009
 30
0.0
  0
SPLINE
  5
270
100
AcDbEntity
  8
0
 62
7
100
AcDbSpline
 70
8
 71
3
 72
8
 73
4
 74
0
 40
0
 40
0
 40
0
 40
0
 40
1
 40
1
 40
1
 40
1
 10
74.995228
 20
-57.902009
 30
0.0
 10
74.945228
 20
-57.912009
 30
0.0
 10
74.855228
 20
-57.882009
 30
0.0
 10
74.795228
 20
-57.862009
 30
0.0
  0
LWPOLYLINE
  5
271
100
AcDbEntity
  8
0
 62
7
100
AcDbPolyline
 90
2
 70
0
 10
75.005228
 20
-57.822009
 30
0.0
 10
74.995228
 20
-57.902009
 30
0.0
  0
SPLINE
  5
272
100
AcDbEntity
  8
0
 62
7
100
AcDbSpline
 70
8
 71
3
 72
8
 73
4
 74
0
 40
0
 40
0
 40
0
 40
0
 40
1
 40
1
 40
1
 40
1
 10
74.695228
 20
-57.832009
 30
0.0
 10
73.265228
 20
-57.452009
 30
0.0
 10
71.715229
 20
-57.262009
 30
0.0
 10
69.835229
 20
-57.232009
 30
0.0
  0
LWPOLYLINE
  5
273
100
AcDbEntity
  8
0
 62
7
100
AcDbPolyline
 90
2
 70
0
 10
74.795228
 20
-57.862009
 30
0.0
 10
74.695228
 20
-57.832009
 30
0.0
  0
SPLINE
  5
274
100
AcDbEntity
  8
0
 62
7
100
AcDbSpline
 70
8
 71
3
 72
8
 73
4
 74
0
 40
0
 40
0
 40
0
 40
0
 40
1
 40
1
 40
1
 40
1
 10
69.585229
 20
-57.452009
 30
0.0
 10
69.545229
 20
-57.742009
 30
0.0
 10
69.475229
 20
-58.022009
 30
0.0
 10
69.415229
 20
-58.312009
 30
0.0
  0
SPLINE
  5
275
100
AcDbEntity
  8
0
 62
7
100
AcDbSpline
 70
8
 71
3
 72
8
 73
4
 74
0
 40
0
 40
0
 40
0
 40
0
 40
1
 40
1
 40
1
 40
1
 10
69.415229
 20
-58.312009
 30
0.0
 10
69.295229
 20
-58.882009
 30
0.0
 10
69.165229
 20
-59.472009
 30
0.0
 10
69.175229
 20
-60.082009
 30
0.0
  0
LWPOLYLINE
  5
276
100
AcDbEntity
  8
0
 62
7
100
AcDbPolyline
 90
3
 70
0
 10
69.835229
 20
-57.232009
 30
0.0
 10
69.615229
 20
-57.232009
 30
0.0
 10
69.585229
 20
-57.452009
 30
0.0
  0
SPLINE
  5
277
100
AcDbEntity
  8
0
 62
7
100
AcDbSpline
 70
8
 71
3
 72
8
 73
4
 74
0
 40
0
 40
0
 40
0
 40
0
 40
1
 40
1
 40
1
 40
1
 10
69.305229
 20
-60.302009
 30
0.0
 10
70.375229
 20
-60.872009
 30
0.0
 10
71.525229
 20
-61.252009
 30
0.0
 10
72.635229
 20
-61.622009
 30
0.0
  0
SPLINE
  5
278
100
AcDbEntity
  8
0
 62
7
100
AcDbSpline
 70
8
 71
3
 72
8
 73
4
 74
0
 40
0
 40
0
 40
0
 40
0
 40
1
 40
1
 40
1
 40
1
 10
72.635229
 20
-61.622009
 30
0.0
 10
73.195228
 20
-61.802009
 30
0.0
 10
73.775228
 20
-61.992009
 30
0.0
 10
74.355228
 20
-62.212009
 30
0.0
  0
LWPOLYLINE
  5
279
100
AcDbEntity
  8
0
 62
7
100
AcDbPolyline
 90
3
 70
0
 10
69.175229
 20
-60.082009
 30
0.0
 10
69.175229
 20
-60.232009
 30
0.0
 10
69.305229
 20
-60.302009
 30
0.0
  0
SPLINE
  5
27a
100
AcDbEntity
  8
0
 62
7
100
AcDbSpline
 70
8
 71
3
 72
8
 73
4
 74
0
 40
0
 40
0
 40
0
 40
0
 40
1
 40
1
 40
1
 40
1
 10
69.015229
 20
-61.942009
 30
0.0
 10
68.795229
 20
-62.152009
 30
0.0
 10
68.765229
 20
-62.412009
 30
0.0
 10
68.735229
 20
-62.622009
 30
0.0
  0
SPLINE
  5
27b
100
AcDbEntity
  8
0
 62
7
100
AcDbSpline
 70
8
 71
3
 72
8
 73
4
 74
0
 40
0
 40
0
 40
0
 40
0
 40
1
 40
1
 40
1
 40
1
 10
68.735229
 20
-62.622009
 30
0.0
 10
68.725229
 20
-62.712009
 30
0.0
 10
68.705229
 20
-62.812009
 30
0.0
 10
68.695229
 20
-62.862009
 30
0.0
  0
SPLINE
  5
27c
100
AcDbEntity
  8
0
 62
7
100
AcDbSpline
 70
8
 71
3
 72
8
 73
4
 74
0
 40
0
 40
0
 40
0
 40
0
 40
1
 40
1
 40
1
 40
1
 10
68.695229
 20
-62.862009
 30
0.0
 10
67.925229
 20
-64.422009
 30
0.0
 10
68.885229
 20
-65.322009
 30
0.0
 10
69.855229
 20
-66.042009
 30
0.0
  0
SPLINE
  5
27d
100
AcDbEntity
  8
0
 62
7
100
AcDbSpline
 70
8
 71
3
 72
8
 73
4
 74
0
 40
0
 40
0
 40
0
 40
0
 40
1
 40
1
 40
1
 40
1
 10
69.855229
 20
-66.042009
 30
0.0
 10
70.405229
 20
-66.452009
 30
0.0
 10
70.935229
 20
-66.942009
 30
0.0
 10
71.485229
 20
-67.562009
 30
0.0
  0
LWPOLYLINE
  5
27e
100
AcDbEntity
  8
0
 62
7
100
AcDbPolyline
 90
4
 70
0
 10
74.355228
 20
-62.212009
 30
0.0
 10
72.985228
 20
-62.182009
 30
0.0
 10
69.095229
 20
-61.862009
 30
0.0
 10
69.015229
 20
-61.942009
 30
0.0
  0
SPLINE
  5
27f
100
AcDbEntity
  8
0
 62
7
100
AcDbSpline
 70
8
 71
3
 72
8
 73
4
 74
0
 40
0
 40
0
 40
0
 40
0
 40
1
 40
1
 40
1
 40
1
 10
68.125229
 20
-66.522009
 30
0.0
 10
68.085229
 20
-68.402009
 30
0.0
 10
68.275229
 20
-70.302009
 30
0.0
 10
68.465229
 20
-72.132009
 30
0.0
  0
SPLINE
  5
280
100
AcDbEntity
  8
0
 62
7
100
AcDbSpline
 70
8
 71
3
 72
8
 73
4
 74
0
 40
0
 40
0
 40
0
 40
0
 40
1
 40
1
 40
1
 40
1
 10
68.465229
 20
-72.132009
 30
0.0
 10
68.535229
 20
-72.802008
 30
0.0
 10
68.605229
 20
-73.462008
 30
0.0
 10
68.665229
 20
-74.122008
 30
0.0
  0
SPLINE
  5
281
100
AcDbEntity
  8
0
 62
7
100
AcDbSpline
 70
8
 71
3
 72
8
 73
4
 74
0
 40
0
 40
0
 40
0
 40
0
 40
1
 40
1
 40
1
 40
1
 10
68.665229
 20
-74.122008
 30
0.0
 10
68.695229
 20
-74.422008
 30
0.0
 10
68.695229
 20
-74.732008
 30
0.0
 10
68.695229
 20
-75.042008
 30
0.0
  0
SPLINE
  5
282
100
AcDbEntity
  8
0
 62
7
100
AcDbSpline
 70
8
 71
3
 72
8
 73
4
 74
0
 40
0
 40
0
 40
0
 40
0
 40
1
 40
1
 40
1
 40
1
 10
68.695229
 20
-75.042008
 30
0.0
 10
68.705229
 20
-75.882008
 30
0.0
 10
68.715229
 20
-76.762008
 30
0.0
 10
69.175229
 20
-77.572008
 30
0.0
  0
LWPOLYLINE
  5
283
100
AcDbEntity
  8
0
 62
7
100
AcDbPolyline
 90
3
 70
0
 10
71.485229
 20
-67.562009
 30
0.0
 10
68.135229
 20
-66.152009
 30
0.0
 10
68.125229
 20
-66.522009
 30
0.0
  0
SPLINE
  5
284
100
AcDbEntity
  8
0
 62
7
100
AcDbSpline
 70
8
 71
3
 72
8
 73
4
 74
0
 40
0
 40
0
 40
0
 40
0
 40
1
 40
1
 40
1
 40
1
 10
69.555229
 20
-77.632008
 30
0.0
 10
71.595229
 20
-75.802008
 30
0.0
 10
72.885228
 20
-73.462008
 30
0.0
 10
73.975228
 20
-71.202009
 30
0.0
  0
SPLINE
  5
285
100
AcDbEntity
  8
0
 62
7
100
AcDbSpline
 70
8
 71
3
 72
8
 73
4
 74
0
 40
0
 40
0
 40
0
 40
0
 40
1
 40
1
 40
1
 40
1
 10
73.975228
 20
-71.202009
 30
0.0
 10
74.665228
 20
-69.772009
 30
0.0
 10
75.175228
 20
-68.292009
 30
0.0
 10
75.605228
 20
-66.862009
 30
0.0
  0
SPLINE
  5
286
100
AcDbEntity
  8
0
 62
7
100
AcDbSpline
 70
8
 71
3
 72
8
 73
4
 74
0
 40
0
 40
0
 40
0
 40
0
 40
1
 40
1
 40
1
 40
1
 10
75.605228
 20
-66.862009
 30
0.0
 10
75.775228
 20
-67.982009
 30
0.0
 10
75.865228
 20
-69.002009
 30
0.0
 10
75.815228
 20
-70.042009
 30
0.0
  0
LWPOLYLINE
  5
287
100
AcDbEntity
  8
0
 62
7
100
AcDbPolyline
 90
3
 70
0
 10
69.175229
 20
-77.572008
 30
0.0
 10
69.325229
 20
-77.842008
 30
0.0
 10
69.555229
 20
-77.632008
 30
0.0
  0
SPLINE
  5
288
100
AcDbEntity
  8
0
 62
7
100
AcDbSpline
 70
8
 71
3
 72
8
 73
4
 74
0
 40
0
 40
0
 40
0
 40
0
 40
1
 40
1
 40
1
 40
1
 10
76.205228
 20
-70.262009
 30
0.0
 10
77.065228
 20
-69.712009
 30
0.0
 10
77.505228
 20
-68.872009
 30
0.0
 10
77.925228
 20
-68.052009
 30
0.0
  0
SPLINE
  5
289
100
AcDbEntity
  8
0
 62
7
100
AcDbSpline
 70
8
 71
3
 72
8
 73
4
 74
0
 40
0
 40
0
 40
0
 40
0
 40
1
 40
1
 40
1
 40
1
 10
77.925228
 20
-68.052009
 30
0.0
 10
77.995228
 20
-67.912009
 30
0.0
 10
78.075228
 20
-67.762009
 30
0.0
 10
78.145228
 20
-67.632009
 30
0.0
  0
SPLINE
  5
28a
100
AcDbEntity
  8
0
 62
7
100
AcDbSpline
 70
8
 71
3
 72
8
 73
4
 74
0
 40
0
 40
0
 40
0
 40
0
 40
1
 40
1
 40
1
 40
1
 10
78.145228
 20
-67.632009
 30
0.0
 10
78.305228
 20
-67.342009
 30
0.0
 10
78.475228
 20
-67.052009
 30
0.0
 10
78.655228
 20
-66.762009
 30
0.0
  0
SPLINE
  5
28b
100
AcDbEntity
  8
0
 62
7
100
AcDbSpline
 70
8
 71
3
 72
8
 73
4
 74
0
 40
0
 40
0
 40
0
 40
0
 40
1
 40
1
 40
1
 40
1
 10
78.655228
 20
-66.762009
 30
0.0
 10
79.565228
 20
-65.242009
 30
0.0
 10
80.505228
 20
-63.672009
 30
0.0
 10
79.535228
 20
-61.682009
 30
0.0
  0
SPLINE
  5
28c
100
AcDbEntity
  8
0
 62
7
100
AcDbSpline
 70
8
 71
3
 72
8
 73
4
 74
0
 40
0
 40
0
 40
0
 40
0
 40
1
 40
1
 40
1
 40
1
 10
79.535228
 20
-61.682009
 30
0.0
 10
79.535228
 20
-61.652009
 30
0.0
 10
79.575228
 20
-61.562009
 30
0.0
 10
79.595228
 20
-61.512009
 30
0.0
  0
LWPOLYLINE
  5
28d
100
AcDbEntity
  8
0
 62
7
100
AcDbPolyline
 90
3
 70
0
 10
75.815228
 20
-70.042009
 30
0.0
 10
75.795228
 20
-70.522009
 30
0.0
 10
76.205228
 20
-70.262009
 30
0.0
  0
SPLINE
  5
28e
100
AcDbEntity
  8
0
 62
7
100
AcDbSpline
 70
8
 71
3
 72
8
 73
4
 74
0
 40
0
 40
0
 40
0
 40
0
 40
1
 40
1
 40
1
 40
1
 10
79.615228
 20
-61.452009
 30
0.0
 10
80.155228
 20
-60.052009
 30
0.0
 10
80.195228
 20
-58.662009
 30
0.0
 10
79.755228
 20
-57.302009
 30
0.0
  0
SPLINE
  5
28f
100
AcDbEntity
  8
0
 62
7
100
AcDbSpline
 70
8
 71
3
 72
8
 73
4
 74
0
 40
0
 40
0
 40
0
 40
0
 40
1
 40
1
 40
1
 40
1
 10
79.755228
 20
-57.302009
 30
0.0
 10
79.665228
 20
-57.022009
 30
0.0
 10
79.685228
 20
-56.952009
 30
0.0
 10
79.965228
 20
-56.742009
 30
0.0
  0
SPLINE
  5
290
100
AcDbEntity
  8
0
 62
7
100
AcDbSpline
 70
8
 71
3
 72
8
 73
4
 74
0
 40
0
 40
0
 40
0
 40
0
 40
1
 40
1
 40
1
 40
1
 10
79.965228
 20
-56.742009
 30
0.0
 10
81.595228
 20
-55.452009
 30
0.0
 10
82.045228
 20
-53.532009
 30
0.0
 10
81.145228
 20
-51.552009
 30
0.0
  0
SPLINE
  5
291
100
AcDbEntity
  8
0
 62
7
100
AcDbSpline
 70
8
 71
3
 72
8
 73
4
 74
0
 40
0
 40
0
 40
0
 40
0
 40
1
 40
1
 40
1
 40
1
 10
81.145228
 20
-51.552009
 30
0.0
 10
81.115228
 20
-51.492009
 30
0.0
 10
81.075228
 20
-51.402009
 30
0.0
 10
81.075228
 20
-51.382009
 30
0.0
  0
SPLINE
  5
292
100
AcDbEntity
  8
0
 62
7
100
AcDbSpline
 70
8
 71
3
 72
8
 73
4
 74
0
 40
0
 40
0
 40
0
 40
0
 40
1
 40
1
 40
1
 40
1
 10
81.075228
 20
-51.382009
 30
0.0
 10
81.075228
 20
-51.382009
 30
0.0
 10
81.085228
 20
-51.342009
 30
0.0
 10
81.195228
 20
-51.262009
 30
0.0
  0
SPLINE
  5
293
100
AcDbEntity
  8
0
 62
7
100
AcDbSpline
 70
8
 71
3
 72
8
 73
4
 74
0
 40
0
 40
0
 40
0
 40
0
 40
1
 40
1
 40
1
 40
1
 10
81.195228
 20
-51.262009
 30
0.0
 10
84.015228
 20
-48.902009
 30
0.0
 10
84.315228
 20
-46.352009
 30
0.0
 10
82.115228
 20
-43.472009
 30
0.0
  0
SPLINE
  5
294
100
AcDbEntity
  8
0
 62
7
100
AcDbSpline
 70
8
 71
3
 72
8
 73
4
 74
0
 40
0
 40
0
 40
0
 40
0
 40
1
 40
1
 40
1
 40
1
 10
82.115228
 20
-43.472009
 30
0.0
 10
83.335228
 20
-42.502009
 30
0.0
 10
83.995228
 20
-41.262009
 30
0.0
 10
83.985228
 20
-39.942009
 30
0.0
  0
LWPOLYLINE
  5
295
100
AcDbEntity
  8
0
 62
7
100
AcDbPolyline
 90
2
 70
0
 10
79.595228
 20
-61.512009
 30
0.0
 10
79.615228
 20
-61.452009
 30
0.0
  0
LWPOLYLINE
  5
296
100
AcDbEntity
  8
0
 62
7
100
AcDbPolyline
 90
1
 70
1
 10
83.985228
 20
-39.942009
 30
0.0
  0
SPLINE
  5
297
100
AcDbEntity
  8
0
 62
7
100
AcDbSpline
 70
8
 71
3
 72
8
 73
4
 74
0
 40
0
 40
0
 40
0
 40
0
 40
1
 40
1
 40
1
 40
1
 10
34.155229
 20
-81.822008
 30
0.0
 10
34.155229
 20
-81.822008
 30
0.0
 10
36.805229
 20
-77.802008
 30
0.0
 10
37.325229
 20
-75.032008
 30
0.0
  0
SPLINE
  5
298
100
AcDbEntity
  8
0
 62
7
100
AcDbSpline
 70
8
 71
3
 72
8
 73
4
 74
0
 40
0
 40
0
 40
0
 40
0
 40
1
 40
1
 40
1
 40
1
 10
37.325229
 20
-75.032008
 30
0.0
 10
37.325229
 20
-75.032008
 30
0.0
 10
35.915229
 20
-72.702009
 30
0.0
 10
34.395229
 20
-71.172009
 30
0.0
  0
SPLINE
  5
299
100
AcDbEntity
  8
0
 62
7
100
AcDbSpline
 70
8
 71
3
 72
8
 73
4
 74
0
 40
0
 40
0
 40
0
 40
0
 40
1
 40
1
 40
1
 40
1
 10
34.395229
 20
-71.172009
 30
0.0
 10
32.865229
 20
-69.642009
 30
0.0
 10
32.425229
 20
-67.392009
 30
0.0
 10
32.425229
 20
-67.392009
 30
0.0
  0
SPLINE
  5
29a
100
AcDbEntity
  8
0
 62
7
100
AcDbSpline
 70
8
 71
3
 72
8
 73
4
 74
0
 40
0
 40
0
 40
0
 40
0
 40
1
 40
1
 40
1
 40
1
 10
32.425229
 20
-67.392009
 30
0.0
 10
32.425229
 20
-67.392009
 30
0.0
 10
30.455229
 20
-57.872009
 30
0.0
 10
30.735229
 20
-55.862009
 30
0.0
  0
SPLINE
  5
29b
100
AcDbEntity
  8
0
 62
7
100
AcDbSpline
 70
8
 71
3
 72
8
 73
4
 74
0
 40
0
 40
0
 40
0
 40
0
 40
1
 40
1
 40
1
 40
1
 10
30.735229
 20
-55.862009
 30
0.0
 10
30.735229
 20
-55.862009
 30
0.0
 10
35.395229
 20
-54.052009
 30
0.0
 10
37.805229
 20
-47.142009
 30
0.0
  0
SPLINE
  5
29c
100
AcDbEntity
  8
0
 62
7
100
AcDbSpline
 70
8
 71
3
 72
8
 73
4
 74
0
 40
0
 40
0
 40
0
 40
0
 40
1
 40
1
 40
1
 40
1
 10
37.805229
 20
-47.142009
 30
0.0
 10
40.215229
 20
-40.232009
 30
0.0
 10
41.065229
 20
-33.362009
 30
0.0
 10
41.065229
 20
-33.362009
 30
0.0
  0
SPLINE
  5
29d
100
AcDbEntity
  8
0
 62
7
100
AcDbSpline
 70
8
 71
3
 72
8
 73
4
 74
0
 40
0
 40
0
 40
0
 40
0
 40
1
 40
1
 40
1
 40
1
 10
41.065229
 20
-33.362009
 30
0.0
 10
41.065229
 20
-33.362009
 30
0.0
 10
41.745229
 20
-28.022009
 30
0.0
 10
41.345229
 20
-24.922009
 30
0.0
  0
SPLINE
  5
29e
100
AcDbEntity
  8
0
 62
7
100
AcDbSpline
 70
8
 71
3
 72
8
 73
4
 74
0
 40
0
 40
0
 40
0
 40
0
 40
1
 40
1
 40
1
 40
1
 10
41.345229
 20
-24.922009
 30
0.0
 10
40.945229
 20
-21.832010
 30
0.0
 10
41.905229
 20
-17.742010
 30
0.0
 10
42.875229
 20
-15.912010
 30
0.0
  0
SPLINE
  5
29f
100
AcDbEntity
  8
0
 62
7
100
AcDbSpline
 70
8
 71
3
 72
8
 73
4
 74
0
 40
0
 40
0
 40
0
 40
0
 40
1
 40
1
 40
1
 40
1
 10
42.875229
 20
-15.912010
 30
0.0
 10
43.835229
 20
-14.082010
 30
0.0
 10
43.835229
 20
-9.012010
 30
0.0
 10
43.155229
 20
-6.762010
 30
0.0
  0
SPLINE
  5
2a0
100
AcDbEntity
  8
0
 62
7
100
AcDbSpline
 70
8
 71
3
 72
8
 73
4
 74
0
 40
0
 40
0
 40
0
 40
0
 40
1
 40
1
 40
1
 40
1
 10
43.155229
 20
-6.762010
 30
0.0
 10
42.475229
 20
-4.512010
 30
0.0
 10
39.455229
 20
-0.372010
 30
0.0
 10
39.615229
 20
4.447990
 30
0.0
  0
SPLINE
  5
2a1
100
AcDbEntity
  8
0
 62
7
100
AcDbSpline
 70
8
 71
3
 72
8
 73
4
 74
0
 40
0
 40
0
 40
0
 40
0
 40
1
 40
1
 40
1
 40
1
 10
39.615229
 20
4.447990
 30
0.0
 10
39.775229
 20
9.267990
 30
0.0
 10
43.635229
 20
11.797990
 30
0.0
 10
45.645229
 20
11.677990
 30
0.0
  0
SPLINE
  5
2a2
100
AcDbEntity
  8
0
 62
7
100
AcDbSpline
 70
8
 71
3
 72
8
 73
4
 74
0
 40
0
 40
0
 40
0
 40
0
 40
1
 40
1
 40
1
 40
1
 10
45.645229
 20
11.677990
 30
0.0
 10
47.655229
 20
11.557990
 30
0.0
 10
50.385229
 20
12.837990
 30
0.0
 10
52.395229
 20
5.527990
 30
0.0
  0
SPLINE
  5
2a3
100
AcDbEntity
  8
0
 62
7
100
AcDbSpline
 70
8
 71
3
 72
8
 73
4
 74
0
 40
0
 40
0
 40
0
 40
0
 40
1
 40
1
 40
1
 40
1
 10
52.395229
 20
5.527990
 30
0.0
 10
52.395229
 20
5.527990
 30
0.0
 10
53.075229
 20
1.587990
 30
0.0
 10
53.035229
 20
-5.682010
 30
0.0
  0
SPLINE
  5
2a4
100
AcDbEntity
  8
0
 62
7
100
AcDbSpline
 70
8
 71
3
 72
8
 73
4
 74
0
 40
0
 40
0
 40
0
 40
0
 40
1
 40
1
 40
1
 40
1
 10
53.035229
 20
-5.682010
 30
0.0
 10
53.035229
 20
-5.682010
 30
0.0
 10
52.995229
 20
-10.142010
 30
0.0
 10
55.245229
 20
-12.752010
 30
0.0
  0
SPLINE
  5
2a5
100
AcDbEntity
  8
0
 62
7
100
AcDbSpline
 70
8
 71
3
 72
8
 73
4
 74
0
 40
0
 40
0
 40
0
 40
0
 40
1
 40
1
 40
1
 40
1
 10
55.245229
 20
-12.752010
 30
0.0
 10
57.495229
 20
-15.362010
 30
0.0
 10
54.405229
 20
-18.982010
 30
0.0
 10
54.405229
 20
-18.982010
 30
0.0
  0
LWPOLYLINE
  5
2a6
100
AcDbEntity
  8
0
 62
7
100
AcDbPolyline
 90
3
 70
0
 10
37.325229
 20
-82.582008
 30
0.0
 10
34.835229
 20
-82.582008
 30
0.0
 10
34.155229
 20
-81.822008
 30
0.0
  0
SPLINE
  5
2a7
100
AcDbEntity
  8
0
 62
7
100
AcDbSpline
 70
8
 71
3
 72
8
 73
4
 74
0
 40
0
 40
0
 40
0
 40
0
 40
1
 40
1
 40
1
 40
1
 10
53.405229
 20
-18.782010
 30
0.0
 10
53.405229
 20
-18.782010
 30
0.0
 10
54.735229
 20
-17.192010
 30
0.0
 10
54.845229
 20
-14.782010
 30
0.0
  0
SPLINE
  5
2a8
100
AcDbEntity
  8
0
 62
7
100
AcDbSpline
 70
8
 71
3
 72
8
 73
4
 74
0
 40
0
 40
0
 40
0
 40
0
 40
1
 40
1
 40
1
 40
1
 10
54.845229
 20
-14.782010
 30
0.0
 10
54.955229
 20
-12.372010
 30
0.0
 10
53.165229
 20
-12.412010
 30
0.0
 10
52.685229
 20
-9.172010
 30
0.0
  0
SPLINE
  5
2a9
100
AcDbEntity
  8
0
 62
7
100
AcDbSpline
 70
8
 71
3
 72
8
 73
4
 74
0
 40
0
 40
0
 40
0
 40
0
 40
1
 40
1
 40
1
 40
1
 10
52.685229
 20
-9.172010
 30
0.0
 10
52.205229
 20
-5.932010
 30
0.0
 10
51.805229
 20
1.787990
 30
0.0
 10
51.805229
 20
1.787990
 30
0.0
  0
SPLINE
  5
2aa
100
AcDbEntity
  8
0
 62
7
100
AcDbSpline
 70
8
 71
3
 72
8
 73
4
 74
0
 40
0
 40
0
 40
0
 40
0
 40
1
 40
1
 40
1
 40
1
 10
51.805229
 20
1.787990
 30
0.0
 10
51.805229
 20
1.787990
 30
0.0
 10
51.325229
 20
10.427990
 30
0.0
 10
46.825229
 20
10.747990
 30
0.0
  0
SPLINE
  5
2ab
100
AcDbEntity
  8
0
 62
7
100
AcDbSpline
 70
8
 71
3
 72
8
 73
4
 74
0
 40
0
 40
0
 40
0
 40
0
 40
1
 40
1
 40
1
 40
1
 10
46.825229
 20
10.747990
 30
0.0
 10
46.825229
 20
10.747990
 30
0.0
 10
41.575229
 20
10.507990
 30
0.0
 10
41.085229
 20
3.917990
 30
0.0
  0
SPLINE
  5
2ac
100
AcDbEntity
  8
0
 62
7
100
AcDbSpline
 70
8
 71
3
 72
8
 73
4
 74
0
 40
0
 40
0
 40
0
 40
0
 40
1
 40
1
 40
1
 40
1
 10
41.085229
 20
3.917990
 30
0.0
 10
41.085229
 20
3.917990
 30
0.0
 10
41.365229
 20
0.827990
 30
0.0
 10
42.245229
 20
-1.142010
 30
0.0
  0
SPLINE
  5
2ad
100
AcDbEntity
  8
0
 62
7
100
AcDbSpline
 70
8
 71
3
 72
8
 73
4
 74
0
 40
0
 40
0
 40
0
 40
0
 40
1
 40
1
 40
1
 40
1
 10
42.245229
 20
-1.142010
 30
0.0
 10
43.125229
 20
-3.112010
 30
0.0
 10
44.695229
 20
-6.442010
 30
0.0
 10
44.615229
 20
-10.062010
 30
0.0
  0
SPLINE
  5
2ae
100
AcDbEntity
  8
0
 62
7
100
AcDbSpline
 70
8
 71
3
 72
8
 73
4
 74
0
 40
0
 40
0
 40
0
 40
0
 40
1
 40
1
 40
1
 40
1
 10
44.615229
 20
-10.062010
 30
0.0
 10
44.535229
 20
-13.682010
 30
0.0
 10
42.365229
 20
-21.762010
 30
0.0
 10
42.365229
 20
-21.762010
 30
0.0
  0
SPLINE
  5
2af
100
AcDbEntity
  8
0
 62
7
100
AcDbSpline
 70
8
 71
3
 72
8
 73
4
 74
0
 40
0
 40
0
 40
0
 40
0
 40
1
 40
1
 40
1
 40
1
 10
42.365229
 20
-21.762010
 30
0.0
 10
42.365229
 20
-21.762010
 30
0.0
 10
42.125229
 20
-26.092009
 30
0.0
 10
42.565229
 20
-28.942009
 30
0.0
  0
SPLINE
  5
2b0
100
AcDbEntity
  8
0
 62
7
100
AcDbSpline
 70
8
 71
3
 72
8
 73
4
 74
0
 40
0
 40
0
 40
0
 40
0
 40
1
 40
1
 40
1
 40
1
 10
42.565229
 20
-28.942009
 30
0.0
 10
43.005229
 20
-31.792009
 30
0.0
 10
41.835229
 20
-42.402009
 30
0.0
 10
40.615229
 20
-45.132009
 30
0.0
  0
SPLINE
  5
2b1
100
AcDbEntity
  8
0
 62
7
100
AcDbSpline
 70
8
 71
3
 72
8
 73
4
 74
0
 40
0
 40
0
 40
0
 40
0
 40
1
 40
1
 40
1
 40
1
 10
40.615229
 20
-45.132009
 30
0.0
 10
39.395229
 20
-47.862009
 30
0.0
 10
37.735229
 20
-54.212009
 30
0.0
 10
32.755229
 20
-56.942009
 30
0.0
  0
SPLINE
  5
2b2
100
AcDbEntity
  8
0
 62
7
100
AcDbSpline
 70
8
 71
3
 72
8
 73
4
 74
0
 40
0
 40
0
 40
0
 40
0
 40
1
 40
1
 40
1
 40
1
 10
32.755229
 20
-56.942009
 30
0.0
 10
32.755229
 20
-56.942009
 30
0.0
 10
35.275229
 20
-67.472009
 30
0.0
 10
39.265229
 20
-72.232009
 30
0.0
  0
SPLINE
  5
2b3
100
AcDbEntity
  8
0
 62
7
100
AcDbSpline
 70
8
 71
3
 72
8
 73
4
 74
0
 40
0
 40
0
 40
0
 40
0
 40
1
 40
1
 40
1
 40
1
 10
39.265229
 20
-72.232009
 30
0.0
 10
39.265229
 20
-72.232009
 30
0.0
 10
36.745229
 20
-79.372008
 30
0.0
 10
35.625229
 20
-80.922008
 30
0.0
  0
LWPOLYLINE
  5
2b4
100
AcDbEntity
  8
0
 62
7
100
AcDbPolyline
 90
2
 70
0
 10
54.405229
 20
-18.982010
 30
0.0
 10
53.405229
 20
-18.782010
 30
0.0
  0
SPLINE
  5
2b5
100
AcDbEntity
  8
0
 62
7
100
AcDbSpline
 70
8
 71
3
 72
8
 73
4
 74
0
 40
0
 40
0
 40
0
 40
0
 40
1
 40
1
 40
1
 40
1
 10
59.505229
 20
-80.472008
 30
0.0
 10
59.505229
 20
-80.472008
 30
0.0
 10
63.145229
 20
-82.122008
 30
0.0
 10
63.335229
 20
-83.562008
 30
0.0
  0
SPLINE
  5
2b6
100
AcDbEntity
  8
0
 62
7
100
AcDbSpline
 70
8
 71
3
 72
8
 73
4
 74
0
 40
0
 40
0
 40
0
 40
0
 40
1
 40
1
 40
1
 40
1
 10
63.335229
 20
-83.562008
 30
0.0
 10
63.335229
 20
-83.562008
 30
0.0
 10
65.285229
 20
-82.932008
 30
0.0
 10
65.325229
 20
-82.742008
 30
0.0
  0
SPLINE
  5
2b7
100
AcDbEntity
  8
0
 62
7
100
AcDbSpline
 70
8
 71
3
 72
8
 73
4
 74
0
 40
0
 40
0
 40
0
 40
0
 40
1
 40
1
 40
1
 40
1
 10
65.325229
 20
-82.742008
 30
0.0
 10
65.365229
 20
-82.552008
 30
0.0
 10
65.845229
 20
-73.312008
 30
0.0
 10
65.845229
 20
-73.312008
 30
0.0
  0
SPLINE
  5
2b8
100
AcDbEntity
  8
0
 62
7
100
AcDbSpline
 70
8
 71
3
 72
8
 73
4
 74
0
 40
0
 40
0
 40
0
 40
0
 40
1
 40
1
 40
1
 40
1
 10
65.845229
 20
-73.312008
 30
0.0
 10
65.845229
 20
-73.312008
 30
0.0
 10
61.355229
 20
-75.412008
 30
0.0
 10
59.505229
 20
-80.472008
 30
0.0
  0
LWPOLYLINE
  5
2b9
100
AcDbEntity
  8
0
 62
7
100
AcDbPolyline
 90
2
 70
0
 10
35.625229
 20
-80.922008
 30
0.0
 10
37.325229
 20
-82.582008
 30
0.0
  0
SPLINE
  5
2ba
100
AcDbEntity
  8
0
 62
7
100
AcDbSpline
 70
8
 71
3
 72
8
 73
4
 74
0
 40
0
 40
0
 40
0
 40
0
 40
1
 40
1
 40
1
 40
1
 10
62.435229
 20
-80.522008
 30
0.0
 10
61.955229
 20
-80.172008
 30
0.0
 10
61.805229
 20
-79.522008
 30
0.0
 10
62.095229
 20
-79.002008
 30
0.0
  0
LWPOLYLINE
  5
2bb
100
AcDbEntity
  8
0
 62
7
100
AcDbPolyline
 90
1
 70
1
 10
59.505229
 20
-80.472008
 30
0.0
  0
SPLINE
  5
2bc
100
AcDbEntity
  8
0
 62
7
100
AcDbSpline
 70
8
 71
3
 72
8
 73
4
 74
0
 40
0
 40
0
 40
0
 40
0
 40
1
 40
1
 40
1
 40
1
 10
70.955229
 20
-83.402008
 30
0.0
 10
70.955229
 20
-83.402008
 30
0.0
 10
70.275229
 20
-82.442008
 30
0.0
 10
69.265229
 20
-82.362008
 30
0.0
  0
SPLINE
  5
2bd
100
AcDbEntity
  8
0
 62
7
100
AcDbSpline
 70
8
 71
3
 72
8
 73
4
 74
0
 40
0
 40
0
 40
0
 40
0
 40
1
 40
1
 40
1
 40
1
 10
69.265229
 20
-82.362008
 30
0.0
 10
69.265229
 20
-82.362008
 30
0.0
 10
66.455229
 20
-73.202008
 30
0.0
 10
67.295229
 20
-67.742009
 30
0.0
  0
SPLINE
  5
2be
100
AcDbEntity
  8
0
 62
7
100
AcDbSpline
 70
8
 71
3
 72
8
 73
4
 74
0
 40
0
 40
0
 40
0
 40
0
 40
1
 40
1
 40
1
 40
1
 10
67.295229
 20
-67.742009
 30
0.0
 10
68.135229
 20
-62.282009
 30
0.0
 10
68.255229
 20
-59.662009
 30
0.0
 10
67.895229
 20
-56.412009
 30
0.0
  0
SPLINE
  5
2bf
100
AcDbEntity
  8
0
 62
7
100
AcDbSpline
 70
8
 71
3
 72
8
 73
4
 74
0
 40
0
 40
0
 40
0
 40
0
 40
1
 40
1
 40
1
 40
1
 10
67.895229
 20
-56.412009
 30
0.0
 10
67.535229
 20
-53.162009
 30
0.0
 10
67.495229
 20
-46.892009
 30
0.0
 10
67.495229
 20
-46.892009
 30
0.0
  0
SPLINE
  5
2c0
100
AcDbEntity
  8
0
 62
7
100
AcDbSpline
 70
8
 71
3
 72
8
 73
4
 74
0
 40
0
 40
0
 40
0
 40
0
 40
1
 40
1
 40
1
 40
1
 10
67.495229
 20
-46.892009
 30
0.0
 10
67.495229
 20
-46.892009
 30
0.0
 10
67.335229
 20
-44.802009
 30
0.0
 10
65.565229
 20
-43.072009
 30
0.0
  0
SPLINE
  5
2c1
100
AcDbEntity
  8
0
 62
7
100
AcDbSpline
 70
8
 71
3
 72
8
 73
4
 74
0
 40
0
 40
0
 40
0
 40
0
 40
1
 40
1
 40
1
 40
1
 10
65.565229
 20
-43.072009
 30
0.0
 10
63.795229
 20
-41.342009
 30
0.0
 10
59.775229
 20
-36.202009
 30
0.0
 10
59.115229
 20
-32.342009
 30
0.0
  0
SPLINE
  5
2c2
100
AcDbEntity
  8
0
 62
7
100
AcDbSpline
 70
8
 71
3
 72
8
 73
4
 74
0
 40
0
 40
0
 40
0
 40
0
 40
1
 40
1
 40
1
 40
1
 10
59.115229
 20
-32.342009
 30
0.0
 10
58.455229
 20
-28.482009
 30
0.0
 10
56.525229
 20
-19.442010
 30
0.0
 10
54.875229
 20
-19.322010
 30
0.0
  0
SPLINE
  5
2c3
100
AcDbEntity
  8
0
 62
7
100
AcDbSpline
 70
8
 71
3
 72
8
 73
4
 74
0
 40
0
 40
0
 40
0
 40
0
 40
1
 40
1
 40
1
 40
1
 10
54.875229
 20
-19.322010
 30
0.0
 10
54.875229
 20
-19.322010
 30
0.0
 10
57.035229
 20
-19.122010
 30
0.0
 10
57.785229
 20
-22.302010
 30
0.0
  0
SPLINE
  5
2c4
100
AcDbEntity
  8
0
 62
7
100
AcDbSpline
 70
8
 71
3
 72
8
 73
4
 74
0
 40
0
 40
0
 40
0
 40
0
 40
1
 40
1
 40
1
 40
1
 10
57.785229
 20
-22.302010
 30
0.0
 10
58.535229
 20
-25.472009
 30
0.0
 10
60.625229
 20
-32.302009
 30
0.0
 10
61.705229
 20
-34.592009
 30
0.0
  0
SPLINE
  5
2c5
100
AcDbEntity
  8
0
 62
7
100
AcDbSpline
 70
8
 71
3
 72
8
 73
4
 74
0
 40
0
 40
0
 40
0
 40
0
 40
1
 40
1
 40
1
 40
1
 10
61.705229
 20
-34.592009
 30
0.0
 10
62.785229
 20
-36.882009
 30
0.0
 10
64.555229
 20
-39.252009
 30
0.0
 10
64.555229
 20
-39.252009
 30
0.0
  0
SPLINE
  5
2c6
100
AcDbEntity
  8
0
 62
7
100
AcDbSpline
 70
8
 71
3
 72
8
 73
4
 74
0
 40
0
 40
0
 40
0
 40
0
 40
1
 40
1
 40
1
 40
1
 10
64.555229
 20
-39.252009
 30
0.0
 10
64.555229
 20
-39.252009
 30
0.0
 10
67.485229
 20
-41.742009
 30
0.0
 10
68.335229
 20
-43.192009
 30
0.0
  0
SPLINE
  5
2c7
100
AcDbEntity
  8
0
 62
7
100
AcDbSpline
 70
8
 71
3
 72
8
 73
4
 74
0
 40
0
 40
0
 40
0
 40
0
 40
1
 40
1
 40
1
 40
1
 10
68.335229
 20
-43.192009
 30
0.0
 10
69.175229
 20
-44.642009
 30
0.0
 10
70.185229
 20
-50.332009
 30
0.0
 10
69.785229
 20
-52.392009
 30
0.0
  0
SPLINE
  5
2c8
100
AcDbEntity
  8
0
 62
7
100
AcDbSpline
 70
8
 71
3
 72
8
 73
4
 74
0
 40
0
 40
0
 40
0
 40
0
 40
1
 40
1
 40
1
 40
1
 10
69.785229
 20
-52.392009
 30
0.0
 10
69.335229
 20
-54.712009
 30
0.0
 10
69.145229
 20
-57.572009
 30
0.0
 10
68.785229
 20
-59.142009
 30
0.0
  0
SPLINE
  5
2c9
100
AcDbEntity
  8
0
 62
7
100
AcDbSpline
 70
8
 71
3
 72
8
 73
4
 74
0
 40
0
 40
0
 40
0
 40
0
 40
1
 40
1
 40
1
 40
1
 10
68.785229
 20
-59.142009
 30
0.0
 10
67.915229
 20
-62.912009
 30
0.0
 10
68.745229
 20
-70.032009
 30
0.0
 10
68.745229
 20
-70.032009
 30
0.0
  0
SPLINE
  5
2ca
100
AcDbEntity
  8
0
 62
7
100
AcDbSpline
 70
8
 71
3
 72
8
 73
4
 74
0
 40
0
 40
0
 40
0
 40
0
 40
1
 40
1
 40
1
 40
1
 10
68.745229
 20
-70.032009
 30
0.0
 10
68.745229
 20
-70.032009
 30
0.0
 10
69.065229
 20
-76.102008
 30
0.0
 10
69.465229
 20
-77.622008
 30
0.0
  0
SPLINE
  5
2cb
100
AcDbEntity
  8
0
 62
7
100
AcDbSpline
 70
8
 71
3
 72
8
 73
4
 74
0
 40
0
 40
0
 40
0
 40
0
 40
1
 40
1
 40
1
 40
1
 10
69.465229
 20
-77.622008
 30
0.0
 10
69.865229
 20
-79.142008
 30
0.0
 10
70.955229
 20
-83.402008
 30
0.0
 10
70.955229
 20
-83.402008
 30
0.0
  0
LWPOLYLINE
  5
2cc
100
AcDbEntity
  8
0
 62
7
100
AcDbPolyline
 90
4
 70
0
 10
62.095229
 20
-79.002008
 30
0.0
 10
64.495229
 20
-74.572008
 30
0.0
 10
64.735229
 20
-82.202008
 30
0.0
 10
62.435229
 20
-80.522008
 30
0.0
  0
LWPOLYLINE
  5
2cd
100
AcDbEntity
  8
0
 62
7
100
AcDbPolyline
 90
1
 70
1
 10
70.955229
 20
-83.402008
 30
0.0
  0
ENDSEC
  0
SECTION
  2
OBJECTS
  0
DICTIONARY
  5
C
330
0
100
AcDbDictionary
  3
ACAD_GROUP
350
D
  3
ACAD_MLINESTYLE
350
17
  0
DICTIONARY
  5
D
330
C
100
AcDbDictionary
  0
DICTIONARY
  5
1A
330
C
100
AcDbDictionary
  0
DICTIONARY
  5
17
330
C
100
AcDbDictionary
  3
STANDARD
350
18
  0
DICTIONARY
  5
19
330
C
100
AcDbDictionary
  0
ENDSEC
  0
EOF
