  0
SECTION
  2
HEADER
  9
$ACADVER
  1
AC1014
  9
$HANDSEED
  5
FFFF
  9
$INSUNITS
 70
     0
  9
$MEASUREMENT
 70
     1
  0
ENDSEC
  0
SECTION
  2
TABLES
  0
TABLE
  2
VPORT
  5
8
330
0
100
AcDbSymbolTable
 70
     4
  0
VPORT
  5
2E
330
8
100
AcDbSymbolTableRecord
100
AcDbViewportTableRecord
  2
*ACTIVE
 70
     0
 10
0.0
 20
0.0
 11
1.0
 21
1.0
 12
210.0
 22
148.5
 13
0.0
 23
0.0
 14
10.0
 24
10.0
 15
10.0
 25
10.0
 16
0.0
 26
0.0
 36
1.0
 17
0.0
 27
0.0
 37
0.0
 40
341.0
 41
1.24
 42
50.0
 43
0.0
 44
0.0
 50
0.0
 51
0.0
 71
     0
 72
   100
 73
     1
 74
     3
 75
     0
 76
     0
 77
     0
 78
     0
  0
ENDTAB
  0
TABLE
  2
LTYPE
  5
5
330
0
100
AcDbSymbolTable
 70
     1
  0
LTYPE
  5
14
330
5
100
AcDbSymbolTableRecord
100
AcDbLinetypeTableRecord
  2
BYBLOCK
 70
     0
  3

 72
    65
 73
     0
 40
0.0
  0
LTYPE
  5
15
330
5
100
AcDbSymbolTableRecord
100
AcDbLinetypeTableRecord
  2
BYLAYER
 70
     0
  3

 72
    65
 73
     0
 40
0.0
  0
LTYPE
  5
16
330
5
100
AcDbSymbolTableRecord
100
AcDbLinetypeTableRecord
  2
CONTINUOUS
 70
     0
  3
Solid line
 72
    65
 73
     0
 40
0.0
  0
ENDTAB
  0
TABLE
  2
LAYER
  5
2
100
AcDbSymbolTable
 70
1
  0
LAYER
  5
50
100
AcDbSymbolTableRecord
100
AcDbLayerTableRecord
  2
0
 70
0
  6
CONTINUOUS
  0
ENDTAB
  0
TABLE
  2
STYLE
  5
3
330
0
100
AcDbSymbolTable
 70
     1
  0
STYLE
  5
11
330
3
100
AcDbSymbolTableRecord
100
AcDbTextStyleTableRecord
  2
STANDARD
 70
     0
 40
0.0
 41
1.0
 50
0.0
 71
     0
 42
2.5
  3
txt
  4

  0
ENDTAB
  0
TABLE
  2
VIEW
  5
6
330
0
100
AcDbSymbolTable
 70
     0
  0
ENDTAB
  0
TABLE
  2
UCS
  5
7
330
0
100
AcDbSymbolTable
 70
     0
  0
ENDTAB
  0
TABLE
  2
APPID
  5
9
330
0
100
AcDbSymbolTable
 70
     2
  0
APPID
  5
12
330
9
100
AcDbSymbolTableRecord
100
AcDbRegAppTableRecord
  2
ACAD
 70
     0
  0
ENDTAB
  0
TABLE
  2
DIMSTYLE
  5
A
330
0
100
AcDbSymbolTable
 70
     1
  0
DIMSTYLE
105
27
330
A
100
AcDbSymbolTableRecord
100
AcDbDimStyleTableRecord
  2
ISO-25
 70
     0
  3

  4

  5

  6

  7

 40
1.0
 41
2.5
 42
0.625
 43
3.75
 44
1.25
 45
0.0
 46
0.0
 47
0.0
 48
0.0
140
2.5
141
2.5
142
0.0
143
0.03937007874016
144
1.0
145
0.0
146
1.0
147
0.625
 71
     0
 72
     0
 73
     0
 74
     0
 75
     0
 76
     0
 77
     1
 78
     8
170
     0
171
     3
172
     1
173
     0
174
     0
175
     0
176
     0
177
     0
178
     0
270
     2
271
     2
272
     2
273
     2
274
     3
340
11
275
     0
280
     0
281
     0
282
     0
283
     0
284
     8
285
     0
286
     0
287
     3
288
     0
  0
ENDTAB
  0
TABLE
  2
BLOCK_RECORD
  5
1
330
0
100
AcDbSymbolTable
 70
     1
  0
BLOCK_RECORD
  5
1F
330
1
100
AcDbSymbolTableRecord
100
AcDbBlockTableRecord
  2
*MODEL_SPACE
  0
BLOCK_RECORD
  5
1B
330
1
100
AcDbSymbolTableRecord
100
AcDbBlockTableRecord
  2
*PAPER_SPACE
  0
ENDTAB
  0
ENDSEC
  0
SECTION
  2
BLOCKS
  0
BLOCK
  5
20
330
1F
100
AcDbEntity
  8
0
100
AcDbBlockBegin
  2
*MODEL_SPACE
 70
     0
 10
0.0
 20
0.0
 30
0.0
  3
*MODEL_SPACE
  1

  0
ENDBLK
  5
21
330
1F
100
AcDbEntity
  8
0
100
AcDbBlockEnd
  0
BLOCK
  5
1C
330
1B
100
AcDbEntity
 67
     1
  8
0
100
AcDbBlockBegin
  2
*PAPER_SPACE
  1

  0
ENDBLK
  5
1D
330
1B
100
AcDbEntity
 67
     1
  8
0
100
AcDbBlockEnd
  0
ENDSEC
  0
SECTION
  2
ENTITIES
  0
SPLINE
  5
100
100
AcDbEntity
  8
0
 62
7
100
AcDbSpline
 70
8
 71
3
 72
8
 73
4
 74
0
 40
0
 40
0
 40
0
 40
0
 40
1
 40
1
 40
1
 40
1
 10
30.587328
 20
30.527263
 30
0.0
 10
30.478324
 20
30.721025
 30
0.0
 10
30.490003
 20
30.864409
 30
0.0
 10
30.599008
 20
31.042670
 30
0.0
  0
SPLINE
  5
101
100
AcDbEntity
  8
0
 62
7
100
AcDbSpline
 70
8
 71
3
 72
8
 73
4
 74
0
 40
0
 40
0
 40
0
 40
0
 40
1
 40
1
 40
1
 40
1
 10
30.599008
 20
31.042670
 30
0.0
 10
31.120672
 20
31.895223
 30
0.0
 10
31.128458
 20
32.736150
 30
0.0
 10
30.517254
 20
33.553826
 30
0.0
  0
SPLINE
  5
102
100
AcDbEntity
  8
0
 62
7
100
AcDbSpline
 70
8
 71
3
 72
8
 73
4
 74
0
 40
0
 40
0
 40
0
 40
0
 40
1
 40
1
 40
1
 40
1
 10
30.517254
 20
33.553826
 30
0.0
 10
30.384891
 20
33.728212
 30
0.0
 10
30.365426
 20
33.867720
 30
0.0
 10
30.517254
 20
34.053732
 30
0.0
  0
SPLINE
  5
103
100
AcDbEntity
  8
0
 62
7
100
AcDbSpline
 70
8
 71
3
 72
8
 73
4
 74
0
 40
0
 40
0
 40
0
 40
0
 40
1
 40
1
 40
1
 40
1
 10
30.517254
 20
34.053732
 30
0.0
 10
30.637938
 20
34.204866
 30
0.0
 10
30.750835
 20
34.367626
 30
0.0
 10
30.809231
 20
34.573014
 30
0.0
  0
SPLINE
  5
104
100
AcDbEntity
  8
0
 62
7
100
AcDbSpline
 70
8
 71
3
 72
8
 73
4
 74
0
 40
0
 40
0
 40
0
 40
0
 40
1
 40
1
 40
1
 40
1
 10
30.809231
 20
34.573014
 30
0.0
 10
30.999989
 20
35.262807
 30
0.0
 10
30.789766
 20
35.809216
 30
0.0
 10
30.279780
 20
36.270369
 30
0.0
  0
SPLINE
  5
105
100
AcDbEntity
  8
0
 62
7
100
AcDbSpline
 70
8
 71
3
 72
8
 73
4
 74
0
 40
0
 40
0
 40
0
 40
0
 40
1
 40
1
 40
1
 40
1
 10
30.279780
 20
36.270369
 30
0.0
 10
30.007268
 20
36.518384
 30
0.0
 10
29.832083
 20
36.801277
 30
0.0
 10
29.917729
 20
37.192676
 30
0.0
  0
SPLINE
  5
106
100
AcDbEntity
  8
0
 62
7
100
AcDbSpline
 70
8
 71
3
 72
8
 73
4
 74
0
 40
0
 40
0
 40
0
 40
0
 40
1
 40
1
 40
1
 40
1
 10
29.917729
 20
37.192676
 30
0.0
 10
30.217492
 20
38.549010
 30
0.0
 10
29.816511
 20
39.715457
 30
0.0
 10
28.878293
 20
40.692018
 30
0.0
  0
SPLINE
  5
107
100
AcDbEntity
  8
0
 62
7
100
AcDbSpline
 70
8
 71
3
 72
8
 73
4
 74
0
 40
0
 40
0
 40
0
 40
0
 40
1
 40
1
 40
1
 40
1
 10
28.878293
 20
40.692018
 30
0.0
 10
28.422809
 20
41.164797
 30
0.0
 10
28.130833
 20
41.656953
 30
0.0
 10
28.193121
 20
42.335120
 30
0.0
  0
SPLINE
  5
108
100
AcDbEntity
  8
0
 62
7
100
AcDbSpline
 70
8
 71
3
 72
8
 73
4
 74
0
 40
0
 40
0
 40
0
 40
0
 40
1
 40
1
 40
1
 40
1
 10
28.193121
 20
42.335120
 30
0.0
 10
28.232051
 20
42.769147
 30
0.0
 10
28.099689
 20
43.179922
 30
0.0
 10
27.675350
 20
43.385310
 30
0.0
  0
SPLINE
  5
109
100
AcDbEntity
  8
0
 62
7
100
AcDbSpline
 70
8
 71
3
 72
8
 73
4
 74
0
 40
0
 40
0
 40
0
 40
0
 40
1
 40
1
 40
1
 40
1
 10
27.675350
 20
43.385310
 30
0.0
 10
27.215973
 20
43.610074
 30
0.0
 10
27.064145
 20
44.020849
 30
0.0
 10
26.920104
 20
44.451001
 30
0.0
  0
SPLINE
  5
10a
100
AcDbEntity
  8
0
 62
7
100
AcDbSpline
 70
8
 71
3
 72
8
 73
4
 74
0
 40
0
 40
0
 40
0
 40
0
 40
1
 40
1
 40
1
 40
1
 10
26.920104
 20
44.451001
 30
0.0
 10
26.795527
 20
44.819149
 30
0.0
 10
26.655378
 20
45.179546
 30
0.0
 10
26.569732
 20
45.555444
 30
0.0
  0
SPLINE
  5
10b
100
AcDbEntity
  8
0
 62
7
100
AcDbSpline
 70
8
 71
3
 72
8
 73
4
 74
0
 40
0
 40
0
 40
0
 40
0
 40
1
 40
1
 40
1
 40
1
 10
26.569732
 20
45.555444
 30
0.0
 10
26.277755
 20
46.822648
 30
0.0
 10
25.468007
 20
47.597696
 30
0.0
 10
24.265064
 20
48.004596
 30
0.0
  0
SPLINE
  5
10c
100
AcDbEntity
  8
0
 62
7
100
AcDbSpline
 70
8
 71
3
 72
8
 73
4
 74
0
 40
0
 40
0
 40
0
 40
0
 40
1
 40
1
 40
1
 40
1
 10
24.265064
 20
48.004596
 30
0.0
 10
24.074306
 20
48.070475
 30
0.0
 10
23.980874
 20
48.147980
 30
0.0
 10
23.965301
 20
48.388245
 30
0.0
  0
SPLINE
  5
10d
100
AcDbEntity
  8
0
 62
7
100
AcDbSpline
 70
8
 71
3
 72
8
 73
4
 74
0
 40
0
 40
0
 40
0
 40
0
 40
1
 40
1
 40
1
 40
1
 10
23.965301
 20
48.388245
 30
0.0
 10
23.864083
 20
49.725202
 30
0.0
 10
22.754572
 20
50.721139
 30
0.0
 10
21.648955
 20
50.752141
 30
0.0
  0
SPLINE
  5
10e
100
AcDbEntity
  8
0
 62
7
100
AcDbSpline
 70
8
 71
3
 72
8
 73
4
 74
0
 40
0
 40
0
 40
0
 40
0
 40
1
 40
1
 40
1
 40
1
 10
21.648955
 20
50.752141
 30
0.0
 10
21.512699
 20
50.756016
 30
0.0
 10
21.434838
 20
50.802519
 30
0.0
 10
21.376443
 20
50.934277
 30
0.0
  0
SPLINE
  5
10f
100
AcDbEntity
  8
0
 62
7
100
AcDbSpline
 70
8
 71
3
 72
8
 73
4
 74
0
 40
0
 40
0
 40
0
 40
0
 40
1
 40
1
 40
1
 40
1
 10
21.376443
 20
50.934277
 30
0.0
 10
20.878137
 20
52.058097
 30
0.0
 10
19.850379
 20
52.224732
 30
0.0
 10
18.729190
 20
52.069723
 30
0.0
  0
SPLINE
  5
110
100
AcDbEntity
  8
0
 62
7
100
AcDbSpline
 70
8
 71
3
 72
8
 73
4
 74
0
 40
0
 40
0
 40
0
 40
0
 40
1
 40
1
 40
1
 40
1
 10
18.729190
 20
52.069723
 30
0.0
 10
18.546218
 20
52.046471
 30
0.0
 10
18.464464
 20
52.089099
 30
0.0
 10
18.359353
 20
52.216982
 30
0.0
  0
SPLINE
  5
111
100
AcDbEntity
  8
0
 62
7
100
AcDbSpline
 70
8
 71
3
 72
8
 73
4
 74
0
 40
0
 40
0
 40
0
 40
0
 40
1
 40
1
 40
1
 40
1
 10
18.359353
 20
52.216982
 30
0.0
 10
18.094627
 20
52.542502
 30
0.0
 10
17.775400
 20
52.802143
 30
0.0
 10
17.417242
 20
53.026907
 30
0.0
  0
SPLINE
  5
112
100
AcDbEntity
  8
0
 62
7
100
AcDbSpline
 70
8
 71
3
 72
8
 73
4
 74
0
 40
0
 40
0
 40
0
 40
0
 40
1
 40
1
 40
1
 40
1
 10
17.417242
 20
53.026907
 30
0.0
 10
16.837182
 20
53.391179
 30
0.0
 10
16.206513
 20
53.309799
 30
0.0
 10
15.575843
 20
53.344677
 30
0.0
  0
SPLINE
  5
113
100
AcDbEntity
  8
0
 62
7
100
AcDbSpline
 70
8
 71
3
 72
8
 73
4
 74
0
 40
0
 40
0
 40
0
 40
0
 40
1
 40
1
 40
1
 40
1
 10
15.575843
 20
53.344677
 30
0.0
 10
15.050286
 20
53.371803
 30
0.0
 10
14.590909
 20
53.224544
 30
0.0
 10
14.170463
 20
52.941652
 30
0.0
  0
SPLINE
  5
114
100
AcDbEntity
  8
0
 62
7
100
AcDbSpline
 70
8
 71
3
 72
8
 73
4
 74
0
 40
0
 40
0
 40
0
 40
0
 40
1
 40
1
 40
1
 40
1
 10
14.170463
 20
52.941652
 30
0.0
 10
13.625440
 20
52.577379
 30
0.0
 10
13.341250
 20
52.003844
 30
0.0
 10
13.014236
 20
51.469060
 30
0.0
  0
SPLINE
  5
115
100
AcDbEntity
  8
0
 62
7
100
AcDbSpline
 70
8
 71
3
 72
8
 73
4
 74
0
 40
0
 40
0
 40
0
 40
0
 40
1
 40
1
 40
1
 40
1
 10
13.014236
 20
51.469060
 30
0.0
 10
12.897446
 20
51.279174
 30
0.0
 10
12.788441
 20
51.170667
 30
0.0
 10
12.531502
 20
51.128039
 30
0.0
  0
SPLINE
  5
116
100
AcDbEntity
  8
0
 62
7
100
AcDbSpline
 70
8
 71
3
 72
8
 73
4
 74
0
 40
0
 40
0
 40
0
 40
0
 40
1
 40
1
 40
1
 40
1
 10
12.531502
 20
51.128039
 30
0.0
 10
12.157772
 20
51.069911
 30
0.0
 10
11.756791
 20
51.178417
 30
0.0
 10
11.418098
 20
51.046659
 30
0.0
  0
SPLINE
  5
117
100
AcDbEntity
  8
0
 62
7
100
AcDbSpline
 70
8
 71
3
 72
8
 73
4
 74
0
 40
0
 40
0
 40
0
 40
0
 40
1
 40
1
 40
1
 40
1
 10
11.418098
 20
51.046659
 30
0.0
 10
10.569420
 20
50.709513
 30
0.0
 10
9.969895
 20
50.089475
 30
0.0
 10
9.853104
 20
49.027659
 30
0.0
  0
SPLINE
  5
118
100
AcDbEntity
  8
0
 62
7
100
AcDbSpline
 70
8
 71
3
 72
8
 73
4
 74
0
 40
0
 40
0
 40
0
 40
0
 40
1
 40
1
 40
1
 40
1
 10
9.853104
 20
49.027659
 30
0.0
 10
9.829746
 20
48.814521
 30
0.0
 10
9.790816
 20
48.760268
 30
0.0
 10
9.568914
 20
48.713765
 30
0.0
  0
SPLINE
  5
119
100
AcDbEntity
  8
0
 62
7
100
AcDbSpline
 70
8
 71
3
 72
8
 73
4
 74
0
 40
0
 40
0
 40
0
 40
0
 40
1
 40
1
 40
1
 40
1
 10
9.568914
 20
48.713765
 30
0.0
 10
8.097352
 20
48.430872
 30
0.0
 10
7.046237
 20
47.248924
 30
0.0
 10
6.871051
 20
45.772458
 30
0.0
  0
SPLINE
  5
11a
100
AcDbEntity
  8
0
 62
7
100
AcDbSpline
 70
8
 71
3
 72
8
 73
4
 74
0
 40
0
 40
0
 40
0
 40
0
 40
1
 40
1
 40
1
 40
1
 10
6.871051
 20
45.772458
 30
0.0
 10
6.800976
 20
45.171795
 30
0.0
 10
6.707544
 20
44.745519
 30
0.0
 10
6.217023
 20
44.311492
 30
0.0
  0
SPLINE
  5
11b
100
AcDbEntity
  8
0
 62
7
100
AcDbSpline
 70
8
 71
3
 72
8
 73
4
 74
0
 40
0
 40
0
 40
0
 40
0
 40
1
 40
1
 40
1
 40
1
 10
6.217023
 20
44.311492
 30
0.0
 10
5.321629
 20
43.517068
 30
0.0
 10
4.982936
 20
42.424250
 30
0.0
 10
5.060796
 20
41.230676
 30
0.0
  0
SPLINE
  5
11c
100
AcDbEntity
  8
0
 62
7
100
AcDbSpline
 70
8
 71
3
 72
8
 73
4
 74
0
 40
0
 40
0
 40
0
 40
0
 40
1
 40
1
 40
1
 40
1
 10
5.060796
 20
41.230676
 30
0.0
 10
5.103620
 20
40.602887
 30
0.0
 10
4.947899
 20
40.118482
 30
0.0
 10
4.488522
 20
39.641828
 30
0.0
  0
SPLINE
  5
11d
100
AcDbEntity
  8
0
 62
7
100
AcDbSpline
 70
8
 71
3
 72
8
 73
4
 74
0
 40
0
 40
0
 40
0
 40
0
 40
1
 40
1
 40
1
 40
1
 10
4.488522
 20
39.641828
 30
0.0
 10
3.632058
 20
38.762148
 30
0.0
 10
3.398477
 20
37.661580
 30
0.0
 10
3.670988
 20
36.475757
 30
0.0
  0
SPLINE
  5
11e
100
AcDbEntity
  8
0
 62
7
100
AcDbSpline
 70
8
 71
3
 72
8
 73
4
 74
0
 40
0
 40
0
 40
0
 40
0
 40
1
 40
1
 40
1
 40
1
 10
3.670988
 20
36.475757
 30
0.0
 10
3.760528
 20
36.084358
 30
0.0
 10
3.721597
 20
35.758837
 30
0.0
 10
3.554198
 20
35.394565
 30
0.0
  0
SPLINE
  5
11f
100
AcDbEntity
  8
0
 62
7
100
AcDbSpline
 70
8
 71
3
 72
8
 73
4
 74
0
 40
0
 40
0
 40
0
 40
0
 40
1
 40
1
 40
1
 40
1
 10
3.554198
 20
35.394565
 30
0.0
 10
3.125965
 20
34.456757
 30
0.0
 10
2.997496
 20
33.495697
 30
0.0
 10
3.577556
 20
32.557889
 30
0.0
  0
SPLINE
  5
120
100
AcDbEntity
  8
0
 62
7
100
AcDbSpline
 70
8
 71
3
 72
8
 73
4
 74
0
 40
0
 40
0
 40
0
 40
0
 40
1
 40
1
 40
1
 40
1
 10
3.577556
 20
32.557889
 30
0.0
 10
3.725490
 20
32.317624
 30
0.0
 10
3.659309
 20
32.085110
 30
0.0
 10
3.550305
 20
31.868096
 30
0.0
  0
SPLINE
  5
121
100
AcDbEntity
  8
0
 62
7
100
AcDbSpline
 70
8
 71
3
 72
8
 73
4
 74
0
 40
0
 40
0
 40
0
 40
0
 40
1
 40
1
 40
1
 40
1
 10
3.550305
 20
31.868096
 30
0.0
 10
3.110393
 20
30.976791
 30
0.0
 10
2.989710
 20
30.085486
 30
0.0
 10
3.503588
 20
29.182555
 30
0.0
  0
SPLINE
  5
122
100
AcDbEntity
  8
0
 62
7
100
AcDbSpline
 70
8
 71
3
 72
8
 73
4
 74
0
 40
0
 40
0
 40
0
 40
0
 40
1
 40
1
 40
1
 40
1
 10
3.503588
 20
29.182555
 30
0.0
 10
3.620379
 20
28.977167
 30
0.0
 10
3.589235
 20
28.783405
 30
0.0
 10
3.511374
 20
28.570267
 30
0.0
  0
SPLINE
  5
123
100
AcDbEntity
  8
0
 62
7
100
AcDbSpline
 70
8
 71
3
 72
8
 73
4
 74
0
 40
0
 40
0
 40
0
 40
0
 40
1
 40
1
 40
1
 40
1
 10
3.511374
 20
28.570267
 30
0.0
 10
3.406263
 20
28.283499
 30
0.0
 10
3.273900
 20
27.969605
 30
0.0
 10
3.355654
 20
27.671212
 30
0.0
  0
SPLINE
  5
124
100
AcDbEntity
  8
0
 62
7
100
AcDbSpline
 70
8
 71
3
 72
8
 73
4
 74
0
 40
0
 40
0
 40
0
 40
0
 40
1
 40
1
 40
1
 40
1
 10
3.355654
 20
27.671212
 30
0.0
 10
3.480230
 20
27.221684
 30
0.0
 10
3.359547
 20
26.814784
 30
0.0
 10
3.211612
 20
26.419509
 30
0.0
  0
SPLINE
  5
125
100
AcDbEntity
  8
0
 62
7
100
AcDbSpline
 70
8
 71
3
 72
8
 73
4
 74
0
 40
0
 40
0
 40
0
 40
0
 40
1
 40
1
 40
1
 40
1
 10
3.211612
 20
26.419509
 30
0.0
 10
2.939100
 20
25.694839
 30
0.0
 10
2.931314
 20
24.989545
 30
0.0
 10
3.227184
 20
24.272626
 30
0.0
  0
SPLINE
  5
126
100
AcDbEntity
  8
0
 62
7
100
AcDbSpline
 70
8
 71
3
 72
8
 73
4
 74
0
 40
0
 40
0
 40
0
 40
0
 40
1
 40
1
 40
1
 40
1
 10
3.227184
 20
24.272626
 30
0.0
 10
3.390691
 20
23.873476
 30
0.0
 10
3.476337
 20
23.462701
 30
0.0
 10
3.351761
 20
23.020924
 30
0.0
  0
SPLINE
  5
127
100
AcDbEntity
  8
0
 62
7
100
AcDbSpline
 70
8
 71
3
 72
8
 73
4
 74
0
 40
0
 40
0
 40
0
 40
0
 40
1
 40
1
 40
1
 40
1
 10
3.351761
 20
23.020924
 30
0.0
 10
3.207719
 20
22.521018
 30
0.0
 10
3.098714
 20
21.997860
 30
0.0
 10
3.125965
 20
21.486329
 30
0.0
  0
SPLINE
  5
128
100
AcDbEntity
  8
0
 62
7
100
AcDbSpline
 70
8
 71
3
 72
8
 73
4
 74
0
 40
0
 40
0
 40
0
 40
0
 40
1
 40
1
 40
1
 40
1
 10
3.125965
 20
21.486329
 30
0.0
 10
3.176575
 20
20.552396
 30
0.0
 10
3.530839
 20
19.726970
 30
0.0
 10
4.251048
 20
19.083680
 30
0.0
  0
SPLINE
  5
129
100
AcDbEntity
  8
0
 62
7
100
AcDbSpline
 70
8
 71
3
 72
8
 73
4
 74
0
 40
0
 40
0
 40
0
 40
0
 40
1
 40
1
 40
1
 40
1
 10
4.251048
 20
19.083680
 30
0.0
 10
4.710425
 20
18.676780
 30
0.0
 10
4.796071
 20
18.138121
 30
0.0
 10
4.706532
 20
17.568461
 30
0.0
  0
SPLINE
  5
12a
100
AcDbEntity
  8
0
 62
7
100
AcDbSpline
 70
8
 71
3
 72
8
 73
4
 74
0
 40
0
 40
0
 40
0
 40
0
 40
1
 40
1
 40
1
 40
1
 10
4.706532
 20
17.568461
 30
0.0
 10
4.504094
 20
16.281881
 30
0.0
 10
4.908969
 20
15.212315
 30
0.0
 10
5.956191
 20
14.464394
 30
0.0
  0
SPLINE
  5
12b
100
AcDbEntity
  8
0
 62
7
100
AcDbSpline
 70
8
 71
3
 72
8
 73
4
 74
0
 40
0
 40
0
 40
0
 40
0
 40
1
 40
1
 40
1
 40
1
 10
5.956191
 20
14.464394
 30
0.0
 10
6.435032
 20
14.123373
 30
0.0
 10
6.653042
 20
13.724223
 30
0.0
 10
6.742581
 20
13.193315
 30
0.0
  0
SPLINE
  5
12c
100
AcDbEntity
  8
0
 62
7
100
AcDbSpline
 70
8
 71
3
 72
8
 73
4
 74
0
 40
0
 40
0
 40
0
 40
0
 40
1
 40
1
 40
1
 40
1
 10
6.742581
 20
13.193315
 30
0.0
 10
6.777618
 20
12.995678
 30
0.0
 10
6.785404
 20
12.794165
 30
0.0
 10
6.839906
 20
12.604278
 30
0.0
  0
SPLINE
  5
12d
100
AcDbEntity
  8
0
 62
7
100
AcDbSpline
 70
8
 71
3
 72
8
 73
4
 74
0
 40
0
 40
0
 40
0
 40
0
 40
1
 40
1
 40
1
 40
1
 10
6.839906
 20
12.604278
 30
0.0
 10
7.069595
 20
11.805979
 30
0.0
 10
7.291497
 20
10.996054
 30
0.0
 10
8.132389
 20
10.585278
 30
0.0
  0
SPLINE
  5
12e
100
AcDbEntity
  8
0
 62
7
100
AcDbSpline
 70
8
 71
3
 72
8
 73
4
 74
0
 40
0
 40
0
 40
0
 40
0
 40
1
 40
1
 40
1
 40
1
 10
8.132389
 20
10.585278
 30
0.0
 10
8.241394
 20
10.531025
 30
0.0
 10
8.295896
 20
10.469021
 30
0.0
 10
8.303682
 20
10.341138
 30
0.0
  0
SPLINE
  5
12f
100
AcDbEntity
  8
0
 62
7
100
AcDbSpline
 70
8
 71
3
 72
8
 73
4
 74
0
 40
0
 40
0
 40
0
 40
0
 40
1
 40
1
 40
1
 40
1
 10
8.303682
 20
10.341138
 30
0.0
 10
8.311468
 20
10.240382
 30
0.0
 10
8.327040
 20
10.139626
 30
0.0
 10
8.346505
 20
10.042745
 30
0.0
  0
SPLINE
  5
130
100
AcDbEntity
  8
0
 62
7
100
AcDbSpline
 70
8
 71
3
 72
8
 73
4
 74
0
 40
0
 40
0
 40
0
 40
0
 40
1
 40
1
 40
1
 40
1
 10
8.346505
 20
10.042745
 30
0.0
 10
8.404901
 20
9.779228
 30
0.0
 10
8.510012
 20
9.527338
 30
0.0
 10
8.615124
 20
9.275447
 30
0.0
  0
SPLINE
  5
131
100
AcDbEntity
  8
0
 62
7
100
AcDbSpline
 70
8
 71
3
 72
8
 73
4
 74
0
 40
0
 40
0
 40
0
 40
0
 40
1
 40
1
 40
1
 40
1
 10
8.615124
 20
9.275447
 30
0.0
 10
8.626803
 20
9.248321
 30
0.0
 10
8.634589
 20
9.225069
 30
0.0
 10
8.646268
 20
9.197942
 30
0.0
  0
SPLINE
  5
132
100
AcDbEntity
  8
0
 62
7
100
AcDbSpline
 70
8
 71
3
 72
8
 73
4
 74
0
 40
0
 40
0
 40
0
 40
0
 40
1
 40
1
 40
1
 40
1
 10
8.646268
 20
9.197942
 30
0.0
 10
8.630696
 20
9.139814
 30
0.0
 10
8.626803
 20
9.070060
 30
0.0
 10
8.607338
 20
9.015806
 30
0.0
  0
SPLINE
  5
133
100
AcDbEntity
  8
0
 62
7
100
AcDbSpline
 70
8
 71
3
 72
8
 73
4
 74
0
 40
0
 40
0
 40
0
 40
0
 40
1
 40
1
 40
1
 40
1
 10
8.607338
 20
9.015806
 30
0.0
 10
8.599552
 20
9.000305
 30
0.0
 10
8.591765
 20
8.984804
 30
0.0
 10
8.580086
 20
8.973179
 30
0.0
  0
SPLINE
  5
134
100
AcDbEntity
  8
0
 62
7
100
AcDbSpline
 70
8
 71
3
 72
8
 73
4
 74
0
 40
0
 40
0
 40
0
 40
0
 40
1
 40
1
 40
1
 40
1
 10
8.580086
 20
8.973179
 30
0.0
 10
7.883236
 20
8.349265
 30
0.0
 10
7.992240
 20
7.601344
 30
0.0
 10
8.218036
 20
6.822420
 30
0.0
  0
SPLINE
  5
135
100
AcDbEntity
  8
0
 62
7
100
AcDbSpline
 70
8
 71
3
 72
8
 73
4
 74
0
 40
0
 40
0
 40
0
 40
0
 40
1
 40
1
 40
1
 40
1
 10
8.218036
 20
6.822420
 30
0.0
 10
8.288110
 20
6.574405
 30
0.0
 10
8.393221
 20
6.512401
 30
0.0
 10
8.599552
 20
6.694537
 30
0.0
  0
SPLINE
  5
136
100
AcDbEntity
  8
0
 62
7
100
AcDbSpline
 70
8
 71
3
 72
8
 73
4
 74
0
 40
0
 40
0
 40
0
 40
0
 40
1
 40
1
 40
1
 40
1
 10
8.599552
 20
6.694537
 30
0.0
 10
8.685198
 20
6.768167
 30
0.0
 10
8.770844
 20
6.834046
 30
0.0
 10
8.864277
 20
6.896050
 30
0.0
  0
SPLINE
  5
137
100
AcDbEntity
  8
0
 62
7
100
AcDbSpline
 70
8
 71
3
 72
8
 73
4
 74
0
 40
0
 40
0
 40
0
 40
0
 40
1
 40
1
 40
1
 40
1
 10
8.864277
 20
6.896050
 30
0.0
 10
9.136788
 20
7.085937
 30
0.0
 10
9.432658
 20
7.237071
 30
0.0
 10
9.709062
 20
7.419207
 30
0.0
  0
SPLINE
  5
138
100
AcDbEntity
  8
0
 62
7
100
AcDbSpline
 70
8
 71
3
 72
8
 73
4
 74
0
 40
0
 40
0
 40
0
 40
0
 40
1
 40
1
 40
1
 40
1
 10
9.709062
 20
7.419207
 30
0.0
 10
9.938750
 20
7.434708
 30
0.0
 10
10.001039
 20
7.326202
 30
0.0
 10
10.012718
 20
7.175067
 30
0.0
  0
SPLINE
  5
139
100
AcDbEntity
  8
0
 62
7
100
AcDbSpline
 70
8
 71
3
 72
8
 73
4
 74
0
 40
0
 40
0
 40
0
 40
0
 40
1
 40
1
 40
1
 40
1
 10
10.012718
 20
7.175067
 30
0.0
 10
10.016611
 20
7.124689
 30
0.0
 10
10.012718
 20
7.070436
 30
0.0
 10
10.008825
 20
7.016182
 30
0.0
  0
SPLINE
  5
13a
100
AcDbEntity
  8
0
 62
7
100
AcDbSpline
 70
8
 71
3
 72
8
 73
4
 74
0
 40
0
 40
0
 40
0
 40
0
 40
1
 40
1
 40
1
 40
1
 10
10.008825
 20
7.016182
 30
0.0
 10
9.350904
 20
6.675161
 30
0.0
 10
8.735807
 20
6.279887
 30
0.0
 10
8.358184
 20
5.613345
 30
0.0
  0
SPLINE
  5
13b
100
AcDbEntity
  8
0
 62
7
100
AcDbSpline
 70
8
 71
3
 72
8
 73
4
 74
0
 40
0
 40
0
 40
0
 40
0
 40
1
 40
1
 40
1
 40
1
 10
8.358184
 20
5.613345
 30
0.0
 10
8.432152
 20
5.559092
 30
0.0
 10
8.471082
 20
5.609470
 30
0.0
 10
8.517798
 20
5.628846
 30
0.0
  0
SPLINE
  5
13c
100
AcDbEntity
  8
0
 62
7
100
AcDbSpline
 70
8
 71
3
 72
8
 73
4
 74
0
 40
0
 40
0
 40
0
 40
0
 40
1
 40
1
 40
1
 40
1
 10
8.517798
 20
5.628846
 30
0.0
 10
8.848705
 20
5.776106
 30
0.0
 10
9.179612
 20
5.927240
 30
0.0
 10
9.510518
 20
6.078374
 30
0.0
  0
SPLINE
  5
13d
100
AcDbEntity
  8
0
 62
7
100
AcDbSpline
 70
8
 71
3
 72
8
 73
4
 74
0
 40
0
 40
0
 40
0
 40
0
 40
1
 40
1
 40
1
 40
1
 10
9.510518
 20
6.078374
 30
0.0
 10
9.611737
 20
6.124877
 30
0.0
 10
9.732420
 20
6.171380
 30
0.0
 10
9.810281
 20
6.078374
 30
0.0
  0
SPLINE
  5
13e
100
AcDbEntity
  8
0
 62
7
100
AcDbSpline
 70
8
 71
3
 72
8
 73
4
 74
0
 40
0
 40
0
 40
0
 40
0
 40
1
 40
1
 40
1
 40
1
 10
9.810281
 20
6.078374
 30
0.0
 10
9.899820
 20
5.973743
 30
0.0
 10
9.802495
 20
5.880737
 30
0.0
 10
9.728527
 20
5.803232
 30
0.0
  0
SPLINE
  5
13f
100
AcDbEntity
  8
0
 62
7
100
AcDbSpline
 70
8
 71
3
 72
8
 73
4
 74
0
 40
0
 40
0
 40
0
 40
0
 40
1
 40
1
 40
1
 40
1
 10
9.728527
 20
5.803232
 30
0.0
 10
9.642881
 20
5.714102
 30
0.0
 10
9.557234
 20
5.628846
 30
0.0
 10
9.471588
 20
5.547466
 30
0.0
  0
SPLINE
  5
140
100
AcDbEntity
  8
0
 62
7
100
AcDbSpline
 70
8
 71
3
 72
8
 73
4
 74
0
 40
0
 40
0
 40
0
 40
0
 40
1
 40
1
 40
1
 40
1
 10
9.471588
 20
5.547466
 30
0.0
 10
9.179612
 20
5.268449
 30
0.0
 10
8.926565
 20
4.966180
 30
0.0
 10
8.821454
 20
4.570906
 30
0.0
  0
SPLINE
  5
141
100
AcDbEntity
  8
0
 62
7
100
AcDbSpline
 70
8
 71
3
 72
8
 73
4
 74
0
 40
0
 40
0
 40
0
 40
0
 40
1
 40
1
 40
1
 40
1
 10
8.821454
 20
4.570906
 30
0.0
 10
8.903207
 20
4.508902
 30
0.0
 10
8.961602
 20
4.528278
 30
0.0
 10
9.031677
 20
4.543779
 30
0.0
  0
SPLINE
  5
142
100
AcDbEntity
  8
0
 62
7
100
AcDbSpline
 70
8
 71
3
 72
8
 73
4
 74
0
 40
0
 40
0
 40
0
 40
0
 40
1
 40
1
 40
1
 40
1
 10
9.031677
 20
4.543779
 30
0.0
 10
9.588379
 20
4.667787
 30
0.0
 10
10.090578
 20
4.931303
 30
0.0
 10
10.600564
 20
5.163818
 30
0.0
  0
SPLINE
  5
143
100
AcDbEntity
  8
0
 62
7
100
AcDbSpline
 70
8
 71
3
 72
8
 73
4
 74
0
 40
0
 40
0
 40
0
 40
0
 40
1
 40
1
 40
1
 40
1
 10
10.600564
 20
5.163818
 30
0.0
 10
10.693996
 20
5.206445
 30
0.0
 10
10.806894
 20
5.291701
 30
0.0
 10
10.880861
 20
5.159942
 30
0.0
  0
SPLINE
  5
144
100
AcDbEntity
  8
0
 62
7
100
AcDbSpline
 70
8
 71
3
 72
8
 73
4
 74
0
 40
0
 40
0
 40
0
 40
0
 40
1
 40
1
 40
1
 40
1
 10
10.880861
 20
5.159942
 30
0.0
 10
10.939257
 20
5.055311
 30
0.0
 10
10.888647
 20
4.970056
 30
0.0
 10
10.787429
 20
4.888676
 30
0.0
  0
SPLINE
  5
145
100
AcDbEntity
  8
0
 62
7
100
AcDbSpline
 70
8
 71
3
 72
8
 73
4
 74
0
 40
0
 40
0
 40
0
 40
0
 40
1
 40
1
 40
1
 40
1
 10
10.787429
 20
4.888676
 30
0.0
 10
10.561634
 20
4.714290
 30
0.0
 10
10.429271
 20
4.458524
 30
0.0
 10
10.265764
 20
4.229885
 30
0.0
  0
SPLINE
  5
146
100
AcDbEntity
  8
0
 62
7
100
AcDbSpline
 70
8
 71
3
 72
8
 73
4
 74
0
 40
0
 40
0
 40
0
 40
0
 40
1
 40
1
 40
1
 40
1
 10
10.265764
 20
4.229885
 30
0.0
 10
10.195690
 20
4.133004
 30
0.0
 10
10.075006
 20
4.016747
 30
0.0
 10
10.145080
 20
3.912115
 30
0.0
  0
SPLINE
  5
147
100
AcDbEntity
  8
0
 62
7
100
AcDbSpline
 70
8
 71
3
 72
8
 73
4
 74
0
 40
0
 40
0
 40
0
 40
0
 40
1
 40
1
 40
1
 40
1
 10
10.145080
 20
3.912115
 30
0.0
 10
10.222941
 20
3.799733
 30
0.0
 10
10.363090
 20
3.884988
 30
0.0
 10
10.479880
 20
3.923741
 30
0.0
  0
SPLINE
  5
148
100
AcDbEntity
  8
0
 62
7
100
AcDbSpline
 70
8
 71
3
 72
8
 73
4
 74
0
 40
0
 40
0
 40
0
 40
0
 40
1
 40
1
 40
1
 40
1
 10
10.479880
 20
3.923741
 30
0.0
 10
10.900326
 20
4.063249
 30
0.0
 10
11.328559
 20
4.179507
 30
0.0
 10
11.729540
 20
4.384894
 30
0.0
  0
SPLINE
  5
149
100
AcDbEntity
  8
0
 62
7
100
AcDbSpline
 70
8
 71
3
 72
8
 73
4
 74
0
 40
0
 40
0
 40
0
 40
0
 40
1
 40
1
 40
1
 40
1
 10
11.729540
 20
4.384894
 30
0.0
 10
11.850223
 20
4.446898
 30
0.0
 10
12.005944
 20
4.485651
 30
0.0
 10
12.099376
 20
4.353892
 30
0.0
  0
SPLINE
  5
14a
100
AcDbEntity
  8
0
 62
7
100
AcDbSpline
 70
8
 71
3
 72
8
 73
4
 74
0
 40
0
 40
0
 40
0
 40
0
 40
1
 40
1
 40
1
 40
1
 10
12.099376
 20
4.353892
 30
0.0
 10
12.177237
 20
4.245386
 30
0.0
 10
12.111056
 20
4.125253
 30
0.0
 10
12.017623
 20
4.028372
 30
0.0
  0
SPLINE
  5
14b
100
AcDbEntity
  8
0
 62
7
100
AcDbSpline
 70
8
 71
3
 72
8
 73
4
 74
0
 40
0
 40
0
 40
0
 40
0
 40
1
 40
1
 40
1
 40
1
 10
12.017623
 20
4.028372
 30
0.0
 10
11.869688
 20
3.881113
 30
0.0
 10
11.791828
 20
3.698977
 30
0.0
 10
11.784042
 20
3.474213
 30
0.0
  0
SPLINE
  5
14c
100
AcDbEntity
  8
0
 62
7
100
AcDbSpline
 70
8
 71
3
 72
8
 73
4
 74
0
 40
0
 40
0
 40
0
 40
0
 40
1
 40
1
 40
1
 40
1
 10
11.784042
 20
3.474213
 30
0.0
 10
11.947549
 20
3.447086
 30
0.0
 10
12.095483
 20
3.466463
 30
0.0
 10
12.258990
 20
3.509090
 30
0.0
  0
SPLINE
  5
14d
100
AcDbEntity
  8
0
 62
7
100
AcDbSpline
 70
8
 71
3
 72
8
 73
4
 74
0
 40
0
 40
0
 40
0
 40
0
 40
1
 40
1
 40
1
 40
1
 10
12.258990
 20
3.509090
 30
0.0
 10
12.403032
 20
3.543967
 30
0.0
 10
12.535395
 20
3.609846
 30
0.0
 10
12.675543
 20
3.664100
 30
0.0
  0
SPLINE
  5
14e
100
AcDbEntity
  8
0
 62
7
100
AcDbSpline
 70
8
 71
3
 72
8
 73
4
 74
0
 40
0
 40
0
 40
0
 40
0
 40
1
 40
1
 40
1
 40
1
 10
12.675543
 20
3.664100
 30
0.0
 10
12.811799
 20
3.718353
 30
0.0
 10
12.951948
 20
3.768731
 30
0.0
 10
13.103776
 20
3.776482
 30
0.0
  0
SPLINE
  5
14f
100
AcDbEntity
  8
0
 62
7
100
AcDbSpline
 70
8
 71
3
 72
8
 73
4
 74
0
 40
0
 40
0
 40
0
 40
0
 40
1
 40
1
 40
1
 40
1
 10
13.103776
 20
3.776482
 30
0.0
 10
13.193315
 20
3.718353
 30
0.0
 10
13.278962
 20
3.660225
 30
0.0
 10
13.345143
 20
3.582720
 30
0.0
  0
SPLINE
  5
150
100
AcDbEntity
  8
0
 62
7
100
AcDbSpline
 70
8
 71
3
 72
8
 73
4
 74
0
 40
0
 40
0
 40
0
 40
0
 40
1
 40
1
 40
1
 40
1
 10
13.345143
 20
3.582720
 30
0.0
 10
13.407431
 20
3.505215
 30
0.0
 10
13.450254
 20
3.416084
 30
0.0
 10
13.446361
 20
3.292077
 30
0.0
  0
SPLINE
  5
151
100
AcDbEntity
  8
0
 62
7
100
AcDbSpline
 70
8
 71
3
 72
8
 73
4
 74
0
 40
0
 40
0
 40
0
 40
0
 40
1
 40
1
 40
1
 40
1
 10
13.446361
 20
3.292077
 30
0.0
 10
13.403538
 20
3.067313
 30
0.0
 10
13.481399
 20
2.993683
 30
0.0
 10
13.602082
 20
2.974307
 30
0.0
  0
SPLINE
  5
152
100
AcDbEntity
  8
0
 62
7
100
AcDbSpline
 70
8
 71
3
 72
8
 73
4
 74
0
 40
0
 40
0
 40
0
 40
0
 40
1
 40
1
 40
1
 40
1
 10
13.602082
 20
2.974307
 30
0.0
 10
13.676050
 20
2.962681
 30
0.0
 10
13.761696
 20
2.970432
 30
0.0
 10
13.847342
 20
2.978182
 30
0.0
  0
SPLINE
  5
153
100
AcDbEntity
  8
0
 62
7
100
AcDbSpline
 70
8
 71
3
 72
8
 73
4
 74
0
 40
0
 40
0
 40
0
 40
0
 40
1
 40
1
 40
1
 40
1
 10
13.847342
 20
2.978182
 30
0.0
 10
13.936882
 20
2.978182
 30
0.0
 10
13.975812
 20
2.939430
 30
0.0
 10
13.999170
 20
2.885177
 30
0.0
  0
SPLINE
  5
154
100
AcDbEntity
  8
0
 62
7
100
AcDbSpline
 70
8
 71
3
 72
8
 73
4
 74
0
 40
0
 40
0
 40
0
 40
0
 40
1
 40
1
 40
1
 40
1
 10
13.999170
 20
2.885177
 30
0.0
 10
14.018635
 20
2.830923
 30
0.0
 10
14.022528
 20
2.765044
 30
0.0
 10
14.045886
 20
2.718541
 30
0.0
  0
SPLINE
  5
155
100
AcDbEntity
  8
0
 62
7
100
AcDbSpline
 70
8
 71
3
 72
8
 73
4
 74
0
 40
0
 40
0
 40
0
 40
0
 40
1
 40
1
 40
1
 40
1
 10
14.045886
 20
2.718541
 30
0.0
 10
14.213286
 20
2.342643
 30
0.0
 10
14.454654
 20
2.067501
 30
0.0
 10
14.875100
 20
1.966745
 30
0.0
  0
SPLINE
  5
156
100
AcDbEntity
  8
0
 62
7
100
AcDbSpline
 70
8
 71
3
 72
8
 73
4
 74
0
 40
0
 40
0
 40
0
 40
0
 40
1
 40
1
 40
1
 40
1
 10
14.875100
 20
1.966745
 30
0.0
 10
15.618667
 20
1.788484
 30
0.0
 10
16.377805
 20
1.745856
 30
0.0
 10
17.117479
 20
1.858238
 30
0.0
  0
SPLINE
  5
157
100
AcDbEntity
  8
0
 62
7
100
AcDbSpline
 70
8
 71
3
 72
8
 73
4
 74
0
 40
0
 40
0
 40
0
 40
0
 40
1
 40
1
 40
1
 40
1
 10
17.117479
 20
1.858238
 30
0.0
 10
17.752042
 20
1.955119
 30
0.0
 10
18.324315
 20
2.230261
 30
0.0
 10
18.491715
 20
2.974307
 30
0.0
  0
SPLINE
  5
158
100
AcDbEntity
  8
0
 62
7
100
AcDbSpline
 70
8
 71
3
 72
8
 73
4
 74
0
 40
0
 40
0
 40
0
 40
0
 40
1
 40
1
 40
1
 40
1
 10
18.491715
 20
2.974307
 30
0.0
 10
18.546218
 20
3.206821
 30
0.0
 10
18.775906
 20
3.323079
 30
0.0
 10
19.036738
 20
3.299827
 30
0.0
  0
SPLINE
  5
159
100
AcDbEntity
  8
0
 62
7
100
AcDbSpline
 70
8
 71
3
 72
8
 73
4
 74
0
 40
0
 40
0
 40
0
 40
0
 40
1
 40
1
 40
1
 40
1
 10
19.036738
 20
3.299827
 30
0.0
 10
19.250854
 20
3.264950
 30
0.0
 10
19.394896
 20
3.082814
 30
0.0
 10
19.605119
 20
3.032436
 30
0.0
  0
SPLINE
  5
15a
100
AcDbEntity
  8
0
 62
7
100
AcDbSpline
 70
8
 71
3
 72
8
 73
4
 74
0
 40
0
 40
0
 40
0
 40
0
 40
1
 40
1
 40
1
 40
1
 10
19.605119
 20
3.032436
 30
0.0
 10
19.971063
 20
2.939430
 30
0.0
 10
20.118998
 20
3.047937
 30
0.0
 10
20.091747
 20
3.431585
 30
0.0
  0
SPLINE
  5
15b
100
AcDbEntity
  8
0
 62
7
100
AcDbSpline
 70
8
 71
3
 72
8
 73
4
 74
0
 40
0
 40
0
 40
0
 40
0
 40
1
 40
1
 40
1
 40
1
 10
20.091747
 20
3.431585
 30
0.0
 10
20.083961
 20
3.559468
 30
0.0
 10
20.021672
 20
3.679601
 30
0.0
 10
20.009993
 20
3.807484
 30
0.0
  0
SPLINE
  5
15c
100
AcDbEntity
  8
0
 62
7
100
AcDbSpline
 70
8
 71
3
 72
8
 73
4
 74
0
 40
0
 40
0
 40
0
 40
0
 40
1
 40
1
 40
1
 40
1
 10
20.009993
 20
3.807484
 30
0.0
 10
20.006100
 20
3.850111
 30
0.0
 10
20.006100
 20
3.892739
 30
0.0
 10
20.017779
 20
3.939242
 30
0.0
  0
SPLINE
  5
15d
100
AcDbEntity
  8
0
 62
7
100
AcDbSpline
 70
8
 71
3
 72
8
 73
4
 74
0
 40
0
 40
0
 40
0
 40
0
 40
1
 40
1
 40
1
 40
1
 10
20.017779
 20
3.939242
 30
0.0
 10
20.095640
 20
3.946992
 30
0.0
 10
20.173500
 20
3.950868
 30
0.0
 10
20.251360
 20
3.958618
 30
0.0
  0
SPLINE
  5
15e
100
AcDbEntity
  8
0
 62
7
100
AcDbSpline
 70
8
 71
3
 72
8
 73
4
 74
0
 40
0
 40
0
 40
0
 40
0
 40
1
 40
1
 40
1
 40
1
 10
20.251360
 20
3.958618
 30
0.0
 10
20.488835
 20
3.807484
 30
0.0
 10
20.745774
 20
3.702852
 30
0.0
 10
21.006606
 20
3.602096
 30
0.0
  0
SPLINE
  5
15f
100
AcDbEntity
  8
0
 62
7
100
AcDbSpline
 70
8
 71
3
 72
8
 73
4
 74
0
 40
0
 40
0
 40
0
 40
0
 40
1
 40
1
 40
1
 40
1
 10
21.006606
 20
3.602096
 30
0.0
 10
21.220722
 20
3.520716
 30
0.0
 10
21.481555
 20
3.338580
 30
0.0
 10
21.641169
 20
3.509090
 30
0.0
  0
SPLINE
  5
160
100
AcDbEntity
  8
0
 62
7
100
AcDbSpline
 70
8
 71
3
 72
8
 73
4
 74
0
 40
0
 40
0
 40
0
 40
0
 40
1
 40
1
 40
1
 40
1
 10
21.641169
 20
3.509090
 30
0.0
 10
21.781317
 20
3.660225
 30
0.0
 10
21.520485
 20
3.877238
 30
0.0
 10
21.446518
 20
4.071000
 30
0.0
  0
SPLINE
  5
161
100
AcDbEntity
  8
0
 62
7
100
AcDbSpline
 70
8
 71
3
 72
8
 73
4
 74
0
 40
0
 40
0
 40
0
 40
0
 40
1
 40
1
 40
1
 40
1
 10
21.446518
 20
4.071000
 30
0.0
 10
21.407587
 20
4.175631
 30
0.0
 10
21.244080
 20
4.264762
 30
0.0
 10
21.360871
 20
4.384894
 30
0.0
  0
SPLINE
  5
162
100
AcDbEntity
  8
0
 62
7
100
AcDbSpline
 70
8
 71
3
 72
8
 73
4
 74
0
 40
0
 40
0
 40
0
 40
0
 40
1
 40
1
 40
1
 40
1
 10
21.360871
 20
4.384894
 30
0.0
 10
21.462090
 20
4.485651
 30
0.0
 10
21.610024
 20
4.431397
 30
0.0
 10
21.742387
 20
4.381019
 30
0.0
  0
SPLINE
  5
163
100
AcDbEntity
  8
0
 62
7
100
AcDbSpline
 70
8
 71
3
 72
8
 73
4
 74
0
 40
0
 40
0
 40
0
 40
0
 40
1
 40
1
 40
1
 40
1
 10
21.742387
 20
4.381019
 30
0.0
 10
22.166726
 20
4.218259
 30
0.0
 10
22.598851
 20
4.063249
 30
0.0
 10
23.023191
 20
3.904365
 30
0.0
  0
SPLINE
  5
164
100
AcDbEntity
  8
0
 62
7
100
AcDbSpline
 70
8
 71
3
 72
8
 73
4
 74
0
 40
0
 40
0
 40
0
 40
0
 40
1
 40
1
 40
1
 40
1
 10
23.023191
 20
3.904365
 30
0.0
 10
23.112730
 20
3.869487
 30
0.0
 10
23.213949
 20
3.834610
 30
0.0
 10
23.291809
 20
3.908240
 30
0.0
  0
SPLINE
  5
165
100
AcDbEntity
  8
0
 62
7
100
AcDbSpline
 70
8
 71
3
 72
8
 73
4
 74
0
 40
0
 40
0
 40
0
 40
0
 40
1
 40
1
 40
1
 40
1
 10
23.291809
 20
3.908240
 30
0.0
 10
23.396921
 20
4.008996
 30
0.0
 10
23.307381
 20
4.117503
 30
0.0
 10
23.252879
 20
4.198883
 30
0.0
  0
SPLINE
  5
166
100
AcDbEntity
  8
0
 62
7
100
AcDbSpline
 70
8
 71
3
 72
8
 73
4
 74
0
 40
0
 40
0
 40
0
 40
0
 40
1
 40
1
 40
1
 40
1
 10
23.252879
 20
4.198883
 30
0.0
 10
23.124409
 20
4.384894
 30
0.0
 10
22.972581
 20
4.559280
 30
0.0
 10
22.832433
 20
4.737541
 30
0.0
  0
SPLINE
  5
167
100
AcDbEntity
  8
0
 62
7
100
AcDbSpline
 70
8
 71
3
 72
8
 73
4
 74
0
 40
0
 40
0
 40
0
 40
0
 40
1
 40
1
 40
1
 40
1
 10
22.832433
 20
4.737541
 30
0.0
 10
22.746786
 20
4.846048
 30
0.0
 10
22.536563
 20
4.939054
 30
0.0
 10
22.649461
 20
5.094063
 30
0.0
  0
SPLINE
  5
168
100
AcDbEntity
  8
0
 62
7
100
AcDbSpline
 70
8
 71
3
 72
8
 73
4
 74
0
 40
0
 40
0
 40
0
 40
0
 40
1
 40
1
 40
1
 40
1
 10
22.649461
 20
5.094063
 30
0.0
 10
22.758465
 20
5.241322
 30
0.0
 10
22.945330
 20
5.156067
 30
0.0
 10
23.093265
 20
5.082438
 30
0.0
  0
SPLINE
  5
169
100
AcDbEntity
  8
0
 62
7
100
AcDbSpline
 70
8
 71
3
 72
8
 73
4
 74
0
 40
0
 40
0
 40
0
 40
0
 40
1
 40
1
 40
1
 40
1
 10
23.093265
 20
5.082438
 30
0.0
 10
23.502032
 20
4.873175
 30
0.0
 10
23.926371
 20
4.706539
 30
0.0
 10
24.362389
 20
4.570906
 30
0.0
  0
SPLINE
  5
16a
100
AcDbEntity
  8
0
 62
7
100
AcDbSpline
 70
8
 71
3
 72
8
 73
4
 74
0
 40
0
 40
0
 40
0
 40
0
 40
1
 40
1
 40
1
 40
1
 10
24.362389
 20
4.570906
 30
0.0
 10
24.440250
 20
4.547654
 30
0.0
 10
24.518110
 20
4.489526
 30
0.0
 10
24.588185
 20
4.555405
 30
0.0
  0
SPLINE
  5
16b
100
AcDbEntity
  8
0
 62
7
100
AcDbSpline
 70
8
 71
3
 72
8
 73
4
 74
0
 40
0
 40
0
 40
0
 40
0
 40
1
 40
1
 40
1
 40
1
 10
24.588185
 20
4.555405
 30
0.0
 10
24.681617
 20
4.640660
 30
0.0
 10
24.599864
 20
4.725916
 30
0.0
 10
24.572613
 20
4.811171
 30
0.0
  0
SPLINE
  5
16c
100
AcDbEntity
  8
0
 62
7
100
AcDbSpline
 70
8
 71
3
 72
8
 73
4
 74
0
 40
0
 40
0
 40
0
 40
0
 40
1
 40
1
 40
1
 40
1
 10
24.572613
 20
4.811171
 30
0.0
 10
24.463608
 20
5.121190
 30
0.0
 10
24.206669
 20
5.303326
 30
0.0
 10
23.992553
 20
5.524215
 30
0.0
  0
SPLINE
  5
16d
100
AcDbEntity
  8
0
 62
7
100
AcDbSpline
 70
8
 71
3
 72
8
 73
4
 74
0
 40
0
 40
0
 40
0
 40
0
 40
1
 40
1
 40
1
 40
1
 10
23.992553
 20
5.524215
 30
0.0
 10
23.860190
 20
5.659848
 30
0.0
 10
23.646074
 20
5.830359
 30
0.0
 10
23.747292
 20
5.989244
 30
0.0
  0
SPLINE
  5
16e
100
AcDbEntity
  8
0
 62
7
100
AcDbSpline
 70
8
 71
3
 72
8
 73
4
 74
0
 40
0
 40
0
 40
0
 40
0
 40
1
 40
1
 40
1
 40
1
 10
23.747292
 20
5.989244
 30
0.0
 10
23.864083
 20
6.175255
 30
0.0
 10
24.078199
 20
5.989244
 30
0.0
 10
24.245599
 20
5.927240
 30
0.0
  0
SPLINE
  5
16f
100
AcDbEntity
  8
0
 62
7
100
AcDbSpline
 70
8
 71
3
 72
8
 73
4
 74
0
 40
0
 40
0
 40
0
 40
0
 40
1
 40
1
 40
1
 40
1
 10
24.245599
 20
5.927240
 30
0.0
 10
24.557040
 20
5.810983
 30
0.0
 10
24.837338
 20
5.609470
 30
0.0
 10
25.195496
 20
5.543591
 30
0.0
  0
SPLINE
  5
170
100
AcDbEntity
  8
0
 62
7
100
AcDbSpline
 70
8
 71
3
 72
8
 73
4
 74
0
 40
0
 40
0
 40
0
 40
0
 40
1
 40
1
 40
1
 40
1
 10
25.195496
 20
5.543591
 30
0.0
 10
24.907412
 20
6.097750
 30
0.0
 10
24.451929
 20
6.427146
 30
0.0
 10
23.973087
 20
6.729415
 30
0.0
  0
SPLINE
  5
171
100
AcDbEntity
  8
0
 62
7
100
AcDbSpline
 70
8
 71
3
 72
8
 73
4
 74
0
 40
0
 40
0
 40
0
 40
0
 40
1
 40
1
 40
1
 40
1
 10
23.973087
 20
6.729415
 30
0.0
 10
23.813474
 20
6.830171
 30
0.0
 10
23.653860
 20
6.927052
 30
0.0
 10
23.494246
 20
7.027808
 30
0.0
  0
SPLINE
  5
172
100
AcDbEntity
  8
0
 62
7
100
AcDbSpline
 70
8
 71
3
 72
8
 73
4
 74
0
 40
0
 40
0
 40
0
 40
0
 40
1
 40
1
 40
1
 40
1
 10
23.494246
 20
7.027808
 30
0.0
 10
23.502032
 20
7.120814
 30
0.0
 10
23.513711
 20
7.209944
 30
0.0
 10
23.529283
 20
7.299075
 30
0.0
  0
SPLINE
  5
173
100
AcDbEntity
  8
0
 62
7
100
AcDbSpline
 70
8
 71
3
 72
8
 73
4
 74
0
 40
0
 40
0
 40
0
 40
0
 40
1
 40
1
 40
1
 40
1
 10
23.529283
 20
7.299075
 30
0.0
 10
23.544855
 20
7.388205
 30
0.0
 10
23.568213
 20
7.473461
 30
0.0
 10
23.603251
 20
7.558716
 30
0.0
  0
SPLINE
  5
174
100
AcDbEntity
  8
0
 62
7
100
AcDbSpline
 70
8
 71
3
 72
8
 73
4
 74
0
 40
0
 40
0
 40
0
 40
0
 40
1
 40
1
 40
1
 40
1
 10
23.603251
 20
7.558716
 30
0.0
 10
23.665539
 20
7.725351
 30
0.0
 10
23.762864
 20
7.876486
 30
0.0
 10
23.910799
 20
8.004369
 30
0.0
  0
SPLINE
  5
175
100
AcDbEntity
  8
0
 62
7
100
AcDbSpline
 70
8
 71
3
 72
8
 73
4
 74
0
 40
0
 40
0
 40
0
 40
0
 40
1
 40
1
 40
1
 40
1
 10
23.910799
 20
8.004369
 30
0.0
 10
24.307887
 20
7.891987
 30
0.0
 10
24.704975
 20
7.783480
 30
0.0
 10
25.098170
 20
7.663347
 30
0.0
  0
SPLINE
  5
176
100
AcDbEntity
  8
0
 62
7
100
AcDbSpline
 70
8
 71
3
 72
8
 73
4
 74
0
 40
0
 40
0
 40
0
 40
0
 40
1
 40
1
 40
1
 40
1
 10
25.098170
 20
7.663347
 30
0.0
 10
25.615942
 20
7.504463
 30
0.0
 10
25.756091
 20
7.616845
 30
0.0
 10
25.689909
 20
8.167129
 30
0.0
  0
SPLINE
  5
177
100
AcDbEntity
  8
0
 62
7
100
AcDbSpline
 70
8
 71
3
 72
8
 73
4
 74
0
 40
0
 40
0
 40
0
 40
0
 40
1
 40
1
 40
1
 40
1
 10
25.689909
 20
8.167129
 30
0.0
 10
25.643193
 20
8.543027
 30
0.0
 10
25.596477
 20
8.918925
 30
0.0
 10
25.510830
 20
9.287073
 30
0.0
  0
SPLINE
  5
178
100
AcDbEntity
  8
0
 62
7
100
AcDbSpline
 70
8
 71
3
 72
8
 73
4
 74
0
 40
0
 40
0
 40
0
 40
0
 40
1
 40
1
 40
1
 40
1
 10
25.510830
 20
9.287073
 30
0.0
 10
25.425184
 20
9.655221
 30
0.0
 10
25.308393
 20
10.011743
 30
0.0
 10
25.113742
 20
10.348889
 30
0.0
  0
SPLINE
  5
179
100
AcDbEntity
  8
0
 62
7
100
AcDbSpline
 70
8
 71
3
 72
8
 73
4
 74
0
 40
0
 40
0
 40
0
 40
0
 40
1
 40
1
 40
1
 40
1
 10
25.113742
 20
10.348889
 30
0.0
 10
25.394040
 20
10.720912
 30
0.0
 10
25.600370
 20
11.143313
 30
0.0
 10
25.935170
 20
11.476584
 30
0.0
  0
SPLINE
  5
17a
100
AcDbEntity
  8
0
 62
7
100
AcDbSpline
 70
8
 71
3
 72
8
 73
4
 74
0
 40
0
 40
0
 40
0
 40
0
 40
1
 40
1
 40
1
 40
1
 10
25.935170
 20
11.476584
 30
0.0
 10
25.981886
 20
11.499835
 30
0.0
 10
26.024709
 20
11.530837
 30
0.0
 10
26.063639
 20
11.561839
 30
0.0
  0
SPLINE
  5
17b
100
AcDbEntity
  8
0
 62
7
100
AcDbSpline
 70
8
 71
3
 72
8
 73
4
 74
0
 40
0
 40
0
 40
0
 40
0
 40
1
 40
1
 40
1
 40
1
 10
26.063639
 20
11.561839
 30
0.0
 10
26.180430
 20
11.658720
 30
0.0
 10
26.254397
 20
11.790478
 30
0.0
 10
26.301113
 20
11.933862
 30
0.0
  0
SPLINE
  5
17c
100
AcDbEntity
  8
0
 62
7
100
AcDbSpline
 70
8
 71
3
 72
8
 73
4
 74
0
 40
0
 40
0
 40
0
 40
0
 40
1
 40
1
 40
1
 40
1
 10
26.301113
 20
11.933862
 30
0.0
 10
26.585304
 20
12.751538
 30
0.0
 10
27.087503
 20
13.418079
 30
0.0
 10
27.722066
 20
13.999365
 30
0.0
  0
SPLINE
  5
17d
100
AcDbEntity
  8
0
 62
7
100
AcDbSpline
 70
8
 71
3
 72
8
 73
4
 74
0
 40
0
 40
0
 40
0
 40
0
 40
1
 40
1
 40
1
 40
1
 10
27.722066
 20
13.999365
 30
0.0
 10
28.060758
 20
14.309384
 30
0.0
 10
28.325484
 20
14.704659
 30
0.0
 10
28.278768
 20
15.196814
 30
0.0
  0
SPLINE
  5
17e
100
AcDbEntity
  8
0
 62
7
100
AcDbSpline
 70
8
 71
3
 72
8
 73
4
 74
0
 40
0
 40
0
 40
0
 40
0
 40
1
 40
1
 40
1
 40
1
 10
28.278768
 20
15.196814
 30
0.0
 10
28.220372
 20
15.774225
 30
0.0
 10
28.438381
 20
16.227628
 30
0.0
 10
28.773181
 20
16.681031
 30
0.0
  0
SPLINE
  5
17f
100
AcDbEntity
  8
0
 62
7
100
AcDbSpline
 70
8
 71
3
 72
8
 73
4
 74
0
 40
0
 40
0
 40
0
 40
0
 40
1
 40
1
 40
1
 40
1
 10
28.773181
 20
16.681031
 30
0.0
 10
29.384385
 20
17.506457
 30
0.0
 10
29.610180
 20
18.448140
 30
0.0
 10
29.279274
 20
19.444077
 30
0.0
  0
SPLINE
  5
180
100
AcDbEntity
  8
0
 62
7
100
AcDbSpline
 70
8
 71
3
 72
8
 73
4
 74
0
 40
0
 40
0
 40
0
 40
0
 40
1
 40
1
 40
1
 40
1
 10
29.279274
 20
19.444077
 30
0.0
 10
29.119660
 20
19.920732
 30
0.0
 10
29.228665
 20
20.211375
 30
0.0
 10
29.575143
 20
20.560146
 30
0.0
  0
SPLINE
  5
181
100
AcDbEntity
  8
0
 62
7
100
AcDbSpline
 70
8
 71
3
 72
8
 73
4
 74
0
 40
0
 40
0
 40
0
 40
0
 40
1
 40
1
 40
1
 40
1
 10
29.575143
 20
20.560146
 30
0.0
 10
30.209706
 20
21.195686
 30
0.0
 10
30.451073
 20
22.005611
 30
0.0
 10
30.330389
 20
22.900791
 30
0.0
  0
SPLINE
  5
182
100
AcDbEntity
  8
0
 62
7
100
AcDbSpline
 70
8
 71
3
 72
8
 73
4
 74
0
 40
0
 40
0
 40
0
 40
0
 40
1
 40
1
 40
1
 40
1
 10
30.330389
 20
22.900791
 30
0.0
 10
30.233064
 20
23.609960
 30
0.0
 10
30.186347
 20
24.292002
 30
0.0
 10
30.435501
 20
24.997296
 30
0.0
  0
SPLINE
  5
183
100
AcDbEntity
  8
0
 62
7
100
AcDbSpline
 70
8
 71
3
 72
8
 73
4
 74
0
 40
0
 40
0
 40
0
 40
0
 40
1
 40
1
 40
1
 40
1
 10
30.435501
 20
24.997296
 30
0.0
 10
30.820910
 20
26.074613
 30
0.0
 10
30.852054
 20
27.167430
 30
0.0
 10
30.303138
 20
28.217620
 30
0.0
  0
SPLINE
  5
184
100
AcDbEntity
  8
0
 62
7
100
AcDbSpline
 70
8
 71
3
 72
8
 73
4
 74
0
 40
0
 40
0
 40
0
 40
0
 40
1
 40
1
 40
1
 40
1
 10
30.303138
 20
28.217620
 30
0.0
 10
30.213599
 20
28.392006
 30
0.0
 10
30.240850
 20
28.496638
 30
0.0
 10
30.369319
 20
28.640022
 30
0.0
  0
SPLINE
  5
185
100
AcDbEntity
  8
0
 62
7
100
AcDbSpline
 70
8
 71
3
 72
8
 73
4
 74
0
 40
0
 40
0
 40
0
 40
0
 40
1
 40
1
 40
1
 40
1
 10
30.369319
 20
28.640022
 30
0.0
 10
30.863733
 20
29.194181
 30
0.0
 10
30.945486
 20
29.876223
 30
0.0
 10
30.587328
 20
30.527263
 30
0.0
  0
SPLINE
  5
186
100
AcDbEntity
  8
0
 62
7
100
AcDbSpline
 70
8
 71
3
 72
8
 73
4
 74
0
 40
0
 40
0
 40
0
 40
0
 40
1
 40
1
 40
1
 40
1
 10
33.569382
 20
30.736526
 30
0.0
 10
34.083260
 20
31.775091
 30
0.0
 10
34.079367
 20
32.836906
 30
0.0
 10
33.557703
 20
33.817342
 30
0.0
  0
SPLINE
  5
187
100
AcDbEntity
  8
0
 62
7
100
AcDbSpline
 70
8
 71
3
 72
8
 73
4
 74
0
 40
0
 40
0
 40
0
 40
0
 40
1
 40
1
 40
1
 40
1
 10
33.557703
 20
33.817342
 30
0.0
 10
33.608312
 20
33.925849
 30
0.0
 10
33.655028
 20
34.045981
 30
0.0
 10
33.693958
 20
34.173864
 30
0.0
  0
SPLINE
  5
188
100
AcDbEntity
  8
0
 62
7
100
AcDbSpline
 70
8
 71
3
 72
8
 73
4
 74
0
 40
0
 40
0
 40
0
 40
0
 40
1
 40
1
 40
1
 40
1
 10
33.693958
 20
34.173864
 30
0.0
 10
34.036544
 20
35.313185
 30
0.0
 10
33.732889
 20
36.394377
 30
0.0
 10
32.825815
 20
37.270181
 30
0.0
  0
SPLINE
  5
189
100
AcDbEntity
  8
0
 62
7
100
AcDbSpline
 70
8
 71
3
 72
8
 73
4
 74
0
 40
0
 40
0
 40
0
 40
0
 40
1
 40
1
 40
1
 40
1
 10
32.825815
 20
37.270181
 30
0.0
 10
33.102219
 20
38.948160
 30
0.0
 10
32.533838
 20
40.509882
 30
0.0
 10
31.175175
 20
41.811962
 30
0.0
  0
SPLINE
  5
18a
100
AcDbEntity
  8
0
 62
7
100
AcDbSpline
 70
8
 71
3
 72
8
 73
4
 74
0
 40
0
 40
0
 40
0
 40
0
 40
1
 40
1
 40
1
 40
1
 10
31.175175
 20
41.811962
 30
0.0
 10
30.887091
 20
42.087104
 30
0.0
 10
30.894877
 20
42.160734
 30
0.0
 10
30.902663
 20
42.226613
 30
0.0
  0
SPLINE
  5
18b
100
AcDbEntity
  8
0
 62
7
100
AcDbSpline
 70
8
 71
3
 72
8
 73
4
 74
0
 40
0
 40
0
 40
0
 40
0
 40
1
 40
1
 40
1
 40
1
 10
30.902663
 20
42.226613
 30
0.0
 10
31.011668
 20
43.315555
 30
0.0
 10
30.482217
 20
44.276615
 30
0.0
 10
29.516748
 20
44.768770
 30
0.0
  0
SPLINE
  5
18c
100
AcDbEntity
  8
0
 62
7
100
AcDbSpline
 70
8
 71
3
 72
8
 73
4
 74
0
 40
0
 40
0
 40
0
 40
0
 40
1
 40
1
 40
1
 40
1
 10
29.516748
 20
44.768770
 30
0.0
 10
29.485604
 20
44.838525
 30
0.0
 10
29.450567
 20
44.935406
 30
0.0
 10
29.434995
 20
44.985784
 30
0.0
  0
LWPOLYLINE
  5
18d
100
AcDbEntity
  8
0
 62
7
100
AcDbPolyline
 90
1
 70
1
 10
30.587328
 20
30.527263
 30
0.0
  0
SPLINE
  5
18e
100
AcDbEntity
  8
0
 62
7
100
AcDbSpline
 70
8
 71
3
 72
8
 73
4
 74
0
 40
0
 40
0
 40
0
 40
0
 40
1
 40
1
 40
1
 40
1
 10
29.325990
 20
45.272552
 30
0.0
 10
29.232558
 20
45.516692
 30
0.0
 10
29.146911
 20
45.745331
 30
0.0
 10
29.096302
 20
45.942968
 30
0.0
  0
SPLINE
  5
18f
100
AcDbEntity
  8
0
 62
7
100
AcDbSpline
 70
8
 71
3
 72
8
 73
4
 74
0
 40
0
 40
0
 40
0
 40
0
 40
1
 40
1
 40
1
 40
1
 10
29.096302
 20
45.942968
 30
0.0
 10
28.714786
 20
47.469813
 30
0.0
 10
27.706494
 20
48.609133
 30
0.0
 10
26.164858
 20
49.275675
 30
0.0
  0
SPLINE
  5
190
100
AcDbEntity
  8
0
 62
7
100
AcDbSpline
 70
8
 71
3
 72
8
 73
4
 74
0
 40
0
 40
0
 40
0
 40
0
 40
1
 40
1
 40
1
 40
1
 10
26.164858
 20
49.275675
 30
0.0
 10
25.744412
 20
50.736640
 30
0.0
 10
24.467501
 20
51.914713
 30
0.0
 10
22.941437
 20
52.267360
 30
0.0
  0
SPLINE
  5
191
100
AcDbEntity
  8
0
 62
7
100
AcDbSpline
 70
8
 71
3
 72
8
 73
4
 74
0
 40
0
 40
0
 40
0
 40
0
 40
1
 40
1
 40
1
 40
1
 10
22.941437
 20
52.267360
 30
0.0
 10
22.209549
 20
53.224544
 30
0.0
 10
21.049429
 20
53.743826
 30
0.0
 10
19.601226
 20
53.743826
 30
0.0
  0
SPLINE
  5
192
100
AcDbEntity
  8
0
 62
7
100
AcDbSpline
 70
8
 71
3
 72
8
 73
4
 74
0
 40
0
 40
0
 40
0
 40
0
 40
1
 40
1
 40
1
 40
1
 10
19.601226
 20
53.743826
 30
0.0
 10
19.511687
 20
53.743826
 30
0.0
 10
19.422147
 20
53.743826
 30
0.0
 10
19.332608
 20
53.739951
 30
0.0
  0
SPLINE
  5
193
100
AcDbEntity
  8
0
 62
7
100
AcDbSpline
 70
8
 71
3
 72
8
 73
4
 74
0
 40
0
 40
0
 40
0
 40
0
 40
1
 40
1
 40
1
 40
1
 10
19.332608
 20
53.739951
 30
0.0
 10
19.056203
 20
53.980216
 30
0.0
 10
18.740869
 20
54.201105
 30
0.0
 10
18.378818
 20
54.410368
 30
0.0
  0
SPLINE
  5
194
100
AcDbEntity
  8
0
 62
7
100
AcDbSpline
 70
8
 71
3
 72
8
 73
4
 74
0
 40
0
 40
0
 40
0
 40
0
 40
1
 40
1
 40
1
 40
1
 10
18.378818
 20
54.410368
 30
0.0
 10
17.463958
 20
54.941275
 30
0.0
 10
16.552991
 20
54.952901
 30
0.0
 10
15.891178
 20
54.960652
 30
0.0
  0
SPLINE
  5
195
100
AcDbEntity
  8
0
 62
7
100
AcDbSpline
 70
8
 71
3
 72
8
 73
4
 74
0
 40
0
 40
0
 40
0
 40
0
 40
1
 40
1
 40
1
 40
1
 10
15.891178
 20
54.960652
 30
0.0
 10
15.774387
 20
54.960652
 30
0.0
 10
15.657597
 20
54.964527
 30
0.0
 10
15.540806
 20
54.968402
 30
0.0
  0
SPLINE
  5
196
100
AcDbEntity
  8
0
 62
7
100
AcDbSpline
 70
8
 71
3
 72
8
 73
4
 74
0
 40
0
 40
0
 40
0
 40
0
 40
1
 40
1
 40
1
 40
1
 10
15.540806
 20
54.968402
 30
0.0
 10
15.462946
 20
54.976153
 30
0.0
 10
15.388978
 20
54.976153
 30
0.0
 10
15.318904
 20
54.976153
 30
0.0
  0
SPLINE
  5
197
100
AcDbEntity
  8
0
 62
7
100
AcDbSpline
 70
8
 71
3
 72
8
 73
4
 74
0
 40
0
 40
0
 40
0
 40
0
 40
1
 40
1
 40
1
 40
1
 10
15.318904
 20
54.976153
 30
0.0
 10
14.481905
 20
54.976153
 30
0.0
 10
13.687729
 20
54.747513
 30
0.0
 10
12.959734
 20
54.301861
 30
0.0
  0
SPLINE
  5
198
100
AcDbEntity
  8
0
 62
7
100
AcDbSpline
 70
8
 71
3
 72
8
 73
4
 74
0
 40
0
 40
0
 40
0
 40
0
 40
1
 40
1
 40
1
 40
1
 10
12.959734
 20
54.301861
 30
0.0
 10
12.220060
 20
53.848458
 30
0.0
 10
11.787935
 20
53.251671
 30
0.0
 10
11.453135
 20
52.740139
 30
0.0
  0
LWPOLYLINE
  5
199
100
AcDbEntity
  8
0
 62
7
100
AcDbPolyline
 90
2
 70
0
 10
29.434995
 20
44.985784
 30
0.0
 10
29.325990
 20
45.272552
 30
0.0
  0
SPLINE
  5
19a
100
AcDbEntity
  8
0
 62
7
100
AcDbSpline
 70
8
 71
3
 72
8
 73
4
 74
0
 40
0
 40
0
 40
0
 40
0
 40
1
 40
1
 40
1
 40
1
 10
11.453135
 20
52.740139
 30
0.0
 10
11.176731
 20
52.740139
 30
0.0
 10
10.744606
 20
52.724638
 30
0.0
 10
10.285229
 20
52.558003
 30
0.0
  0
SPLINE
  5
19b
100
AcDbEntity
  8
0
 62
7
100
AcDbSpline
 70
8
 71
3
 72
8
 73
4
 74
0
 40
0
 40
0
 40
0
 40
0
 40
1
 40
1
 40
1
 40
1
 10
10.285229
 20
52.558003
 30
0.0
 10
8.981067
 20
52.081348
 30
0.0
 10
8.085673
 20
51.217170
 30
0.0
 10
7.692478
 20
50.073974
 30
0.0
  0
SPLINE
  5
19c
100
AcDbEntity
  8
0
 62
7
100
AcDbSpline
 70
8
 71
3
 72
8
 73
4
 74
0
 40
0
 40
0
 40
0
 40
0
 40
1
 40
1
 40
1
 40
1
 10
7.692478
 20
50.073974
 30
0.0
 10
5.835507
 20
49.430684
 30
0.0
 10
4.496308
 20
47.876713
 30
0.0
 10
4.258834
 20
45.993346
 30
0.0
  0
SPLINE
  5
19d
100
AcDbEntity
  8
0
 62
7
100
AcDbSpline
 70
8
 71
3
 72
8
 73
4
 74
0
 40
0
 40
0
 40
0
 40
0
 40
1
 40
1
 40
1
 40
1
 10
4.258834
 20
45.993346
 30
0.0
 10
4.219904
 20
45.691078
 30
0.0
 10
4.192653
 20
45.609698
 30
0.0
 10
4.180974
 20
45.586446
 30
0.0
  0
SPLINE
  5
19e
100
AcDbEntity
  8
0
 62
7
100
AcDbSpline
 70
8
 71
3
 72
8
 73
4
 74
0
 40
0
 40
0
 40
0
 40
0
 40
1
 40
1
 40
1
 40
1
 10
4.180974
 20
45.586446
 30
0.0
 10
4.180974
 20
45.586446
 30
0.0
 10
4.165402
 20
45.567070
 30
0.0
 10
4.114792
 20
45.520567
 30
0.0
  0
SPLINE
  5
19f
100
AcDbEntity
  8
0
 62
7
100
AcDbSpline
 70
8
 71
3
 72
8
 73
4
 74
0
 40
0
 40
0
 40
0
 40
0
 40
1
 40
1
 40
1
 40
1
 10
4.114792
 20
45.520567
 30
0.0
 10
2.787273
 20
44.439375
 30
0.0
 10
2.152710
 20
42.928031
 30
0.0
 10
2.281180
 20
41.153172
 30
0.0
  0
SPLINE
  5
1a0
100
AcDbEntity
  8
0
 62
7
100
AcDbSpline
 70
8
 71
3
 72
8
 73
4
 74
0
 40
0
 40
0
 40
0
 40
0
 40
1
 40
1
 40
1
 40
1
 10
2.281180
 20
41.153172
 30
0.0
 10
2.296752
 20
40.928408
 30
0.0
 10
2.273394
 20
40.889655
 30
0.0
 10
2.133245
 20
40.754022
 30
0.0
  0
SPLINE
  5
1a1
100
AcDbEntity
  8
0
 62
7
100
AcDbSpline
 70
8
 71
3
 72
8
 73
4
 74
0
 40
0
 40
0
 40
0
 40
0
 40
1
 40
1
 40
1
 40
1
 10
2.133245
 20
40.754022
 30
0.0
 10
0.840763
 20
39.525571
 30
0.0
 10
0.373600
 20
37.886344
 30
0.0
 10
0.813512
 20
36.134736
 30
0.0
  0
SPLINE
  5
1a2
100
AcDbEntity
  8
0
 62
7
100
AcDbSpline
 70
8
 71
3
 72
8
 73
4
 74
0
 40
0
 40
0
 40
0
 40
0
 40
1
 40
1
 40
1
 40
1
 10
0.813512
 20
36.134736
 30
0.0
 10
0.817405
 20
36.123110
 30
0.0
 10
0.817405
 20
36.111484
 30
0.0
 10
0.821298
 20
36.107609
 30
0.0
  0
SPLINE
  5
1a3
100
AcDbEntity
  8
0
 62
7
100
AcDbSpline
 70
8
 71
3
 72
8
 73
4
 74
0
 40
0
 40
0
 40
0
 40
0
 40
1
 40
1
 40
1
 40
1
 10
0.821298
 20
36.107609
 30
0.0
 10
0.817405
 20
36.099859
 30
0.0
 10
0.809619
 20
36.080482
 30
0.0
 10
0.797939
 20
36.057231
 30
0.0
  0
SPLINE
  5
1a4
100
AcDbEntity
  8
0
 62
7
100
AcDbSpline
 70
8
 71
3
 72
8
 73
4
 74
0
 40
0
 40
0
 40
0
 40
0
 40
1
 40
1
 40
1
 40
1
 10
0.797939
 20
36.057231
 30
0.0
 10
0.112768
 20
34.673770
 30
0.0
 10
0.062159
 20
33.387191
 30
0.0
 10
0.646112
 20
32.216868
 30
0.0
  0
SPLINE
  5
1a5
100
AcDbEntity
  8
0
 62
7
100
AcDbSpline
 70
8
 71
3
 72
8
 73
4
 74
0
 40
0
 40
0
 40
0
 40
0
 40
1
 40
1
 40
1
 40
1
 10
0.646112
 20
32.216868
 30
0.0
 10
0.101089
 20
31.019419
 30
0.0
 10
0.081624
 20
29.876223
 30
0.0
 10
0.591609
 20
28.814407
 30
0.0
  0
SPLINE
  5
1a6
100
AcDbEntity
  8
0
 62
7
100
AcDbSpline
 70
8
 71
3
 72
8
 73
4
 74
0
 40
0
 40
0
 40
0
 40
0
 40
1
 40
1
 40
1
 40
1
 10
0.591609
 20
28.814407
 30
0.0
 10
0.451461
 20
28.430759
 30
0.0
 10
0.307419
 20
27.892100
 30
0.0
 10
0.486498
 20
27.268187
 30
0.0
  0
SPLINE
  5
1a7
100
AcDbEntity
  8
0
 62
7
100
AcDbSpline
 70
8
 71
3
 72
8
 73
4
 74
0
 40
0
 40
0
 40
0
 40
0
 40
1
 40
1
 40
1
 40
1
 10
0.486498
 20
27.268187
 30
0.0
 10
0.482605
 20
27.233309
 30
0.0
 10
0.459247
 20
27.148054
 30
0.0
 10
0.381386
 20
26.958167
 30
0.0
  0
SPLINE
  5
1a8
100
AcDbEntity
  8
0
 62
7
100
AcDbSpline
 70
8
 71
3
 72
8
 73
4
 74
0
 40
0
 40
0
 40
0
 40
0
 40
1
 40
1
 40
1
 40
1
 10
0.381386
 20
26.958167
 30
0.0
 10
-0.074097
 20
25.842098
 30
0.0
 10
-0.062418
 20
24.733780
 30
0.0
 10
0.416423
 20
23.660338
 30
0.0
  0
SPLINE
  5
1a9
100
AcDbEntity
  8
0
 62
7
100
AcDbSpline
 70
8
 71
3
 72
8
 73
4
 74
0
 40
0
 40
0
 40
0
 40
0
 40
1
 40
1
 40
1
 40
1
 10
0.416423
 20
23.660338
 30
0.0
 10
0.494284
 20
23.489828
 30
0.0
 10
0.490391
 20
23.431699
 30
0.0
 10
0.490391
 20
23.431699
 30
0.0
  0
SPLINE
  5
1aa
100
AcDbEntity
  8
0
 62
7
100
AcDbSpline
 70
8
 71
3
 72
8
 73
4
 74
0
 40
0
 40
0
 40
0
 40
0
 40
1
 40
1
 40
1
 40
1
 10
0.490391
 20
23.431699
 30
0.0
 10
0.322991
 20
22.889165
 30
0.0
 10
0.132233
 20
22.164496
 30
0.0
 10
0.182842
 20
21.377822
 30
0.0
  0
SPLINE
  5
1ab
100
AcDbEntity
  8
0
 62
7
100
AcDbSpline
 70
8
 71
3
 72
8
 73
4
 74
0
 40
0
 40
0
 40
0
 40
0
 40
1
 40
1
 40
1
 40
1
 10
0.182842
 20
21.377822
 30
0.0
 10
0.264596
 20
20.002112
 30
0.0
 10
0.871907
 20
18.808538
 30
0.0
 10
1.938594
 20
17.917232
 30
0.0
  0
SPLINE
  5
1ac
100
AcDbEntity
  8
0
 62
7
100
AcDbSpline
 70
8
 71
3
 72
8
 73
4
 74
0
 40
0
 40
0
 40
0
 40
0
 40
1
 40
1
 40
1
 40
1
 10
1.938594
 20
17.917232
 30
0.0
 10
1.938594
 20
17.890106
 30
0.0
 10
1.934701
 20
17.843603
 30
0.0
 10
1.926915
 20
17.781599
 30
0.0
  0
SPLINE
  5
1ad
100
AcDbEntity
  8
0
 62
7
100
AcDbSpline
 70
8
 71
3
 72
8
 73
4
 74
0
 40
0
 40
0
 40
0
 40
0
 40
1
 40
1
 40
1
 40
1
 10
1.926915
 20
17.781599
 30
0.0
 10
1.728371
 20
16.607401
 30
0.0
 10
1.930808
 20
15.530085
 30
0.0
 10
2.503082
 20
14.623278
 30
0.0
  0
SPLINE
  5
1ae
100
AcDbEntity
  8
0
 62
7
100
AcDbSpline
 70
8
 71
3
 72
8
 73
4
 74
0
 40
0
 40
0
 40
0
 40
0
 40
1
 40
1
 40
1
 40
1
 10
2.503082
 20
14.623278
 30
0.0
 10
1.868520
 20
13.433580
 30
0.0
 10
1.514255
 20
12.143125
 30
0.0
 10
1.514255
 20
10.794541
 30
0.0
  0
SPLINE
  5
1af
100
AcDbEntity
  8
0
 62
7
100
AcDbSpline
 70
8
 71
3
 72
8
 73
4
 74
0
 40
0
 40
0
 40
0
 40
0
 40
1
 40
1
 40
1
 40
1
 10
1.514255
 20
10.794541
 30
0.0
 10
1.514255
 20
4.857674
 30
0.0
 10
8.260859
 20
0.048501
 30
0.0
 10
16.584136
 20
0.048501
 30
0.0
  0
SPLINE
  5
1b0
100
AcDbEntity
  8
0
 62
7
100
AcDbSpline
 70
8
 71
3
 72
8
 73
4
 74
0
 40
0
 40
0
 40
0
 40
0
 40
1
 40
1
 40
1
 40
1
 10
16.584136
 20
0.048501
 30
0.0
 10
24.907412
 20
0.048501
 30
0.0
 10
31.654016
 20
4.861549
 30
0.0
 10
31.654016
 20
10.794541
 30
0.0
  0
SPLINE
  5
1b1
100
AcDbEntity
  8
0
 62
7
100
AcDbSpline
 70
8
 71
3
 72
8
 73
4
 74
0
 40
0
 40
0
 40
0
 40
0
 40
1
 40
1
 40
1
 40
1
 10
31.654016
 20
10.794541
 30
0.0
 10
31.654016
 20
11.991991
 30
0.0
 10
31.373719
 20
13.142937
 30
0.0
 10
30.867626
 20
14.220254
 30
0.0
  0
SPLINE
  5
1b2
100
AcDbEntity
  8
0
 62
7
100
AcDbSpline
 70
8
 71
3
 72
8
 73
4
 74
0
 40
0
 40
0
 40
0
 40
0
 40
1
 40
1
 40
1
 40
1
 10
30.867626
 20
14.220254
 30
0.0
 10
31.011668
 20
14.631029
 30
0.0
 10
31.027240
 20
15.010802
 30
0.0
 10
30.996096
 20
15.320822
 30
0.0
  0
SPLINE
  5
1b3
100
AcDbEntity
  8
0
 62
7
100
AcDbSpline
 70
8
 71
3
 72
8
 73
4
 74
0
 40
0
 40
0
 40
0
 40
0
 40
1
 40
1
 40
1
 40
1
 10
30.996096
 20
15.320822
 30
0.0
 10
30.992203
 20
15.363449
 30
0.0
 10
30.984417
 20
15.437079
 30
0.0
 10
31.206319
 20
15.716096
 30
0.0
  0
SPLINE
  5
1b4
100
AcDbEntity
  8
0
 62
7
100
AcDbSpline
 70
8
 71
3
 72
8
 73
4
 74
0
 40
0
 40
0
 40
0
 40
0
 40
1
 40
1
 40
1
 40
1
 10
31.206319
 20
15.716096
 30
0.0
 10
32.164002
 20
16.905795
 30
0.0
 10
32.479336
 20
18.273755
 30
0.0
 10
32.105606
 20
19.610712
 30
0.0
  0
SPLINE
  5
1b5
100
AcDbEntity
  8
0
 62
7
100
AcDbSpline
 70
8
 71
3
 72
8
 73
4
 74
0
 40
0
 40
0
 40
0
 40
0
 40
1
 40
1
 40
1
 40
1
 10
32.105606
 20
19.610712
 30
0.0
 10
33.024359
 20
20.556271
 30
0.0
 10
33.421447
 20
21.784722
 30
0.0
 10
33.226796
 20
23.094553
 30
0.0
  0
SPLINE
  5
1b6
100
AcDbEntity
  8
0
 62
7
100
AcDbSpline
 70
8
 71
3
 72
8
 73
4
 74
0
 40
0
 40
0
 40
0
 40
0
 40
1
 40
1
 40
1
 40
1
 10
33.226796
 20
23.094553
 30
0.0
 10
33.141150
 20
23.679714
 30
0.0
 10
33.117791
 20
24.090490
 30
0.0
 10
33.257940
 20
24.454762
 30
0.0
  0
SPLINE
  5
1b7
100
AcDbEntity
  8
0
 62
7
100
AcDbSpline
 70
8
 71
3
 72
8
 73
4
 74
0
 40
0
 40
0
 40
0
 40
0
 40
1
 40
1
 40
1
 40
1
 10
33.257940
 20
24.454762
 30
0.0
 10
33.779605
 20
25.791720
 30
0.0
 10
33.806856
 20
27.062799
 30
0.0
 10
33.351373
 20
28.244747
 30
0.0
  0
SPLINE
  5
1b8
100
AcDbEntity
  8
0
 62
7
100
AcDbSpline
 70
8
 71
3
 72
8
 73
4
 74
0
 40
0
 40
0
 40
0
 40
0
 40
1
 40
1
 40
1
 40
1
 10
33.351373
 20
28.244747
 30
0.0
 10
33.795177
 20
29.019795
 30
0.0
 10
33.880823
 20
29.903350
 30
0.0
 10
33.569382
 20
30.736526
 30
0.0
  0
LWPOLYLINE
  5
1b9
100
AcDbEntity
  8
0
 62
7
100
AcDbPolyline
 90
1
 70
1
 10
11.453135
 20
52.740139
 30
0.0
  0
LWPOLYLINE
  5
1ba
100
AcDbEntity
  8
0
 62
7
100
AcDbPolyline
 90
1
 70
1
 10
33.569382
 20
30.736526
 30
0.0
  0
ENDSEC
  0
SECTION
  2
OBJECTS
  0
DICTIONARY
  5
C
330
0
100
AcDbDictionary
  3
ACAD_GROUP
350
D
  3
ACAD_MLINESTYLE
350
17
  0
DICTIONARY
  5
D
330
C
100
AcDbDictionary
  0
DICTIONARY
  5
1A
330
C
100
AcDbDictionary
  0
DICTIONARY
  5
17
330
C
100
AcDbDictionary
  3
STANDARD
350
18
  0
DICTIONARY
  5
19
330
C
100
AcDbDictionary
  0
ENDSEC
  0
EOF
